<svg id="uuid-a727c259-e857-46b7-aab4-784a31a4fdee" xmlns="http://www.w3.org/2000/svg" viewBox="0 0 84.605 99.783"><defs><linearGradient id="uuid-559e6c04-e523-451d-99c2-7c029f407951" x1="42.327" y1="99.381" x2="42.327" y2="1.047" gradientUnits="userSpaceOnUse"><stop offset="0" stop-color="#16b84e"/><stop offset=".275" stop-color="#0e9340"/><stop offset=".579" stop-color="#077233"/><stop offset=".832" stop-color="#035d2b"/><stop offset="1" stop-color="#025629"/></linearGradient></defs><path d="M13.689 76.71C5.052 69.786.099 59.465.099 48.395V.05L84.555.1l-.05 48.295c0 11.07-4.953 21.39-13.588 28.315L42.303 99.655 13.69 76.71ZM4.225 48.542c0 9.993 4.47 19.31 12.265 25.56l25.782 20.673 25.843-20.674c7.795-6.25 12.266-15.566 12.266-25.559V5.032L4.225 4.984v43.56Z" stroke-width="0" fill="url(#uuid-559e6c04-e523-451d-99c2-7c029f407951)"/><path d="M84.456.15v48.245c0 11.055-4.947 21.361-13.57 28.276L42.302 99.59 13.72 76.671C5.095 69.756.15 59.45.15 48.395V.149h84.306M42.303 94.863l.063-.05 25.78-20.674C75.953 67.88 80.43 58.55 80.43 48.542V4.933H4.175v43.61c0 10.007 4.477 19.337 12.284 25.596L42.24 94.814l.062.05M84.555.05H.05v48.345a36.34 36.34 0 0 0 13.607 28.353l28.646 22.97 28.644-22.97a36.34 36.34 0 0 0 13.608-28.353V.05ZM42.303 94.736 16.521 74.062a32.711 32.711 0 0 1-12.246-25.52V5.032H80.33v43.51a32.711 32.711 0 0 1-12.246 25.52l-25.78 20.674Z" fill="#025629" stroke-width="0"/><path d="M80.33 5.033v43.51a32.711 32.711 0 0 1-12.246 25.519l-25.78 20.674L16.52 74.062a32.711 32.711 0 0 1-12.246-25.52V5.032H80.33Z" fill="#ede0d3" stroke-width="0"/><path d="M80.33 4.933h-1.194a.05.05 0 0 0 0 .1h1.194v1.154a.05.05 0 1 0 .1 0V5.033a.05.05 0 0 0-.05-.05.05.05 0 0 0-.05-.05Zm-1.79 0h-1.195a.05.05 0 1 0 0 .1h1.194a.05.05 0 0 0 0-.1Zm-1.792 0h-1.194a.05.05 0 0 0 0 .1h1.194a.05.05 0 1 0 0-.1Zm-1.79 0h-1.195a.05.05 0 0 0 0 .1h1.194a.05.05 0 0 0 0-.1Zm-1.792 0h-1.194a.05.05 0 0 0 0 .1h1.194a.05.05 0 0 0 0-.1Zm-1.79 0H70.18a.05.05 0 0 0 0 .1h1.194a.05.05 0 0 0 0-.1Zm-1.792 0H68.39a.05.05 0 0 0 0 .1h1.194a.05.05 0 1 0 0-.1Zm-1.79 0h-1.195a.05.05 0 0 0 0 .1h1.194a.05.05 0 0 0 0-.1Zm-1.792 0h-1.194a.05.05 0 0 0 0 .1h1.194a.05.05 0 0 0 0-.1Zm-1.79 0h-1.195a.05.05 0 0 0 0 .1h1.194a.05.05 0 0 0 0-.1Zm-1.792 0h-1.194a.05.05 0 0 0 0 .1h1.194a.05.05 0 1 0 0-.1Zm-1.79 0h-1.195a.05.05 0 0 0 0 .1h1.194a.05.05 0 0 0 0-.1Zm-1.792 0h-1.194a.05.05 0 1 0 0 .1h1.194a.05.05 0 0 0 0-.1Zm-1.79 0h-1.195a.05.05 0 0 0 0 .1h1.194a.05.05 0 0 0 0-.1Zm-1.792 0h-1.194a.05.05 0 0 0 0 .1h1.194a.05.05 0 0 0 0-.1Zm-1.79 0H52.27a.05.05 0 0 0 0 .1h1.194a.05.05 0 0 0 0-.1Zm-1.792 0H50.48a.05.05 0 1 0 0 .1h1.194a.05.05 0 0 0 0-.1Zm-1.79 0h-1.195a.05.05 0 0 0 0 .1h1.194a.05.05 0 0 0 0-.1Zm-1.792 0h-1.194a.05.05 0 0 0 0 .1h1.194a.05.05 0 0 0 0-.1Zm-1.79 0h-1.195a.05.05 0 0 0 0 .1h1.194a.05.05 0 0 0 0-.1Zm-1.792 0h-1.194a.05.05 0 1 0 0 .1h1.194a.05.05 0 0 0 0-.1Zm-1.79 0h-1.195a.05.05 0 0 0 0 .1h1.194a.05.05 0 1 0 0-.1Zm-1.792 0h-1.194a.05.05 0 0 0 0 .1h1.194a.05.05 0 0 0 0-.1Zm-1.79 0h-1.195a.05.05 0 0 0 0 .1h1.194a.05.05 0 0 0 0-.1Zm-1.792 0h-1.194a.05.05 0 1 0 0 .1h1.194a.05.05 0 0 0 0-.1Zm-1.79 0H34.36a.05.05 0 0 0 0 .1h1.194a.05.05 0 1 0 0-.1Zm-1.792 0H32.57a.05.05 0 0 0 0 .1h1.194a.05.05 0 0 0 0-.1Zm-1.79 0h-1.195a.05.05 0 0 0 0 .1h1.194a.05.05 0 0 0 0-.1Zm-1.792 0h-1.194a.05.05 0 1 0 0 .1h1.194a.05.05 0 0 0 0-.1Zm-1.79 0h-1.195a.05.05 0 0 0 0 .1h1.194a.05.05 0 1 0 0-.1Zm-1.792 0h-1.194a.05.05 0 0 0 0 .1H26.6a.05.05 0 0 0 0-.1Zm-1.79 0h-1.195a.05.05 0 0 0 0 .1h1.194a.05.05 0 0 0 0-.1Zm-1.792 0h-1.194a.05.05 0 1 0 0 .1h1.194a.05.05 0 0 0 0-.1Zm-1.79 0h-1.195a.05.05 0 0 0 0 .1h1.194a.05.05 0 1 0 0-.1Zm-1.792 0h-1.194a.05.05 0 0 0 0 .1h1.194a.05.05 0 0 0 0-.1Zm-1.79 0H16.45a.05.05 0 0 0 0 .1h1.194a.05.05 0 0 0 0-.1Zm-1.792 0H14.66a.05.05 0 1 0 0 .1h1.194a.05.05 0 0 0 0-.1Zm-1.79 0h-1.195a.05.05 0 0 0 0 .1h1.194a.05.05 0 1 0 0-.1Zm-1.792 0h-1.194a.05.05 0 0 0 0 .1h1.194a.05.05 0 0 0 0-.1Zm-1.79 0H9.286a.05.05 0 0 0 0 .1h1.194a.05.05 0 0 0 0-.1Zm-1.792 0H7.496a.05.05 0 1 0 0 .1H8.69a.05.05 0 0 0 0-.1Zm-1.79 0H5.704a.05.05 0 0 0 0 .1H6.9a.05.05 0 1 0 0-.1Zm-1.792 0h-.933v.46a.05.05 0 0 0 .1 0v-.36h.833a.05.05 0 0 0 0-.1ZM4.225 5.94a.05.05 0 0 0-.05.05v1.194a.05.05 0 1 0 .1 0V5.99a.05.05 0 0 0-.05-.05Zm0 1.791a.05.05 0 0 0-.05.05v1.194a.05.05 0 0 0 .1 0V7.78a.05.05 0 0 0-.05-.05Zm0 1.791a.05.05 0 0 0-.05.05v1.194a.05.05 0 1 0 .1 0V9.572a.05.05 0 0 0-.05-.05Zm0 1.791a.05.05 0 0 0-.05.05v1.194a.05.05 0 0 0 .1 0v-1.194a.05.05 0 0 0-.05-.05Zm0 1.791a.05.05 0 0 0-.05.05v1.194a.05.05 0 1 0 .1 0v-1.194a.05.05 0 0 0-.05-.05Zm0 1.791a.05.05 0 0 0-.05.05v1.194a.05.05 0 0 0 .1 0v-1.194a.05.05 0 0 0-.05-.05Zm0 1.791a.05.05 0 0 0-.05.05v1.194a.05.05 0 1 0 .1 0v-1.194a.05.05 0 0 0-.05-.05Zm0 1.791a.05.05 0 0 0-.05.05v1.194a.05.05 0 0 0 .1 0v-1.194a.05.05 0 0 0-.05-.05Zm0 1.791a.05.05 0 0 0-.05.05v1.194a.05.05 0 1 0 .1 0v-1.194a.05.05 0 0 0-.05-.05Zm0 1.791a.05.05 0 0 0-.05.05v1.194a.05.05 0 0 0 .1 0v-1.194a.05.05 0 0 0-.05-.05Zm0 1.791a.05.05 0 0 0-.05.05v1.194a.05.05 0 1 0 .1 0V23.9a.05.05 0 0 0-.05-.05Zm0 1.791a.05.05 0 0 0-.05.05v1.194a.05.05 0 0 0 .1 0V25.69a.05.05 0 0 0-.05-.05Zm0 1.791a.05.05 0 0 0-.05.05v1.194a.05.05 0 1 0 .1 0v-1.194a.05.05 0 0 0-.05-.05Zm0 1.791a.05.05 0 0 0-.05.05v1.194a.05.05 0 0 0 .1 0v-1.194a.05.05 0 0 0-.05-.05Zm0 1.791a.05.05 0 0 0-.05.05v1.194a.05.05 0 1 0 .1 0v-1.194a.05.05 0 0 0-.05-.05Zm0 1.791a.05.05 0 0 0-.05.05v1.194a.05.05 0 0 0 .1 0v-1.194a.05.05 0 0 0-.05-.05Zm0 1.791a.05.05 0 0 0-.05.05v1.194a.05.05 0 1 0 .1 0v-1.194a.05.05 0 0 0-.05-.05Zm0 1.791a.05.05 0 0 0-.05.05v1.194a.05.05 0 0 0 .1 0v-1.194a.05.05 0 0 0-.05-.05Zm0 1.791a.05.05 0 0 0-.05.05v1.194a.05.05 0 1 0 .1 0v-1.194a.05.05 0 0 0-.05-.05Zm0 1.791a.05.05 0 0 0-.05.05v1.194a.05.05 0 0 0 .1 0v-1.194a.05.05 0 0 0-.05-.05Zm0 1.791a.05.05 0 0 0-.05.05v1.194a.05.05 0 1 0 .1 0V41.81a.05.05 0 0 0-.05-.05Zm0 1.791a.05.05 0 0 0-.05.05v1.194a.05.05 0 0 0 .1 0v-1.194a.05.05 0 0 0-.05-.05Zm0 1.791a.05.05 0 0 0-.05.05v1.194a.05.05 0 1 0 .1 0v-1.194a.05.05 0 0 0-.05-.05Zm0 1.791a.05.05 0 0 0-.05.05v1.194a.05.05 0 0 0 .1 0v-1.194a.05.05 0 0 0-.05-.05Zm.003 1.792h-.001a.05.05 0 0 0-.05.05c.006.398.019.8.039 1.197a.05.05 0 0 0 .05.048h.002a.05.05 0 0 0 .047-.053 32.72 32.72 0 0 1-.038-1.193.05.05 0 0 0-.05-.049Zm.072 1.792h-.003a.05.05 0 0 0-.046.053c.027.397.061.798.103 1.193a.05.05 0 1 0 .099-.01v-.001a32.9 32.9 0 0 1-.074-.797v-.001l-.001-.017v-.002a6.98 6.98 0 0 1-.003-.036v-.002l-.002-.015v-.004l-.001-.014v-.004l-.002-.017v-.003l-.001-.013v-.007l-.001-.01v-.007a.625.625 0 0 1-.002-.021l-.001-.011v-.009l-.001-.007-.001-.01v-.006c-.002-.012-.002-.024-.003-.037V50.9l-.001-.012v-.003l-.01-.12a.05.05 0 0 0-.049-.047Zm.171 1.785h-.006a.05.05 0 0 0-.043.056 33 33 0 0 0 .168 1.186.05.05 0 1 0 .098-.016 33.378 33.378 0 0 1-.072-.469v-.001l-.008-.055V53.2l-.002-.012v-.003L4.6 53.15v-.006l-.002-.01v-.007l-.002-.009-.001-.008-.002-.014-.002-.01v-.007l-.002-.009a.289.289 0 0 1-.003-.02v-.004l-.003-.016v-.005l-.002-.012v-.005l-.003-.014v-.003l-.002-.018-.003-.017v-.003a32.18 32.18 0 0 1-.053-.407.05.05 0 0 0-.049-.043Zm.268 1.774a.05.05 0 0 0-.049.059c.07.39.149.786.233 1.174a.05.05 0 0 0 .097-.021c-.074-.34-.142-.681-.205-1.024l-.007-.036v-.004l-.003-.012v-.006l-.003-.011-.001-.006-.003-.015-.001-.01-.001-.005-.003-.012v-.002l-.005-.028a.05.05 0 0 0-.049-.041Zm.365 1.756a.05.05 0 0 0-.048.061c.09.387.19.777.296 1.16a.05.05 0 0 0 .096-.026 32.368 32.368 0 0 1-.135-.505l-.009-.036-.004-.016-.001-.004-.003-.012-.001-.006-.004-.015-.002-.006-.002-.01-.002-.008a.338.338 0 0 1-.002-.007l-.003-.01-.001-.005-.005-.02-.001-.003-.003-.012v-.003l-.004-.013c-.039-.155-.077-.31-.114-.466a.05.05 0 0 0-.048-.038Zm.46 1.733a.05.05 0 0 0-.048.064c.113.381.234.765.36 1.142a.05.05 0 0 0 .095-.031c-.1-.297-.195-.595-.286-.895l-.012-.04v-.001a.774.774 0 0 1-.02-.065l-.002-.008-.003-.007c0-.005-.002-.009-.003-.013l-.002-.006-.004-.013-.001-.005-.004-.012-.001-.004a14.246 14.246 0 0 1-.021-.07.05.05 0 0 0-.048-.036Zm.555 1.706a.05.05 0 0 0-.047.066c.133.375.275.752.422 1.121a.05.05 0 0 0 .092-.036 33.882 33.882 0 0 1-.122-.313l-.02-.052v-.001l-.007-.016v-.001l-.013-.034v-.002l-.006-.015-.001-.002-.013-.034v-.001a1.69 1.69 0 0 0-.006-.015l-.001-.003-.006-.015v-.001l-.007-.017v-.002l-.006-.014-.001-.004-.005-.013-.001-.003-.007-.016v-.003a1.291 1.291 0 0 0-.006-.013l-.001-.005-.005-.013-.001-.003a9.604 9.604 0 0 1-.006-.016l-.006-.016-.002-.004-.005-.013v-.004a8.523 8.523 0 0 1-.013-.032l-.001-.004-.005-.013-.001-.003-.006-.016-.007-.017v-.002l-.006-.014v-.004a1.602 1.602 0 0 0-.007-.015l-.006-.018a8.78 8.78 0 0 0-.006-.017l-.001-.002-.006-.016a31.395 31.395 0 0 1-.101-.281.05.05 0 0 0-.047-.033Zm.647 1.673a.05.05 0 0 0-.046.069c.153.366.316.735.482 1.096a.05.05 0 0 0 .09-.042l-.026-.058v-.001l-.023-.05-.001-.002a75.059 75.059 0 0 1-.023-.049l-.001-.004-.005-.01-.001-.003a8.168 8.168 0 0 1-.016-.034l-.002-.004-.004-.01-.002-.005a7.27 7.27 0 0 1-.015-.032L7.171 62l-.004-.01-.003-.005-.004-.009-.003-.007a1.327 1.327 0 0 0-.006-.014l-.004-.007c0-.003-.002-.005-.003-.008a.394.394 0 0 1-.003-.007l-.004-.008-.005-.011a2.464 2.464 0 0 1-.004-.009l-.004-.009a.319.319 0 0 0-.003-.007l-.004-.009-.003-.006a.93.93 0 0 1-.005-.012l-.003-.006a.956.956 0 0 1-.005-.012L7.1 61.84a.76.76 0 0 1-.005-.01l-.002-.006-.007-.014v-.001l-.007-.015-.002-.005a.935.935 0 0 1-.005-.012l-.002-.004a1.253 1.253 0 0 0-.007-.016l-.007-.015a.111.111 0 0 1-.001-.004l-.006-.012a.126.126 0 0 0-.002-.004c-.001-.005-.004-.01-.006-.014v-.002l-.008-.016v-.002l-.007-.014v-.003l-.007-.015a7.781 7.781 0 0 0-.016-.036l-.007-.016-.015-.034a31.826 31.826 0 0 1-.168-.395.05.05 0 0 0-.046-.03Zm.737 1.634a.05.05 0 0 0-.045.071c.174.358.356.718.542 1.069a.05.05 0 0 0 .088-.047c-.04-.074-.078-.149-.117-.223v-.001a18.644 18.644 0 0 1-.026-.05h-.001l-.006-.012v-.002l-.019-.035-.001-.002-.006-.011a.303.303 0 0 1-.001-.003l-.018-.034-.001-.003a.724.724 0 0 0-.006-.01l-.001-.003-.019-.036-.005-.012-.002-.002a32.31 32.31 0 0 1-.311-.625.05.05 0 0 0-.045-.029Zm.826 1.592a.05.05 0 0 0-.043.074c.192.348.394.697.599 1.037a.05.05 0 0 0 .086-.05 32.92 32.92 0 0 1-.23-.386l-.027-.048v-.001l-.01-.015v-.001l-.018-.031-.002-.003-.007-.012a.092.092 0 0 0-.002-.004l-.017-.03-.002-.003-.006-.011-.003-.005-.007-.012-.001-.002-.009-.015-.002-.004-.006-.01-.003-.006-.006-.01-.003-.004-.008-.015L8.6 64.8l-.006-.01-.003-.006-.006-.01a.154.154 0 0 1-.003-.004l-.008-.014a.116.116 0 0 0-.002-.004l-.006-.011-.003-.005-.006-.01-.002-.005-.009-.015v-.001l-.008-.013-.002-.005a1.019 1.019 0 0 1-.007-.01l-.002-.005a7.395 7.395 0 0 0-.017-.03l-.002-.003-.007-.012-.001-.003-.018-.031v-.001l-.009-.015v-.001l-.1-.18a.05.05 0 0 0-.044-.025Zm.912 1.545a.05.05 0 0 0-.042.076c.211.337.432.674.655 1.003a.05.05 0 0 0 .082-.056 8.085 8.085 0 0 1-.02-.03l-.002-.003-.008-.011-.002-.004-.01-.014v-.001l-.009-.013-.003-.004-.007-.01c0-.002-.002-.003-.003-.005a1.605 1.605 0 0 1-.008-.013l-.002-.002-.008-.012-.004-.006a.624.624 0 0 1-.005-.008l-.005-.006-.005-.009a1.212 1.212 0 0 0-.021-.031l-.005-.007-.005-.007-.004-.007-.008-.012-.005-.007a.276.276 0 0 1-.005-.007l-.005-.007-.003-.006-.006-.008c0-.001 0-.002-.002-.003l-.011-.017-.004-.005-.005-.008-.004-.006a.632.632 0 0 1-.005-.008l-.003-.004-.01-.016-.004-.005-.005-.009a.348.348 0 0 1-.004-.005l-.005-.008-.003-.004-.012-.018-.002-.003-.006-.01a.255.255 0 0 1-.003-.003l-.006-.01-.002-.004-.012-.017-.002-.003a2.278 2.278 0 0 1-.006-.01l-.003-.004-.006-.009-.003-.004a3.041 3.041 0 0 1-.011-.018l-.002-.003a.671.671 0 0 1-.006-.008c0-.002-.002-.004-.003-.005l-.005-.009a.794.794 0 0 0-.022-.033l-.004-.006-.005-.007-.004-.007-.005-.007a.317.317 0 0 1-.013-.02c0-.002-.003-.004-.004-.006l-.004-.007a.523.523 0 0 0-.01-.014l-.006-.01-.005-.008-.006-.009-.004-.006a.502.502 0 0 1-.005-.009l-.004-.005-.007-.011-.002-.003-.009-.014a.106.106 0 0 0-.002-.004l-.007-.01-.003-.005-.008-.013h-.001l-.01-.016v-.002l-.01-.013v-.002a1.887 1.887 0 0 0-.01-.015l-.02-.03v-.001a34.46 34.46 0 0 1-.14-.221.05.05 0 0 0-.042-.023Zm.995 1.492a.05.05 0 0 0-.04.078c.229.325.467.65.708.966a.05.05 0 0 0 .08-.06l-.09-.12h-.001l-.045-.059-.022-.03-.011-.014v-.001l-.023-.03-.01-.014-.002-.001-.021-.03h-.001l-.01-.013-.002-.003-.009-.012-.001-.002-.01-.014-.001-.001-.01-.013a.907.907 0 0 0-.01-.014l-.003-.003a5.504 5.504 0 0 1-.01-.014v-.001l-.01-.013-.003-.004a.984.984 0 0 0-.007-.01l-.004-.004-.008-.011a.06.06 0 0 0-.002-.003l-.01-.013c0-.002-.002-.003-.003-.005a.624.624 0 0 1-.006-.009l-.004-.005-.007-.009-.003-.005-.01-.012-.003-.005-.006-.009-.005-.005-.006-.009a.467.467 0 0 1-.004-.005l-.009-.013-.004-.005-.006-.008-.004-.006-.006-.008-.004-.006-.01-.012-.002-.004-.007-.01-.004-.005-.006-.009-.004-.005-.009-.012-.002-.003-.008-.012-.004-.004-.006-.01-.004-.005a1.143 1.143 0 0 0-.01-.013l-.01-.013c0-.002-.002-.003-.003-.005l-.007-.01-.003-.004-.007-.01a.303.303 0 0 0-.003-.004l-.01-.013-.002-.003-.008-.011-.003-.004-.008-.011-.001-.003-.01-.014-.001-.001-.01-.013-.002-.003-.009-.013v-.001l-.022-.03a42.17 42.17 0 0 1-.086-.121.05.05 0 0 0-.041-.022Zm1.075 1.436a.05.05 0 0 0-.04.08c.248.312.504.623.762.925a.05.05 0 0 0 .07.006.05.05 0 0 0 .005-.07 22.49 22.49 0 0 0-.036-.043l-.011-.013-.002-.002-.022-.026-.003-.004-.008-.01-.004-.004a.992.992 0 0 1-.008-.009l-.003-.004-.01-.012-.005-.005-.006-.008-.005-.006-.005-.006a.58.58 0 0 0-.006-.007l-.004-.004a2.336 2.336 0 0 0-.011-.014l-.005-.005-.006-.008-.004-.004-.007-.008-.003-.004-.012-.015-.004-.004-.007-.008-.003-.005-.007-.008-.003-.004-.013-.014a.258.258 0 0 0-.01-.012c0-.002-.003-.004-.004-.005a.725.725 0 0 1-.006-.008l-.004-.005-.01-.012-.006-.007-.005-.006-.005-.006-.006-.007-.005-.006-.006-.007-.01-.011c0-.002-.002-.004-.003-.005l-.007-.008a.224.224 0 0 1-.012-.014c0-.002-.002-.003-.003-.004l-.01-.013h-.001l-.01-.014a.986.986 0 0 0-.011-.014c-.002 0-.003-.001-.003-.002l-.023-.028h-.001l-.01-.014h-.001a32.33 32.33 0 0 1-.364-.45.05.05 0 0 0-.038-.02Zm1.152 1.374a.05.05 0 0 0-.037.083c.263.298.536.594.81.882a.05.05 0 1 0 .072-.069 32.686 32.686 0 0 1-.808-.879.05.05 0 0 0-.037-.017Zm1.226 1.31a.05.05 0 0 0-.036.085c.28.282.568.563.858.836a.05.05 0 1 0 .068-.073 20.29 20.29 0 0 1-.064-.06l-.001-.001-.008-.008a.25.25 0 0 1-.012-.01l-.005-.006-.007-.006-.01-.01-.005-.005-.008-.007-.004-.004a2.64 2.64 0 0 1-.01-.01l-.003-.002a9.734 9.734 0 0 1-.025-.024l-.002-.002-.012-.011-.001-.002-.026-.025-.013-.012-.002-.001a15.303 15.303 0 0 1-.039-.038l-.001-.001-.013-.012-.026-.026h-.001l-.012-.012-.002-.002-.026-.025a1.939 1.939 0 0 0-.012-.012l-.003-.002a1.132 1.132 0 0 0-.01-.01l-.002-.003a2.314 2.314 0 0 1-.013-.012l-.002-.002-.01-.01-.004-.003-.008-.008a.633.633 0 0 0-.005-.005l-.008-.008-.007-.006a1.018 1.018 0 0 0-.008-.008l-.006-.006-.006-.006-.006-.006-.005-.005a6.246 6.246 0 0 1-.025-.024l-.003-.004-.008-.008-.003-.002a31.902 31.902 0 0 1-.363-.361.05.05 0 0 0-.035-.015Zm1.295 1.24a.05.05 0 0 0-.033.087c.294.267.598.532.902.788a.05.05 0 0 0 .07-.006.05.05 0 0 0-.006-.07l-.071-.06-.002-.002-.01-.01a.493.493 0 0 0-.014-.01l-.004-.004a2.122 2.122 0 0 0-.012-.01l-.006-.005-.006-.005-.007-.006-.005-.005-.008-.006a6.634 6.634 0 0 1-.022-.019l-.01-.009-.002-.001-.24-.208-.043-.036-.002-.002a1.147 1.147 0 0 0-.012-.01l-.009-.009-.002-.001-.016-.014-.005-.005-.006-.006-.006-.005-.007-.005-.007-.007-.005-.004-.012-.01a.224.224 0 0 0-.004-.004l-.009-.008-.004-.004a.862.862 0 0 0-.01-.008l-.003-.003-.026-.024h-.002l-.012-.012h-.001a33.147 33.147 0 0 1-.278-.25.05.05 0 0 0-.033-.012Zm1.362 1.168a.05.05 0 0 0-.031.088l.144.116.787.632a.05.05 0 0 0 .07-.008.05.05 0 0 0-.008-.07l-.673-.54a.368.368 0 0 1-.006-.004l-.004-.004-.002-.001-.002-.002-.001-.001h-.001v-.001l-.002-.001-.001-.001-.002-.001-.002-.002-.007-.005v-.001l-.002-.002h-.001l-.002-.002h-.001l-.005-.004-.002-.002-.004-.003-.005-.004-.01-.009-.018-.014-.034-.027a31.094 31.094 0 0 1-.144-.116.05.05 0 0 0-.031-.011Zm1.397 1.12a.05.05 0 0 0-.031.09l.931.746a.05.05 0 0 0 .07-.008.05.05 0 0 0-.007-.07l-.232-.185-.006-.005-.694-.557a.05.05 0 0 0-.031-.01Zm1.397 1.121a.05.05 0 0 0-.031.089l.932.747a.05.05 0 0 0 .07-.008.05.05 0 0 0-.008-.07l-.065-.052-.002-.001-.001-.001-.002-.002-.001-.001h-.001v-.001l-.002-.001-.005-.005-.002-.001h-.001l-.001-.002h-.002l-.002-.002v-.001l-.002-.001-.004-.003-.84-.673a.05.05 0 0 0-.03-.01Zm1.397 1.12a.05.05 0 0 0-.031.089l.932.747a.05.05 0 0 0 .07-.008.05.05 0 0 0-.008-.07l-.931-.747a.05.05 0 0 0-.032-.01Zm1.398 1.12a.05.05 0 0 0-.031.09l.931.746a.05.05 0 0 0 .063-.077l-.933-.748a.05.05 0 0 0-.03-.01Zm1.397 1.121a.05.05 0 0 0-.031.089l.931.747a.05.05 0 0 0 .063-.078l-.932-.747a.05.05 0 0 0-.031-.01Zm1.397 1.12a.05.05 0 0 0-.03.09l.93.746a.05.05 0 0 0 .07-.007.05.05 0 0 0-.007-.07l-.932-.747a.05.05 0 0 0-.03-.011Zm1.397 1.121a.05.05 0 0 0-.03.089l.93.747a.05.05 0 0 0 .07-.008.05.05 0 0 0-.006-.07l-.933-.747a.05.05 0 0 0-.03-.01Zm1.398 1.12a.05.05 0 0 0-.031.089l.931.747a.05.05 0 0 0 .07-.008.05.05 0 0 0-.008-.07l-.931-.746a.05.05 0 0 0-.031-.011Zm1.397 1.121a.05.05 0 0 0-.031.089l.931.747a.05.05 0 1 0 .063-.078l-.932-.747a.05.05 0 0 0-.03-.011Zm1.397 1.12a.05.05 0 0 0-.03.089l.93.747a.05.05 0 0 0 .07-.008.05.05 0 0 0-.006-.07l-.933-.747a.05.05 0 0 0-.03-.01Zm1.398 1.12a.05.05 0 0 0-.032.09l.932.746a.05.05 0 0 0 .07-.007.05.05 0 0 0-.008-.07l-.931-.747a.05.05 0 0 0-.031-.011Zm1.397 1.121a.05.05 0 0 0-.031.089l.931.747a.05.05 0 0 0 .062-.078l-.931-.747a.05.05 0 0 0-.031-.01Zm1.397 1.12a.05.05 0 0 0-.031.09l.931.746a.05.05 0 0 0 .063-.077l-.932-.748a.05.05 0 0 0-.03-.01Zm1.397 1.121a.05.05 0 0 0-.03.089l.93.747a.05.05 0 1 0 .062-.078c.001 0 0 0 0 0v-.001l-.002-.001v-.001h-.001l-.001-.001-.002-.001v-.001h-.001l-.002-.002-.002-.002h-.001l-.002-.002-.002-.002h-.001l-.002-.002-.005-.004-.001-.001-.906-.726a.05.05 0 0 0-.03-.01Zm1.398 1.12a.05.05 0 0 0-.032.09l.932.746a.05.05 0 1 0 .062-.078l-.931-.747a.05.05 0 0 0-.031-.01Zm1.397 1.12a.05.05 0 0 0-.031.089l.931.747a.05.05 0 0 0 .07-.007.05.05 0 0 0-.007-.07l-.933-.748a.05.05 0 0 0-.03-.01Zm1.397 1.121a.05.05 0 0 0-.031.089l.931.747a.05.05 0 1 0 .063-.078l-.003-.002-.008-.006-.012-.01-.008-.006-.005-.004-.002-.002-.004-.003-.001-.001-.003-.002-.001-.001-.005-.004-.002-.001v-.001h-.001l-.001-.002-.002-.001h-.001v-.001l-.004-.003-.003-.003c-.002 0-.002-.001-.003-.002l-.863-.692a.05.05 0 0 0-.03-.01Zm1.397 1.12a.05.05 0 0 0-.03.09l.775.622.062.05.063-.05.155-.125a.05.05 0 0 0-.062-.078l-.002.002-.002.001-.001.001-.001.001-.002.002-.006.005-.005.003-.003.003-.002.001-.003.003-.003.002-.006.005-.013.01-.014.012-.007.006-.007.005h-.001l-.002.002-.001.001-.011.01-.014.01-.025.02-.018.015-.007.005-.019-.015-.006-.005v-.001l-.004-.003-.002-.001-.001-.001-.002-.002h-.001v-.001h-.001l-.002-.001v-.001l-.001-.001-.007-.006h-.001l-.729-.584a.05.05 0 0 0-.03-.011Zm2.391-.622a.05.05 0 0 0-.03.01l-.434.348-.005.004-.493.396a.05.05 0 0 0 .062.077l.931-.747a.05.05 0 0 0-.03-.088Zm1.398-1.12a.05.05 0 0 0-.032.01l-.931.747a.05.05 0 0 0 .062.078l.932-.747a.05.05 0 0 0-.031-.089Zm1.397-1.121a.05.05 0 0 0-.031.01l-.23.185-.005.004-.003.003h-.001l-.002.002-.69.554a.05.05 0 1 0 .061.077l.932-.747a.05.05 0 0 0-.031-.088Zm1.397-1.12a.05.05 0 0 0-.031.01l-.382.306-.55.442a.05.05 0 0 0 .063.077l.931-.747a.05.05 0 0 0-.031-.089Zm1.397-1.121a.05.05 0 0 0-.03.01l-.882.708-.005.004-.002.001-.001.001-.042.034a.05.05 0 1 0 .062.077l.931-.747a.05.05 0 0 0-.03-.088Zm1.397-1.12a.05.05 0 0 0-.03.01l-.933.748a.05.05 0 0 0 .063.077l.932-.747a.05.05 0 0 0-.032-.089Zm1.398-1.121a.05.05 0 0 0-.031.01l-.932.748a.05.05 0 1 0 .062.077l.932-.746a.05.05 0 0 0-.031-.09Zm1.397-1.12a.05.05 0 0 0-.031.01l-.932.748a.05.05 0 0 0 .063.077l.931-.747a.05.05 0 0 0-.031-.089Zm1.397-1.121a.05.05 0 0 0-.031.01l-.556.447h-.001l-.001.002-.374.3a.05.05 0 0 0 .063.077l.931-.747a.05.05 0 0 0-.03-.089Zm1.397-1.12a.05.05 0 0 0-.03.01l-.932.747a.05.05 0 1 0 .062.078l.931-.747a.05.05 0 0 0-.03-.088Zm1.398-1.12a.05.05 0 0 0-.032.01l-.931.747a.05.05 0 0 0 .062.078l.932-.747a.05.05 0 0 0-.031-.089Zm1.397-1.121a.05.05 0 0 0-.03.01l-.478.382v.001l-.005.004h-.001l-.002.002-.01.008-.437.35a.05.05 0 1 0 .062.078l.932-.747a.05.05 0 0 0-.031-.088Zm1.397-1.12a.05.05 0 0 0-.031.01l-.932.747a.05.05 0 0 0 .063.078l.931-.747a.05.05 0 0 0-.031-.089Zm1.397-1.121a.05.05 0 0 0-.03.01l-.275.22-.009.007-.648.52a.05.05 0 0 0 .062.078l.931-.747a.05.05 0 0 0-.03-.088Zm1.397-1.12a.05.05 0 0 0-.03.01l-.333.267h-.001a.386.386 0 0 1-.005.005l-.594.476a.05.05 0 0 0 .063.077l.932-.747a.05.05 0 0 0-.032-.089Zm1.398-1.121a.05.05 0 0 0-.031.01l-.866.694v.001l-.002.001a4.65 4.65 0 0 0-.017.014l-.001.001-.015.012-.002.002h-.002v.001l-.002.002h-.001l-.002.002-.002.002-.002.001-.001.001h-.001l-.003.003-.001.001h-.001v.001h-.001v.001h-.002v.001l-.001.001-.001.001h-.001v.001h-.002v.001l-.001.001h-.001v.001h-.001a.05.05 0 0 0 .062.078l.932-.747a.05.05 0 0 0-.031-.088Zm1.397-1.12a.05.05 0 0 0-.03.01l-.933.747a.05.05 0 0 0 .063.078l.931-.747a.05.05 0 0 0-.031-.089Zm1.397-1.121a.05.05 0 0 0-.031.01l-.932.748a.05.05 0 0 0 .063.077l.931-.747a.05.05 0 0 0-.031-.088Zm1.385-1.138a.05.05 0 0 0-.032.012l-.06.051-.001.001-.01.008-.003.004a32.67 32.67 0 0 1-.835.692l-.01.007a.05.05 0 0 0 .063.078l.01-.008c.306-.246.613-.501.91-.758a.05.05 0 0 0-.032-.087Zm1.326-1.209a.05.05 0 0 0-.035.014 32.23 32.23 0 0 1-.324.308l-.013.013-.027.025-.002.001-.011.01-.003.003-.025.024-.002.002-.011.01-.003.003a1.61 1.61 0 0 0-.01.01c-.001 0-.002 0-.003.002l-.013.011v.002l-.012.01a.163.163 0 0 0-.004.003l-.01.01-.002.002-.013.011a4.47 4.47 0 0 1-.016.015l-.01.01-.003.002-.01.01-.003.002-.012.012-.003.002-.01.01-.003.002-.01.01-.003.002-.026.024-.003.002a3.075 3.075 0 0 0-.01.01l-.003.002-.026.024v.001a4.848 4.848 0 0 0-.015.013l-.012.011-.028.026-.014.012-.167.15a.05.05 0 0 0 .067.075c.296-.265.591-.54.877-.815a.05.05 0 0 0-.034-.086Zm1.257-1.28a.05.05 0 0 0-.037.017l-.12.128-.001.001-.009.01-.016.017-.004.005-.006.006-.006.006-.005.006-.01.01-.001.001-.013.013-.001.002-.01.011-.003.002a32.84 32.84 0 0 1-.479.495l-.026.027-.012.012-.002.002-.012.012-.014.014a2.146 2.146 0 0 0-.012.012l-.002.002a1.494 1.494 0 0 1-.01.01l-.003.003-.024.024a.194.194 0 0 1-.004.004l-.008.009a.214.214 0 0 0-.004.003l-.01.01-.002.002a.05.05 0 0 0 .07.07c.282-.28.561-.57.832-.861a.05.05 0 0 0-.036-.084Zm1.185-1.345a.05.05 0 0 0-.038.017c-.103.124-.208.248-.313.37l-.001.002a3.748 3.748 0 0 1-.011.013l-.024.027-.002.003-.01.01c0 .002-.001.002-.002.003l-.022.026-.004.004-.007.01c-.002 0-.003.002-.004.004l-.008.009-.004.004a1.84 1.84 0 0 1-.01.012l-.004.004-.007.008-.005.006-.006.007-.005.006-.01.011-.005.006-.005.006-.006.007-.005.006-.006.007-.005.005-.011.013-.004.005a.675.675 0 0 1-.018.02l-.003.003-.024.028a.14.14 0 0 1-.01.012l-.003.002-.025.03-.002.001a1.17 1.17 0 0 1-.009.01v.001l-.038.042-.143.161a.05.05 0 1 0 .074.066c.265-.295.529-.6.783-.906a.05.05 0 0 0-.038-.081Zm1.11-1.41a.05.05 0 0 0-.04.02l-.197.262-.002.002-.007.01-.003.003a2.035 2.035 0 0 0-.006.009l-.004.005-.01.013-.005.007-.005.006-.006.008-.003.005-.021.027-.002.003-.01.012v.001c-.148.192-.298.384-.45.573a.05.05 0 0 0 .078.062c.249-.31.495-.629.732-.948a.05.05 0 0 0-.04-.08Zm1.03-1.467a.05.05 0 0 0-.041.022c-.22.332-.446.66-.678.984a.05.05 0 1 0 .081.057c.232-.323.46-.654.68-.986a.05.05 0 0 0-.042-.077Zm.95-1.522a.05.05 0 0 0-.044.025 32.7 32.7 0 0 1-.622 1.018.05.05 0 1 0 .084.054c.213-.335.423-.68.624-1.022a.05.05 0 0 0-.043-.075Zm.863-1.572a.05.05 0 0 0-.044.027c-.182.354-.37.705-.566 1.052a.05.05 0 0 0 .087.049c.195-.347.386-.702.567-1.055a.05.05 0 0 0-.044-.073Zm.777-1.616a.05.05 0 0 0-.046.03l-.006.016-.001.001-.015.033v.001l-.007.016-.001.001-.015.033-.007.017-.001.001-.023.05-.023.051-.008.017-.015.034v.001l-.008.016-.016.034a1.941 1.941 0 0 0-.008.017l-.023.05v.001l-.023.05v.001l-.024.05-.023.05-.002.002-.006.015-.001.001-.015.033-.001.002-.007.014-.001.002-.015.032-.001.003-.007.013-.001.004-.007.014v.001l-.008.016-.002.003-.006.012a1.168 1.168 0 0 0-.008.017l-.001.003-.007.015a.174.174 0 0 0-.002.005l-.005.01-.003.006-.005.01c0 .002-.002.004-.003.005l-.006.015-.003.006-.004.008-.004.008-.004.007-.003.008-.004.008-.007.013-.002.006-.005.01-.002.005-.005.01-.012.023v.002a.754.754 0 0 1-.006.011l-.001.003-.078.158a.05.05 0 1 0 .09.044c.175-.356.346-.721.509-1.084a.05.05 0 0 0-.046-.07Zm.688-1.657a.05.05 0 0 0-.047.032 89.897 89.897 0 0 1-.03.077v.004l-.005.01-.001.004-.008.02-.002.004-.003.01a.229.229 0 0 0-.002.005l-.004.01-.003.006c0 .004-.002.007-.003.01l-.005.012-.003.008-.003.008-.003.007-.004.01-.002.006-.006.014-.002.006-.004.01-.002.006-.005.01c0 .002 0 .004-.002.006l-.006.015a.438.438 0 0 1-.006.016l-.002.005-.005.012-.001.004-.013.032-.001.003-.006.014v.002a5.399 5.399 0 0 1-.014.033v.002l-.006.015-.001.002-.014.034-.006.017-.021.052c-.08.197-.16.392-.243.587a.05.05 0 0 0 .091.038c.156-.365.307-.739.45-1.11a.05.05 0 0 0-.047-.068Zm.595-1.691a.05.05 0 0 0-.047.034l-.026.082-.005.014-.012.038-.001.003-.004.012-.001.003a.712.712 0 0 1-.004.011l-.008.024-.001.005-.003.01-.002.005-.003.01-.002.005-.006.017-.002.007-.003.008-.002.007-.003.009a.321.321 0 0 0-.002.007l-.005.014c0 .003-.002.006-.003.008a.415.415 0 0 1-.002.008l-.003.008a.507.507 0 0 1-.005.017l-.003.007-.005.014-.002.007-.003.009-.002.007-.003.01a.294.294 0 0 0-.003.006l-.005.015-.002.006a.503.503 0 0 1-.003.01l-.002.007-.003.008-.003.008a7.915 7.915 0 0 0-.007.02l-.003.01-.002.007a.477.477 0 0 0-.003.009l-.003.007-.003.01-.003.01-.004.01-.002.007-.003.009-.003.007a.621.621 0 0 0-.003.01l-.004.01c0 .004-.002.007-.003.01l-.003.008a.443.443 0 0 0-.003.008l-.002.008a.497.497 0 0 1-.003.009l-.003.006-.004.014-.003.008-.003.008a.426.426 0 0 0-.003.008l-.002.008-.003.008-.005.014a.356.356 0 0 1-.01.03l-.003.009-.004.009-.004.013-.003.007-.003.009-.002.007-.003.008-.003.01-.004.012-.003.008a.443.443 0 0 0-.003.008l-.003.007a.519.519 0 0 1-.003.008l-.002.008-.005.014-.003.008a.418.418 0 0 1-.003.008c0 .003-.002.005-.003.007l-.002.009-.003.008-.004.01a.848.848 0 0 0-.004.011c0 .003-.002.005-.003.008l-.002.008-.003.007a.41.41 0 0 1-.003.009l-.003.007-.005.014a.271.271 0 0 0-.002.007l-.003.009-.003.007-.003.01-.003.006-.005.015-.002.005a.653.653 0 0 0-.004.01l-.002.007a.657.657 0 0 1-.003.01l-.003.006-.005.015-.001.003-.005.013-.002.005c0 .004-.003.008-.004.012l-.001.004-.006.016a.05.05 0 0 0 .093.034c.136-.374.266-.755.388-1.133a.05.05 0 0 0-.048-.065Zm.503-1.722a.05.05 0 0 0-.048.037 32.65 32.65 0 0 1-.324 1.15.05.05 0 0 0 .095.028c.115-.38.224-.768.325-1.153a.05.05 0 0 0-.048-.062Zm.407-1.747a.05.05 0 0 0-.049.04 32.81 32.81 0 0 1-.048.232l-.003.013v.002l-.008.039v.002l-.003.011-.001.006-.003.01v.005a2.232 2.232 0 0 1-.005.018v.006c-.002.003-.002.006-.003.01l-.001.007-.002.009a.298.298 0 0 0-.007.03l-.002.007-.002.01-.001.007a.528.528 0 0 0-.004.016c0 .006-.002.01-.003.016l-.001.005-.003.011-.001.007-.003.01v.006l-.004.016v.002l-.004.015-.001.004-.003.013v.005a6.644 6.644 0 0 1-.008.033l-.001.003-.003.014-.001.004-.004.017-.008.035v.002l-.012.053c-.035.152-.07.304-.107.455a.05.05 0 0 0 .097.023c.093-.386.181-.78.26-1.169a.05.05 0 0 0-.048-.06Zm.311-1.766a.05.05 0 0 0-.049.042c-.04.265-.082.53-.127.793l-.003.017v.003c-.002.005-.003.01-.003.016v.001l-.004.017v.005l-.002.011-.002.007a.424.424 0 0 1-.001.009l-.002.008v.006a2.508 2.508 0 0 0-.005.024l-.002.012v.002l-.045.247a.05.05 0 1 0 .097.018c.073-.39.14-.788.197-1.18a.05.05 0 0 0-.049-.058Zm.214-1.78a.05.05 0 0 0-.05.044l-.023.242-.001.017v.003l-.004.034v.006l-.002.01v.007l-.002.01v.009l-.002.013v.01l-.001.006-.001.01-.001.006-.004.036v.004l-.002.012v.004l-.001.012-.005.04v.004a.87.87 0 0 0-.001.012v.002l-.005.04v.003l-.001.012v.003l-.005.04v.002l-.002.011v.005l-.001.01v.005l-.003.02v.006l-.002.01v.007l-.002.008v.008a.37.37 0 0 1-.002.009l-.001.015-.001.007-.001.01-.001.007-.001.01-.001.006-.002.017v.001l-.002.016v.004l-.002.014v.003l-.046.37a.05.05 0 0 0 .099.012c.05-.394.095-.795.132-1.19a.05.05 0 0 0-.05-.055Zm.116-1.79a.05.05 0 0 0-.05.047c-.01.299-.026.597-.045.895l-.004.055v.004l-.001.012v.006l-.001.012v.005a1.199 1.199 0 0 0-.002.025v.006l-.001.011a.05.05 0 0 0 .106-1.078h-.002Zm.023-1.793a.05.05 0 0 0-.05.05V48.673c0 .166-.003.332-.006.498a.05.05 0 0 0 .1.002c.004-.21.006-.42.006-.63v-.566a.05.05 0 0 0-.05-.05Zm0-1.791a.05.05 0 0 0-.05.05v1.194a.05.05 0 0 0 .1 0v-1.194a.05.05 0 0 0-.05-.05Zm0-1.791a.05.05 0 0 0-.05.05v1.194a.05.05 0 1 0 .1 0v-1.194a.05.05 0 0 0-.05-.05Zm0-1.791a.05.05 0 0 0-.05.05v1.194a.05.05 0 0 0 .1 0v-1.194a.05.05 0 0 0-.05-.05Zm0-1.791a.05.05 0 0 0-.05.05v1.194a.05.05 0 1 0 .1 0v-1.194a.05.05 0 0 0-.05-.05Zm0-1.791a.05.05 0 0 0-.05.05v1.194a.05.05 0 0 0 .1 0v-1.194a.05.05 0 0 0-.05-.05Zm0-1.791a.05.05 0 0 0-.05.05v1.194a.05.05 0 1 0 .1 0V37.23a.05.05 0 0 0-.05-.05Zm0-1.791a.05.05 0 0 0-.05.05v1.194a.05.05 0 0 0 .1 0V35.44a.05.05 0 0 0-.05-.05Zm0-1.791a.05.05 0 0 0-.05.05v1.194a.05.05 0 1 0 .1 0v-1.194a.05.05 0 0 0-.05-.05Zm0-1.791a.05.05 0 0 0-.05.05v1.194a.05.05 0 0 0 .1 0v-1.194a.05.05 0 0 0-.05-.05Zm0-1.791a.05.05 0 0 0-.05.05v1.194a.05.05 0 1 0 .1 0v-1.194a.05.05 0 0 0-.05-.05Zm0-1.791a.05.05 0 0 0-.05.05v1.194a.05.05 0 0 0 .1 0v-1.194a.05.05 0 0 0-.05-.05Zm0-1.791a.05.05 0 0 0-.05.05v1.194a.05.05 0 1 0 .1 0v-1.194a.05.05 0 0 0-.05-.05Zm0-1.791a.05.05 0 0 0-.05.05v1.194a.05.05 0 0 0 .1 0v-1.194a.05.05 0 0 0-.05-.05Zm0-1.791a.05.05 0 0 0-.05.05v1.194a.05.05 0 1 0 .1 0v-1.194a.05.05 0 0 0-.05-.05Zm0-1.791a.05.05 0 0 0-.05.05v1.194a.05.05 0 0 0 .1 0v-1.194a.05.05 0 0 0-.05-.05Zm0-1.791a.05.05 0 0 0-.05.05v1.194a.05.05 0 1 0 .1 0V19.32a.05.05 0 0 0-.05-.05Zm0-1.791a.05.05 0 0 0-.05.05v1.194a.05.05 0 0 0 .1 0V17.53a.05.05 0 0 0-.05-.05Zm0-1.791a.05.05 0 0 0-.05.05v1.194a.05.05 0 1 0 .1 0v-1.194a.05.05 0 0 0-.05-.05Zm0-1.791a.05.05 0 0 0-.05.05v1.194a.05.05 0 0 0 .1 0v-1.194a.05.05 0 0 0-.05-.05Zm0-1.791a.05.05 0 0 0-.05.05v1.194a.05.05 0 1 0 .1 0v-1.194a.05.05 0 0 0-.05-.05Zm0-1.791a.05.05 0 0 0-.05.05v1.194a.05.05 0 0 0 .1 0v-1.194a.05.05 0 0 0-.05-.05Zm0-1.791a.05.05 0 0 0-.05.05v1.194a.05.05 0 1 0 .1 0V8.575a.05.05 0 0 0-.05-.05Zm0-1.791a.05.05 0 0 0-.05.05v1.194a.05.05 0 0 0 .1 0V6.784a.05.05 0 0 0-.05-.05Z" fill="#f2bc79" stroke-width="0"/></svg>