<svg id="uuid-379c025b-d59b-4362-a270-84283bb5f99f" xmlns="http://www.w3.org/2000/svg" viewBox="0 0 25.14 100"><defs><linearGradient id="uuid-371614c4-ec85-4702-9419-92816cd041f9" x1="-34.4" y1="-38.64" x2="-34.4" y2="-62.98" gradientTransform="rotate(90 -61.32 23.08)" gradientUnits="userSpaceOnUse"><stop offset="0" stop-color="#f2bc79"/><stop offset=".07" stop-color="#f1c28a"/><stop offset=".26" stop-color="#eed2b1"/><stop offset=".41" stop-color="#eddcca"/><stop offset=".51" stop-color="#ede0d3"/><stop offset=".6" stop-color="#eddcca"/><stop offset=".74" stop-color="#eed2b1"/><stop offset=".93" stop-color="#f1c28a"/><stop offset="1" stop-color="#f2bc79"/></linearGradient><clipPath id="uuid-d6e03cc9-6840-45c7-9f0a-aeec1d6a6d6f"><path fill="none" stroke-width="0" d="M0 0h69.8v47.83H0z"/></clipPath><pattern id="uuid-a1bd55ad-676d-45dd-a832-cada09add45b" x="0" y="0" width="69.8" height="47.83" patternTransform="matrix(0 .72 -.72 0 -13958.91 -2264.08)" patternUnits="userSpaceOnUse"><path fill="none" stroke-width="0" d="M0 0h69.8v47.83H0z"/><g clip-path="url(#uuid-d6e03cc9-6840-45c7-9f0a-aeec1d6a6d6f)" fill="#ebebeb" stroke-width="0"><ellipse cx="-1.98" cy="47.45" rx="2.53" ry=".33"/><ellipse cx="-3.56" cy="48.67" rx=".33" ry=".91" transform="rotate(-67.3 -3.565 48.671)"/><ellipse cx="-1.6" cy="48.68" rx=".91" ry=".16" transform="rotate(-26.24 -1.6 48.685)"/><ellipse cx="-4.67" cy="49.71" rx="2.53" ry=".33"/><ellipse cx="-5.36" cy="48.36" rx=".33" ry=".91"/><ellipse cx="-6.37" cy="48.56" rx=".16" ry=".91" transform="rotate(-26.24 -6.367 48.569)"/><ellipse cx="-6.87" cy="47.69" rx=".33" ry="2.53" transform="rotate(-48.8 -6.87 47.694)"/><ellipse cx="-.76" cy="50.03" rx=".33" ry="2.53" transform="rotate(-48.8 -.763 50.025)"/><ellipse cx="-3.15" cy="50.58" rx=".16" ry=".91" transform="rotate(-84.62 -3.144 50.583)"/><ellipse cx="-4.62" cy="51.1" rx=".91" ry=".33" transform="rotate(-43.38 -4.616 51.103)"/><ellipse cx="-6.7" cy="50.73" rx=".33" ry=".91" transform="rotate(-72.34 -6.694 50.727)"/><ellipse cx="-6.1" cy="51.65" rx=".91" ry=".16" transform="rotate(-4.11 -6.035 51.547)"/><ellipse cx="-8.12" cy="50.51" rx=".91" ry=".16" transform="rotate(-87.7 -8.118 50.508)"/><ellipse cx="-5.44" cy="52.63" rx="2.53" ry=".33"/><ellipse cx="6.81" cy="47.45" rx="2.53" ry=".33"/><ellipse cx="5.23" cy="48.67" rx=".33" ry=".91" transform="rotate(-67.3 5.227 48.67)"/><ellipse cx="7.19" cy="48.68" rx=".91" ry=".16" transform="rotate(-26.24 7.2 48.678)"/><ellipse cx="4.12" cy="49.71" rx="2.53" ry=".33"/><ellipse cx="3.42" cy="48.36" rx=".33" ry=".91"/><ellipse cx="2.42" cy="48.56" rx=".16" ry=".91" transform="rotate(-26.24 2.412 48.557)"/><ellipse cx="1.92" cy="47.69" rx=".33" ry="2.53" transform="rotate(-48.8 1.917 47.692)"/><ellipse cx="8.03" cy="50.03" rx=".33" ry="2.53" transform="rotate(-48.8 8.034 50.028)"/><ellipse cx="5.64" cy="50.58" rx=".16" ry=".91" transform="rotate(-84.62 5.647 50.58)"/><ellipse cx="4.17" cy="51.1" rx=".91" ry=".33" transform="rotate(-43.38 4.164 51.1)"/><ellipse cx="2.09" cy="50.73" rx=".33" ry=".91" transform="rotate(-72.34 2.09 50.727)"/><ellipse cx="2.68" cy="51.65" rx=".91" ry=".16" transform="rotate(-4.11 2.614 51.579)"/><ellipse cx=".67" cy="50.51" rx=".91" ry=".16" transform="rotate(-87.7 .667 50.51)"/><ellipse cx="3.35" cy="52.63" rx="2.53" ry=".33"/><ellipse cx="15.6" cy="47.45" rx="2.53" ry=".33"/><ellipse cx="14.01" cy="48.67" rx=".33" ry=".91" transform="rotate(-67.3 14.014 48.676)"/><ellipse cx="15.98" cy="48.68" rx=".91" ry=".16" transform="rotate(-26.24 15.974 48.687)"/><ellipse cx="12.91" cy="49.71" rx="2.53" ry=".33"/><ellipse cx="12.21" cy="48.36" rx=".33" ry=".91"/><ellipse cx="11.21" cy="48.56" rx=".16" ry=".91" transform="rotate(-26.24 11.206 48.571)"/><ellipse cx="10.71" cy="47.69" rx=".33" ry="2.53" transform="rotate(-48.8 10.703 47.69)"/><ellipse cx="16.82" cy="50.03" rx=".33" ry="2.53" transform="rotate(-48.8 16.82 50.027)"/><ellipse cx="14.43" cy="50.58" rx=".16" ry=".91" transform="rotate(-84.62 14.433 50.583)"/><ellipse cx="12.95" cy="51.1" rx=".91" ry=".33" transform="rotate(-43.38 12.957 51.104)"/><ellipse cx="10.88" cy="50.73" rx=".33" ry=".91" transform="rotate(-72.34 10.88 50.72)"/><ellipse cx="11.47" cy="51.65" rx=".91" ry=".16" transform="rotate(-4.11 11.403 51.615)"/><ellipse cx="9.45" cy="50.51" rx=".91" ry=".16" transform="rotate(-87.7 9.457 50.508)"/><ellipse cx="12.14" cy="52.63" rx="2.53" ry=".33"/><ellipse cx="24.38" cy="47.45" rx="2.53" ry=".33"/><ellipse cx="22.8" cy="48.67" rx=".33" ry=".91" transform="rotate(-67.3 22.805 48.675)"/><ellipse cx="24.77" cy="48.68" rx=".91" ry=".16" transform="rotate(-26.24 24.774 48.68)"/><ellipse cx="21.7" cy="49.71" rx="2.53" ry=".33"/><ellipse cx="21" cy="48.36" rx=".33" ry=".91"/><ellipse cx="19.99" cy="48.56" rx=".16" ry=".91" transform="rotate(-26.24 20.006 48.564)"/><ellipse cx="19.49" cy="47.69" rx=".33" ry="2.53" transform="rotate(-48.8 19.488 47.689)"/><ellipse cx="25.61" cy="50.03" rx=".33" ry="2.53" transform="rotate(-48.8 25.606 50.025)"/><ellipse cx="23.22" cy="50.58" rx=".16" ry=".91" transform="rotate(-84.62 23.22 50.585)"/><ellipse cx="21.74" cy="51.1" rx=".91" ry=".33" transform="rotate(-43.38 21.737 51.102)"/><ellipse cx="19.67" cy="50.73" rx=".33" ry=".91" transform="rotate(-72.34 19.671 50.724)"/><ellipse cx="20.26" cy="51.65" rx=".91" ry=".16" transform="rotate(-4.11 20.192 51.651)"/><ellipse cx="18.24" cy="50.51" rx=".91" ry=".16" transform="rotate(-87.7 18.247 50.505)"/><ellipse cx="20.93" cy="52.63" rx="2.53" ry=".33"/><ellipse cx="33.17" cy="47.45" rx="2.53" ry=".33"/><ellipse cx="31.59" cy="48.67" rx=".33" ry=".91" transform="rotate(-67.3 31.59 48.669)"/><ellipse cx="33.56" cy="48.68" rx=".91" ry=".16" transform="rotate(-26.24 33.553 48.668)"/><ellipse cx="30.49" cy="49.71" rx="2.53" ry=".33"/><ellipse cx="29.79" cy="48.36" rx=".33" ry=".91"/><ellipse cx="28.78" cy="48.56" rx=".16" ry=".91" transform="rotate(-26.24 28.78 48.573)"/><ellipse cx="28.28" cy="47.69" rx=".33" ry="2.53" transform="rotate(-48.8 28.274 47.687)"/><ellipse cx="34.4" cy="50.03" rx=".33" ry="2.53" transform="rotate(-48.8 34.391 50.023)"/><ellipse cx="32.01" cy="50.58" rx=".16" ry=".91" transform="rotate(-84.62 32.011 50.583)"/><ellipse cx="30.53" cy="51.1" rx=".91" ry=".33" transform="rotate(-43.38 30.53 51.105)"/><ellipse cx="28.46" cy="50.73" rx=".33" ry=".91" transform="rotate(-72.34 28.455 50.723)"/><ellipse cx="29.05" cy="51.65" rx=".91" ry=".16" transform="rotate(-4.11 28.985 51.548)"/><ellipse cx="27.03" cy="50.51" rx=".91" ry=".16" transform="rotate(-87.7 27.031 50.507)"/><ellipse cx="29.71" cy="52.63" rx="2.53" ry=".33"/><ellipse cx="41.96" cy="47.45" rx="2.53" ry=".33"/><ellipse cx="40.38" cy="48.67" rx=".33" ry=".91" transform="rotate(-67.3 40.376 48.675)"/><ellipse cx="42.34" cy="48.68" rx=".91" ry=".16" transform="rotate(-26.24 42.348 48.682)"/><ellipse cx="39.28" cy="49.71" rx="2.53" ry=".33"/><ellipse cx="38.58" cy="48.36" rx=".33" ry=".91"/><ellipse cx="37.57" cy="48.56" rx=".16" ry=".91" transform="rotate(-26.24 37.58 48.566)"/><ellipse cx="37.07" cy="47.69" rx=".33" ry="2.53" transform="rotate(-48.8 37.071 47.69)"/><ellipse cx="43.18" cy="50.03" rx=".33" ry="2.53" transform="rotate(-48.8 43.172 50.032)"/><ellipse cx="40.8" cy="50.58" rx=".16" ry=".91" transform="rotate(-84.62 40.797 50.585)"/><ellipse cx="39.32" cy="51.1" rx=".91" ry=".33" transform="rotate(-43.38 39.31 51.103)"/><ellipse cx="37.25" cy="50.73" rx=".33" ry=".91" transform="rotate(-72.34 37.247 50.728)"/><ellipse cx="37.84" cy="51.65" rx=".91" ry=".16" transform="rotate(-4.11 37.774 51.585)"/><ellipse cx="35.82" cy="50.51" rx=".91" ry=".16" transform="rotate(-87.7 35.821 50.504)"/><ellipse cx="38.5" cy="52.63" rx="2.53" ry=".33"/><ellipse cx="50.75" cy="47.45" rx="2.53" ry=".33"/><ellipse cx="49.17" cy="48.67" rx=".33" ry=".91" transform="rotate(-67.3 49.168 48.674)"/><ellipse cx="51.13" cy="48.68" rx=".91" ry=".16" transform="rotate(-26.24 51.148 48.675)"/><ellipse cx="48.06" cy="49.71" rx="2.53" ry=".33"/><ellipse cx="47.37" cy="48.36" rx=".33" ry=".91"/><ellipse cx="46.36" cy="48.56" rx=".16" ry=".91" transform="rotate(-26.24 46.358 48.554)"/><ellipse cx="45.86" cy="47.69" rx=".33" ry="2.53" transform="rotate(-48.8 45.857 47.688)"/><ellipse cx="51.97" cy="50.03" rx=".33" ry="2.53" transform="rotate(-48.8 51.97 50.036)"/><ellipse cx="49.58" cy="50.58" rx=".16" ry=".91" transform="rotate(-84.62 49.589 50.582)"/><ellipse cx="48.11" cy="51.1" rx=".91" ry=".33" transform="rotate(-43.38 48.103 51.106)"/><ellipse cx="46.03" cy="50.73" rx=".33" ry=".91" transform="rotate(-72.34 46.031 50.727)"/><ellipse cx="46.63" cy="51.65" rx=".91" ry=".16" transform="rotate(-4.11 46.563 51.62)"/><ellipse cx="44.61" cy="50.51" rx=".91" ry=".16" transform="rotate(-87.7 44.606 50.507)"/><ellipse cx="47.29" cy="52.63" rx="2.53" ry=".33"/><ellipse cx="59.54" cy="47.45" rx="2.53" ry=".33"/><ellipse cx="57.96" cy="48.67" rx=".33" ry=".91" transform="rotate(-67.3 57.947 48.676)"/><ellipse cx="59.92" cy="48.68" rx=".91" ry=".16" transform="rotate(-26.24 59.921 48.684)"/><ellipse cx="56.85" cy="49.71" rx="2.53" ry=".33"/><ellipse cx="56.15" cy="48.36" rx=".33" ry=".91"/><ellipse cx="55.15" cy="48.56" rx=".16" ry=".91" transform="rotate(-26.24 55.153 48.568)"/><ellipse cx="54.65" cy="47.69" rx=".33" ry="2.53" transform="rotate(-48.8 54.638 47.698)"/><ellipse cx="60.76" cy="50.03" rx=".33" ry="2.53" transform="rotate(-48.8 60.755 50.034)"/><ellipse cx="58.37" cy="50.58" rx=".16" ry=".91" transform="rotate(-84.62 58.375 50.585)"/><ellipse cx="56.9" cy="51.1" rx=".91" ry=".33" transform="rotate(-43.38 56.896 51.109)"/><ellipse cx="54.82" cy="50.73" rx=".33" ry=".91" transform="rotate(-72.34 54.82 50.72)"/><ellipse cx="55.41" cy="51.65" rx=".91" ry=".16" transform="rotate(-4.11 55.352 51.657)"/><ellipse cx="53.4" cy="50.51" rx=".91" ry=".16" transform="rotate(-87.7 53.396 50.504)"/><ellipse cx="56.08" cy="52.63" rx="2.53" ry=".33"/><ellipse cx="68.33" cy="47.45" rx="2.53" ry=".33"/><ellipse cx="66.74" cy="48.67" rx=".33" ry=".91" transform="rotate(-67.3 66.739 48.674)"/><ellipse cx="68.71" cy="48.68" rx=".91" ry=".16" transform="rotate(-26.24 68.721 48.677)"/><ellipse cx="65.64" cy="49.71" rx="2.53" ry=".33"/><ellipse cx="64.94" cy="48.36" rx=".33" ry=".91"/><ellipse cx="63.94" cy="48.56" rx=".16" ry=".91" transform="rotate(-26.24 63.953 48.561)"/><ellipse cx="63.44" cy="47.69" rx=".33" ry="2.53" transform="rotate(-48.8 63.424 47.696)"/><ellipse cx="69.55" cy="50.03" rx=".33" ry="2.53" transform="rotate(-48.8 69.54 50.032)"/><ellipse cx="67.16" cy="50.58" rx=".16" ry=".91" transform="rotate(-84.62 67.167 50.582)"/><ellipse cx="65.68" cy="51.1" rx=".91" ry=".33" transform="rotate(-43.38 65.676 51.107)"/><ellipse cx="63.61" cy="50.73" rx=".33" ry=".91" transform="rotate(-72.34 63.612 50.724)"/><ellipse cx="64.2" cy="51.65" rx=".91" ry=".16" transform="rotate(-4.11 64.146 51.554)"/><ellipse cx="62.18" cy="50.51" rx=".91" ry=".16" transform="rotate(-87.7 62.18 50.506)"/><ellipse cx="64.87" cy="52.63" rx="2.53" ry=".33"/><ellipse cx="-1.98" cy="40.88" rx="2.53" ry=".33"/><ellipse cx="-3.56" cy="42.1" rx=".33" ry=".91" transform="rotate(-67.3 -3.562 42.104)"/><ellipse cx="-1.6" cy="42.1" rx=".91" ry=".16" transform="rotate(-26.24 -1.603 42.102)"/><ellipse cx="-4.67" cy="43.13" rx="2.53" ry=".33"/><ellipse cx="-5.36" cy="41.79" rx=".33" ry=".91"/><ellipse cx="-6.37" cy="41.99" rx=".16" ry=".91" transform="rotate(-26.24 -6.37 41.986)"/><ellipse cx="-6.87" cy="41.12" rx=".33" ry="2.53" transform="rotate(-48.8 -6.874 41.113)"/><ellipse cx="-.76" cy="43.46" rx=".33" ry="2.53" transform="rotate(-48.8 -.762 43.46)"/><ellipse cx="-3.15" cy="44.01" rx=".16" ry=".91" transform="rotate(-84.62 -3.148 44.01)"/><ellipse cx="-4.62" cy="44.53" rx=".91" ry=".33" transform="rotate(-43.38 -4.624 44.533)"/><ellipse cx="-6.7" cy="44.15" rx=".33" ry=".91" transform="rotate(-72.34 -6.696 44.156)"/><ellipse cx="-6.1" cy="45.07" rx=".91" ry=".16" transform="rotate(-4.11 -6.08 44.988)"/><ellipse cx="-8.12" cy="43.93" rx=".91" ry=".16" transform="rotate(-87.7 -8.117 43.934)"/><ellipse cx="-5.44" cy="46.06" rx="2.53" ry=".33"/><ellipse cx="6.81" cy="40.88" rx="2.53" ry=".33"/><ellipse cx="5.23" cy="42.1" rx=".33" ry=".91" transform="rotate(-67.3 5.222 42.098)"/><ellipse cx="7.19" cy="42.1" rx=".91" ry=".16" transform="rotate(-26.24 7.192 42.117)"/><ellipse cx="4.12" cy="43.13" rx="2.53" ry=".33"/><ellipse cx="3.42" cy="41.79" rx=".33" ry=".91"/><ellipse cx="2.42" cy="41.99" rx=".16" ry=".91" transform="rotate(-26.24 2.424 42)"/><ellipse cx="1.92" cy="41.12" rx=".33" ry="2.53" transform="rotate(-48.8 1.923 41.116)"/><ellipse cx="8.03" cy="43.46" rx=".33" ry="2.53" transform="rotate(-48.8 8.024 43.458)"/><ellipse cx="5.64" cy="44.01" rx=".16" ry=".91" transform="rotate(-84.62 5.643 44.008)"/><ellipse cx="4.17" cy="44.53" rx=".91" ry=".33" transform="rotate(-43.38 4.169 44.536)"/><ellipse cx="2.09" cy="44.15" rx=".33" ry=".91" transform="rotate(-72.34 2.093 44.149)"/><ellipse cx="2.68" cy="45.07" rx=".91" ry=".16" transform="rotate(-4.11 2.71 45.024)"/><ellipse cx=".67" cy="43.93" rx=".91" ry=".16" transform="rotate(-87.7 .668 43.936)"/><ellipse cx="3.35" cy="46.06" rx="2.53" ry=".33"/><ellipse cx="15.6" cy="40.88" rx="2.53" ry=".33"/><ellipse cx="14.01" cy="42.1" rx=".33" ry=".91" transform="rotate(-67.3 14.014 42.097)"/><ellipse cx="15.98" cy="42.1" rx=".91" ry=".16" transform="rotate(-26.24 15.992 42.11)"/><ellipse cx="12.91" cy="43.13" rx="2.53" ry=".33"/><ellipse cx="12.21" cy="41.79" rx=".33" ry=".91"/><ellipse cx="11.21" cy="41.99" rx=".16" ry=".91" transform="rotate(-26.24 11.203 41.988)"/><ellipse cx="10.71" cy="41.12" rx=".33" ry="2.53" transform="rotate(-48.8 10.704 41.125)"/><ellipse cx="16.82" cy="43.46" rx=".33" ry="2.53" transform="rotate(-48.8 16.81 43.456)"/><ellipse cx="14.43" cy="44.01" rx=".16" ry=".91" transform="rotate(-84.62 14.43 44.01)"/><ellipse cx="12.95" cy="44.53" rx=".91" ry=".33" transform="rotate(-43.38 12.95 44.534)"/><ellipse cx="10.88" cy="44.15" rx=".33" ry=".91" transform="rotate(-72.34 10.878 44.148)"/><ellipse cx="11.47" cy="45.07" rx=".91" ry=".16" transform="rotate(-4.11 11.499 45.06)"/><ellipse cx="9.45" cy="43.93" rx=".91" ry=".16" transform="rotate(-87.7 9.457 43.933)"/><ellipse cx="12.14" cy="46.06" rx="2.53" ry=".33"/><ellipse cx="24.38" cy="40.88" rx="2.53" ry=".33"/><ellipse cx="22.8" cy="42.1" rx=".33" ry=".91" transform="rotate(-67.3 22.8 42.103)"/><ellipse cx="24.77" cy="42.1" rx=".91" ry=".16" transform="rotate(-26.24 24.77 42.097)"/><ellipse cx="21.7" cy="43.13" rx="2.53" ry=".33"/><ellipse cx="21" cy="41.79" rx=".33" ry=".91"/><ellipse cx="19.99" cy="41.99" rx=".16" ry=".91" transform="rotate(-26.24 20.003 41.981)"/><ellipse cx="19.49" cy="41.12" rx=".33" ry="2.53" transform="rotate(-48.8 19.49 41.124)"/><ellipse cx="25.61" cy="43.46" rx=".33" ry="2.53" transform="rotate(-48.8 25.607 43.46)"/><ellipse cx="23.22" cy="44.01" rx=".16" ry=".91" transform="rotate(-84.62 23.22 44.008)"/><ellipse cx="21.74" cy="44.53" rx=".91" ry=".33" transform="rotate(-43.38 21.742 44.537)"/><ellipse cx="19.67" cy="44.15" rx=".33" ry=".91" transform="rotate(-72.34 19.669 44.153)"/><ellipse cx="20.26" cy="45.07" rx=".91" ry=".16" transform="rotate(-4.11 20.287 45.097)"/><ellipse cx="18.24" cy="43.93" rx=".91" ry=".16" transform="rotate(-87.7 18.242 43.936)"/><ellipse cx="20.93" cy="46.06" rx="2.53" ry=".33"/><ellipse cx="33.17" cy="40.88" rx="2.53" ry=".33"/><ellipse cx="31.59" cy="42.1" rx=".33" ry=".91" transform="rotate(-67.3 31.593 42.102)"/><ellipse cx="33.56" cy="42.1" rx=".91" ry=".16" transform="rotate(-26.24 33.566 42.112)"/><ellipse cx="30.49" cy="43.13" rx="2.53" ry=".33"/><ellipse cx="29.79" cy="41.79" rx=".33" ry=".91"/><ellipse cx="28.78" cy="41.99" rx=".16" ry=".91" transform="rotate(-26.24 28.776 41.99)"/><ellipse cx="28.28" cy="41.12" rx=".33" ry="2.53" transform="rotate(-48.8 28.275 41.122)"/><ellipse cx="34.4" cy="43.46" rx=".33" ry="2.53" transform="rotate(-48.8 34.392 43.458)"/><ellipse cx="32.01" cy="44.01" rx=".16" ry=".91" transform="rotate(-84.62 32.007 44.01)"/><ellipse cx="30.53" cy="44.53" rx=".91" ry=".33" transform="rotate(-43.38 30.527 44.523)"/><ellipse cx="28.46" cy="44.15" rx=".33" ry=".91" transform="rotate(-72.34 28.453 44.152)"/><ellipse cx="29.05" cy="45.07" rx=".91" ry=".16" transform="rotate(-4.11 29.081 44.994)"/><ellipse cx="27.03" cy="43.93" rx=".91" ry=".16" transform="rotate(-87.7 27.032 43.933)"/><ellipse cx="29.71" cy="46.06" rx="2.53" ry=".33"/><ellipse cx="41.96" cy="40.88" rx="2.53" ry=".33"/><ellipse cx="40.38" cy="42.1" rx=".33" ry=".91" transform="rotate(-67.3 40.377 42.096)"/><ellipse cx="42.34" cy="42.1" rx=".91" ry=".16" transform="rotate(-26.24 42.344 42.1)"/><ellipse cx="39.28" cy="43.13" rx="2.53" ry=".33"/><ellipse cx="38.58" cy="41.79" rx=".33" ry=".91"/><ellipse cx="37.57" cy="41.99" rx=".16" ry=".91" transform="rotate(-26.24 37.576 41.983)"/><ellipse cx="37.07" cy="41.12" rx=".33" ry="2.53" transform="rotate(-48.8 37.061 41.12)"/><ellipse cx="43.18" cy="43.46" rx=".33" ry="2.53" transform="rotate(-48.8 43.178 43.456)"/><ellipse cx="40.8" cy="44.01" rx=".16" ry=".91" transform="rotate(-84.62 40.799 44.007)"/><ellipse cx="39.32" cy="44.53" rx=".91" ry=".33" transform="rotate(-43.38 39.32 44.526)"/><ellipse cx="37.25" cy="44.15" rx=".33" ry=".91" transform="rotate(-72.34 37.244 44.157)"/><ellipse cx="37.84" cy="45.07" rx=".91" ry=".16" transform="rotate(-4.11 37.73 45.025)"/><ellipse cx="35.82" cy="43.93" rx=".91" ry=".16" transform="rotate(-87.7 35.817 43.935)"/><ellipse cx="38.5" cy="46.06" rx="2.53" ry=".33"/><ellipse cx="50.75" cy="40.88" rx="2.53" ry=".33"/><ellipse cx="49.17" cy="42.1" rx=".33" ry=".91" transform="rotate(-67.3 49.164 42.102)"/><ellipse cx="51.13" cy="42.1" rx=".91" ry=".16" transform="rotate(-26.24 51.139 42.114)"/><ellipse cx="48.06" cy="43.13" rx="2.53" ry=".33"/><ellipse cx="47.37" cy="41.79" rx=".33" ry=".91"/><ellipse cx="46.36" cy="41.99" rx=".16" ry=".91" transform="rotate(-26.24 46.371 41.998)"/><ellipse cx="45.86" cy="41.12" rx=".33" ry="2.53" transform="rotate(-48.8 45.858 41.123)"/><ellipse cx="51.97" cy="43.46" rx=".33" ry="2.53" transform="rotate(-48.8 51.964 43.455)"/><ellipse cx="49.58" cy="44.01" rx=".16" ry=".91" transform="rotate(-84.62 49.585 44.01)"/><ellipse cx="48.11" cy="44.53" rx=".91" ry=".33" transform="rotate(-43.38 48.113 44.529)"/><ellipse cx="46.03" cy="44.15" rx=".33" ry=".91" transform="rotate(-72.34 46.034 44.15)"/><ellipse cx="46.63" cy="45.07" rx=".91" ry=".16" transform="rotate(-4.11 46.52 45.062)"/><ellipse cx="44.61" cy="43.93" rx=".91" ry=".16" transform="rotate(-87.7 44.607 43.932)"/><ellipse cx="47.29" cy="46.06" rx="2.53" ry=".33"/><ellipse cx="59.54" cy="40.88" rx="2.53" ry=".33"/><ellipse cx="57.96" cy="42.1" rx=".33" ry=".91" transform="rotate(-67.3 57.955 42.101)"/><ellipse cx="59.92" cy="42.1" rx=".91" ry=".16" transform="rotate(-26.24 59.917 42.102)"/><ellipse cx="56.85" cy="43.13" rx="2.53" ry=".33"/><ellipse cx="56.15" cy="41.79" rx=".33" ry=".91"/><ellipse cx="55.15" cy="41.99" rx=".16" ry=".91" transform="rotate(-26.24 55.15 41.986)"/><ellipse cx="54.65" cy="41.12" rx=".33" ry="2.53" transform="rotate(-48.8 54.644 41.122)"/><ellipse cx="60.76" cy="43.46" rx=".33" ry="2.53" transform="rotate(-48.8 60.75 43.453)"/><ellipse cx="58.37" cy="44.01" rx=".16" ry=".91" transform="rotate(-84.62 58.376 44.007)"/><ellipse cx="56.9" cy="44.53" rx=".91" ry=".33" transform="rotate(-43.38 56.893 44.527)"/><ellipse cx="54.82" cy="44.15" rx=".33" ry=".91" transform="rotate(-72.34 54.818 44.149)"/><ellipse cx="55.41" cy="45.07" rx=".91" ry=".16" transform="rotate(-4.11 55.308 45.098)"/><ellipse cx="53.4" cy="43.93" rx=".91" ry=".16" transform="rotate(-87.7 53.397 43.93)"/><ellipse cx="56.08" cy="46.06" rx="2.53" ry=".33"/><ellipse cx="68.33" cy="40.88" rx="2.53" ry=".33"/><ellipse cx="66.74" cy="42.1" rx=".33" ry=".91" transform="rotate(-67.3 66.742 42.108)"/><ellipse cx="68.71" cy="42.1" rx=".91" ry=".16" transform="rotate(-26.24 68.717 42.094)"/><ellipse cx="65.64" cy="43.13" rx="2.53" ry=".33"/><ellipse cx="64.94" cy="41.79" rx=".33" ry=".91"/><ellipse cx="63.94" cy="41.99" rx=".16" ry=".91" transform="rotate(-26.24 63.944 42)"/><ellipse cx="63.44" cy="41.12" rx=".33" ry="2.53" transform="rotate(-48.8 63.43 41.12)"/><ellipse cx="69.55" cy="43.46" rx=".33" ry="2.53" transform="rotate(-48.8 69.547 43.456)"/><ellipse cx="67.16" cy="44.01" rx=".16" ry=".91" transform="rotate(-84.62 67.163 44.01)"/><ellipse cx="65.68" cy="44.53" rx=".91" ry=".33" transform="rotate(-43.38 65.686 44.53)"/><ellipse cx="63.61" cy="44.15" rx=".33" ry=".91" transform="rotate(-72.34 63.61 44.153)"/><ellipse cx="64.2" cy="45.07" rx=".91" ry=".16" transform="rotate(-4.11 64.102 44.995)"/><ellipse cx="62.18" cy="43.93" rx=".91" ry=".16" transform="rotate(-87.7 62.187 43.937)"/><ellipse cx="64.87" cy="46.06" rx="2.53" ry=".33"/><ellipse cx="-1.98" cy="34.31" rx="2.53" ry=".33"/><ellipse cx="-3.56" cy="35.53" rx=".33" ry=".91" transform="rotate(-67.3 -3.561 35.525)"/><ellipse cx="-1.6" cy="35.53" rx=".91" ry=".16" transform="rotate(-26.24 -1.585 35.525)"/><ellipse cx="-4.67" cy="36.56" rx="2.53" ry=".33"/><ellipse cx="-5.36" cy="35.22" rx=".33" ry=".91"/><ellipse cx="-6.37" cy="35.42" rx=".16" ry=".91" transform="rotate(-26.24 -6.38 35.425)"/><ellipse cx="-6.87" cy="34.55" rx=".33" ry="2.53" transform="rotate(-48.8 -6.873 34.548)"/><ellipse cx="-.76" cy="36.89" rx=".33" ry="2.53" transform="rotate(-48.8 -.756 36.884)"/><ellipse cx="-3.15" cy="37.44" rx=".16" ry=".91" transform="rotate(-84.62 -3.142 37.438)"/><ellipse cx="-4.62" cy="37.96" rx=".91" ry=".33" transform="rotate(-43.38 -4.627 37.951)"/><ellipse cx="-6.7" cy="37.58" rx=".33" ry=".91" transform="rotate(-72.34 -6.693 37.578)"/><ellipse cx="-6.1" cy="38.5" rx=".91" ry=".16" transform="rotate(-4.11 -6.123 38.429)"/><ellipse cx="-8.12" cy="37.36" rx=".91" ry=".16" transform="rotate(-87.7 -8.122 37.364)"/><ellipse cx="-5.44" cy="39.49" rx="2.53" ry=".33"/><ellipse cx="6.81" cy="34.31" rx="2.53" ry=".33"/><ellipse cx="5.23" cy="35.53" rx=".33" ry=".91" transform="rotate(-67.3 5.225 35.531)"/><ellipse cx="7.19" cy="35.53" rx=".91" ry=".16" transform="rotate(-26.24 7.188 35.534)"/><ellipse cx="4.12" cy="36.56" rx="2.53" ry=".33"/><ellipse cx="3.42" cy="35.22" rx=".33" ry=".91"/><ellipse cx="2.42" cy="35.42" rx=".16" ry=".91" transform="rotate(-26.24 2.42 35.418)"/><ellipse cx="1.92" cy="34.55" rx=".33" ry="2.53" transform="rotate(-48.8 1.913 34.546)"/><ellipse cx="8.03" cy="36.89" rx=".33" ry="2.53" transform="rotate(-48.8 8.03 36.882)"/><ellipse cx="5.64" cy="37.44" rx=".16" ry=".91" transform="rotate(-84.62 5.645 37.44)"/><ellipse cx="4.17" cy="37.96" rx=".91" ry=".33" transform="rotate(-43.38 4.166 37.954)"/><ellipse cx="2.09" cy="37.58" rx=".33" ry=".91" transform="rotate(-72.34 2.09 37.577)"/><ellipse cx="2.68" cy="38.5" rx=".91" ry=".16" transform="rotate(-4.11 2.666 38.465)"/><ellipse cx=".67" cy="37.36" rx=".91" ry=".16" transform="rotate(-87.7 .668 37.362)"/><ellipse cx="3.35" cy="39.49" rx="2.53" ry=".33"/><ellipse cx="15.6" cy="34.31" rx="2.53" ry=".33"/><ellipse cx="14.01" cy="35.53" rx=".33" ry=".91" transform="rotate(-67.3 14.017 35.53)"/><ellipse cx="15.98" cy="35.53" rx=".91" ry=".16" transform="rotate(-26.24 15.988 35.527)"/><ellipse cx="12.91" cy="36.56" rx="2.53" ry=".33"/><ellipse cx="12.21" cy="35.22" rx=".33" ry=".91"/><ellipse cx="11.21" cy="35.42" rx=".16" ry=".91" transform="rotate(-26.24 11.22 35.41)"/><ellipse cx="10.71" cy="34.55" rx=".33" ry="2.53" transform="rotate(-48.8 10.699 34.544)"/><ellipse cx="16.82" cy="36.89" rx=".33" ry="2.53" transform="rotate(-48.8 16.816 36.88)"/><ellipse cx="14.43" cy="37.44" rx=".16" ry=".91" transform="rotate(-84.62 14.43 37.433)"/><ellipse cx="12.95" cy="37.96" rx=".91" ry=".33" transform="rotate(-43.38 12.959 37.957)"/><ellipse cx="10.88" cy="37.58" rx=".33" ry=".91" transform="rotate(-72.34 10.882 37.582)"/><ellipse cx="11.47" cy="38.5" rx=".91" ry=".16" transform="rotate(-4.11 11.455 38.501)"/><ellipse cx="9.45" cy="37.36" rx=".91" ry=".16" transform="rotate(-87.7 9.453 37.364)"/><ellipse cx="12.14" cy="39.49" rx="2.53" ry=".33"/><ellipse cx="24.38" cy="34.31" rx="2.53" ry=".33"/><ellipse cx="22.8" cy="35.53" rx=".33" ry=".91" transform="rotate(-67.3 22.801 35.524)"/><ellipse cx="24.77" cy="35.53" rx=".91" ry=".16" transform="rotate(-26.24 24.762 35.536)"/><ellipse cx="21.7" cy="36.56" rx="2.53" ry=".33"/><ellipse cx="21" cy="35.22" rx=".33" ry=".91"/><ellipse cx="19.99" cy="35.42" rx=".16" ry=".91" transform="rotate(-26.24 19.994 35.42)"/><ellipse cx="19.49" cy="34.55" rx=".33" ry="2.53" transform="rotate(-48.8 19.495 34.547)"/><ellipse cx="25.61" cy="36.89" rx=".33" ry="2.53" transform="rotate(-48.8 25.601 36.879)"/><ellipse cx="23.22" cy="37.44" rx=".16" ry=".91" transform="rotate(-84.62 23.217 37.435)"/><ellipse cx="21.74" cy="37.96" rx=".91" ry=".33" transform="rotate(-43.38 21.74 37.955)"/><ellipse cx="19.67" cy="37.58" rx=".33" ry=".91" transform="rotate(-72.34 19.666 37.581)"/><ellipse cx="20.26" cy="38.5" rx=".91" ry=".16" transform="rotate(-4.11 20.249 38.398)"/><ellipse cx="18.24" cy="37.36" rx=".91" ry=".16" transform="rotate(-87.7 18.243 37.361)"/><ellipse cx="20.93" cy="39.49" rx="2.53" ry=".33"/><ellipse cx="33.17" cy="34.31" rx="2.53" ry=".33"/><ellipse cx="31.59" cy="35.53" rx=".33" ry=".91" transform="rotate(-67.3 31.588 35.53)"/><ellipse cx="33.56" cy="35.53" rx=".91" ry=".16" transform="rotate(-26.24 33.562 35.53)"/><ellipse cx="30.49" cy="36.56" rx="2.53" ry=".33"/><ellipse cx="29.79" cy="35.22" rx=".33" ry=".91"/><ellipse cx="28.78" cy="35.42" rx=".16" ry=".91" transform="rotate(-26.24 28.794 35.413)"/><ellipse cx="28.28" cy="34.55" rx=".33" ry="2.53" transform="rotate(-48.8 28.281 34.546)"/><ellipse cx="34.4" cy="36.89" rx=".33" ry="2.53" transform="rotate(-48.8 34.398 36.882)"/><ellipse cx="32.01" cy="37.44" rx=".16" ry=".91" transform="rotate(-84.62 32.008 37.432)"/><ellipse cx="30.53" cy="37.96" rx=".91" ry=".33" transform="rotate(-43.38 30.532 37.958)"/><ellipse cx="28.46" cy="37.58" rx=".33" ry=".91" transform="rotate(-72.34 28.456 37.574)"/><ellipse cx="29.05" cy="38.5" rx=".91" ry=".16" transform="rotate(-4.11 29.037 38.435)"/><ellipse cx="27.03" cy="37.36" rx=".91" ry=".16" transform="rotate(-87.7 27.033 37.358)"/><ellipse cx="29.71" cy="39.49" rx="2.53" ry=".33"/><ellipse cx="41.96" cy="34.31" rx="2.53" ry=".33"/><ellipse cx="40.38" cy="35.53" rx=".33" ry=".91" transform="rotate(-67.3 40.38 35.53)"/><ellipse cx="42.34" cy="35.53" rx=".91" ry=".16" transform="rotate(-26.24 42.357 35.543)"/><ellipse cx="39.28" cy="36.56" rx="2.53" ry=".33"/><ellipse cx="38.58" cy="35.22" rx=".33" ry=".91"/><ellipse cx="37.57" cy="35.42" rx=".16" ry=".91" transform="rotate(-26.24 37.567 35.422)"/><ellipse cx="37.07" cy="34.55" rx=".33" ry="2.53" transform="rotate(-48.8 37.067 34.544)"/><ellipse cx="43.18" cy="36.89" rx=".33" ry="2.53" transform="rotate(-48.8 43.18 36.891)"/><ellipse cx="40.8" cy="37.44" rx=".16" ry=".91" transform="rotate(-84.62 40.795 37.435)"/><ellipse cx="39.32" cy="37.96" rx=".91" ry=".33" transform="rotate(-43.38 39.312 37.956)"/><ellipse cx="37.25" cy="37.58" rx=".33" ry=".91" transform="rotate(-72.34 37.247 37.578)"/><ellipse cx="37.84" cy="38.5" rx=".91" ry=".16" transform="rotate(-4.11 37.826 38.471)"/><ellipse cx="35.82" cy="37.36" rx=".91" ry=".16" transform="rotate(-87.7 35.818 37.36)"/><ellipse cx="38.5" cy="39.49" rx="2.53" ry=".33"/><ellipse cx="50.75" cy="34.31" rx="2.53" ry=".33"/><ellipse cx="49.17" cy="35.53" rx=".33" ry=".91" transform="rotate(-67.3 49.171 35.528)"/><ellipse cx="51.13" cy="35.53" rx=".91" ry=".16" transform="rotate(-26.24 51.135 35.531)"/><ellipse cx="48.06" cy="36.56" rx="2.53" ry=".33"/><ellipse cx="47.37" cy="35.22" rx=".33" ry=".91"/><ellipse cx="46.36" cy="35.42" rx=".16" ry=".91" transform="rotate(-26.24 46.367 35.415)"/><ellipse cx="45.86" cy="34.55" rx=".33" ry="2.53" transform="rotate(-48.8 45.853 34.542)"/><ellipse cx="51.97" cy="36.89" rx=".33" ry="2.53" transform="rotate(-48.8 51.965 36.89)"/><ellipse cx="49.58" cy="37.44" rx=".16" ry=".91" transform="rotate(-84.62 49.586 37.432)"/><ellipse cx="48.11" cy="37.96" rx=".91" ry=".33" transform="rotate(-43.38 48.105 37.96)"/><ellipse cx="46.03" cy="37.58" rx=".33" ry=".91" transform="rotate(-72.34 46.031 37.578)"/><ellipse cx="46.63" cy="38.5" rx=".91" ry=".16" transform="rotate(-4.11 46.615 38.507)"/><ellipse cx="44.61" cy="37.36" rx=".91" ry=".16" transform="rotate(-87.7 44.608 37.358)"/><ellipse cx="47.29" cy="39.49" rx="2.53" ry=".33"/><ellipse cx="59.54" cy="34.31" rx="2.53" ry=".33"/><ellipse cx="57.96" cy="35.53" rx=".33" ry=".91" transform="rotate(-67.3 57.95 35.53)"/><ellipse cx="59.92" cy="35.53" rx=".91" ry=".16" transform="rotate(-26.24 59.935 35.524)"/><ellipse cx="56.85" cy="36.56" rx="2.53" ry=".33"/><ellipse cx="56.15" cy="35.22" rx=".33" ry=".91"/><ellipse cx="55.15" cy="35.42" rx=".16" ry=".91" transform="rotate(-26.24 55.14 35.424)"/><ellipse cx="54.65" cy="34.55" rx=".33" ry="2.53" transform="rotate(-48.8 54.634 34.551)"/><ellipse cx="60.76" cy="36.89" rx=".33" ry="2.53" transform="rotate(-48.8 60.75 36.888)"/><ellipse cx="58.37" cy="37.44" rx=".16" ry=".91" transform="rotate(-84.62 58.373 37.434)"/><ellipse cx="56.9" cy="37.96" rx=".91" ry=".33" transform="rotate(-43.38 56.898 37.962)"/><ellipse cx="54.82" cy="37.58" rx=".33" ry=".91" transform="rotate(-72.34 54.823 37.582)"/><ellipse cx="55.41" cy="38.5" rx=".91" ry=".16" transform="rotate(-4.11 55.409 38.404)"/><ellipse cx="53.4" cy="37.36" rx=".91" ry=".16" transform="rotate(-87.7 53.398 37.365)"/><ellipse cx="56.08" cy="39.49" rx="2.53" ry=".33"/><ellipse cx="68.33" cy="34.31" rx="2.53" ry=".33"/><ellipse cx="66.74" cy="35.53" rx=".33" ry=".91" transform="rotate(-67.3 66.742 35.528)"/><ellipse cx="68.71" cy="35.53" rx=".91" ry=".16" transform="rotate(-26.24 68.709 35.533)"/><ellipse cx="65.64" cy="36.56" rx="2.53" ry=".33"/><ellipse cx="64.94" cy="35.22" rx=".33" ry=".91"/><ellipse cx="63.94" cy="35.42" rx=".16" ry=".91" transform="rotate(-26.24 63.94 35.417)"/><ellipse cx="63.44" cy="34.55" rx=".33" ry="2.53" transform="rotate(-48.8 63.43 34.555)"/><ellipse cx="69.55" cy="36.89" rx=".33" ry="2.53" transform="rotate(-48.8 69.537 36.886)"/><ellipse cx="67.16" cy="37.44" rx=".16" ry=".91" transform="rotate(-84.62 67.164 37.432)"/><ellipse cx="65.68" cy="37.96" rx=".91" ry=".33" transform="rotate(-43.38 65.678 37.96)"/><ellipse cx="63.61" cy="37.58" rx=".33" ry=".91" transform="rotate(-72.34 63.607 37.582)"/><ellipse cx="64.2" cy="38.5" rx=".91" ry=".16" transform="rotate(-4.11 64.198 38.44)"/><ellipse cx="62.18" cy="37.36" rx=".91" ry=".16" transform="rotate(-87.7 62.188 37.362)"/><ellipse cx="64.87" cy="39.49" rx="2.53" ry=".33"/><ellipse cx="-1.98" cy="27.73" rx="2.53" ry=".33"/><ellipse cx="-3.56" cy="28.96" rx=".33" ry=".91" transform="rotate(-67.3 -3.559 28.958)"/><ellipse cx="-1.6" cy="28.96" rx=".91" ry=".16" transform="rotate(-26.24 -1.594 28.964)"/><ellipse cx="-4.67" cy="29.99" rx="2.53" ry=".33"/><ellipse cx="-5.36" cy="28.65" rx=".33" ry=".91"/><ellipse cx="-6.37" cy="28.84" rx=".16" ry=".91" transform="rotate(-26.24 -6.362 28.848)"/><ellipse cx="-6.87" cy="27.98" rx=".33" ry="2.53" transform="rotate(-48.8 -6.867 27.971)"/><ellipse cx="-.76" cy="30.31" rx=".33" ry="2.53" transform="rotate(-48.8 -.755 30.319)"/><ellipse cx="-3.15" cy="30.86" rx=".16" ry=".91" transform="rotate(-84.62 -3.145 30.866)"/><ellipse cx="-4.62" cy="31.39" rx=".91" ry=".33" transform="rotate(-43.38 -4.622 31.387)"/><ellipse cx="-6.7" cy="31.01" rx=".33" ry=".91" transform="rotate(-72.34 -6.696 31.007)"/><ellipse cx="-6.1" cy="31.93" rx=".91" ry=".16" transform="rotate(-4.11 -6.166 31.87)"/><ellipse cx="-8.12" cy="30.79" rx=".91" ry=".16" transform="rotate(-87.7 -8.12 30.79)"/><ellipse cx="-5.44" cy="32.92" rx="2.53" ry=".33"/><ellipse cx="6.81" cy="27.73" rx="2.53" ry=".33"/><ellipse cx="5.23" cy="28.96" rx=".33" ry=".91" transform="rotate(-67.3 5.226 28.952)"/><ellipse cx="7.19" cy="28.96" rx=".91" ry=".16" transform="rotate(-26.24 7.185 28.951)"/><ellipse cx="4.12" cy="29.99" rx="2.53" ry=".33"/><ellipse cx="3.42" cy="28.65" rx=".33" ry=".91"/><ellipse cx="2.42" cy="28.84" rx=".16" ry=".91" transform="rotate(-26.24 2.417 28.835)"/><ellipse cx="1.92" cy="27.98" rx=".33" ry="2.53" transform="rotate(-48.8 1.919 27.97)"/><ellipse cx="8.03" cy="30.31" rx=".33" ry="2.53" transform="rotate(-48.8 8.03 30.317)"/><ellipse cx="5.64" cy="30.86" rx=".16" ry=".91" transform="rotate(-84.62 5.646 30.863)"/><ellipse cx="4.17" cy="31.39" rx=".91" ry=".33" transform="rotate(-43.38 4.158 31.385)"/><ellipse cx="2.09" cy="31.01" rx=".33" ry=".91" transform="rotate(-72.34 2.089 31.006)"/><ellipse cx="2.68" cy="31.93" rx=".91" ry=".16" transform="rotate(-4.11 2.622 31.906)"/><ellipse cx=".67" cy="30.79" rx=".91" ry=".16" transform="rotate(-87.7 .67 30.787)"/><ellipse cx="3.35" cy="32.92" rx="2.53" ry=".33"/><ellipse cx="15.6" cy="27.73" rx="2.53" ry=".33"/><ellipse cx="14.01" cy="28.96" rx=".33" ry=".91" transform="rotate(-67.3 14.012 28.958)"/><ellipse cx="15.98" cy="28.96" rx=".91" ry=".16" transform="rotate(-26.24 15.98 28.966)"/><ellipse cx="12.91" cy="29.99" rx="2.53" ry=".33"/><ellipse cx="12.21" cy="28.65" rx=".33" ry=".91"/><ellipse cx="11.21" cy="28.84" rx=".16" ry=".91" transform="rotate(-26.24 11.212 28.85)"/><ellipse cx="10.71" cy="27.98" rx=".33" ry="2.53" transform="rotate(-48.8 10.7 27.979)"/><ellipse cx="16.82" cy="30.31" rx=".33" ry="2.53" transform="rotate(-48.8 16.817 30.315)"/><ellipse cx="14.43" cy="30.86" rx=".16" ry=".91" transform="rotate(-84.62 14.432 30.865)"/><ellipse cx="12.95" cy="31.39" rx=".91" ry=".33" transform="rotate(-43.38 12.951 31.388)"/><ellipse cx="10.88" cy="31.01" rx=".33" ry=".91" transform="rotate(-72.34 10.88 31.01)"/><ellipse cx="11.47" cy="31.93" rx=".91" ry=".16" transform="rotate(-4.11 11.411 31.942)"/><ellipse cx="9.45" cy="30.79" rx=".91" ry=".16" transform="rotate(-87.7 9.454 30.79)"/><ellipse cx="12.14" cy="32.92" rx="2.53" ry=".33"/><ellipse cx="24.38" cy="27.73" rx="2.53" ry=".33"/><ellipse cx="22.8" cy="28.96" rx=".33" ry=".91" transform="rotate(-67.3 22.804 28.957)"/><ellipse cx="24.77" cy="28.96" rx=".91" ry=".16" transform="rotate(-26.24 24.78 28.959)"/><ellipse cx="21.7" cy="29.99" rx="2.53" ry=".33"/><ellipse cx="21" cy="28.65" rx=".33" ry=".91"/><ellipse cx="19.99" cy="28.84" rx=".16" ry=".91" transform="rotate(-26.24 19.99 28.838)"/><ellipse cx="19.49" cy="27.98" rx=".33" ry="2.53" transform="rotate(-48.8 19.485 27.977)"/><ellipse cx="25.61" cy="30.31" rx=".33" ry="2.53" transform="rotate(-48.8 25.602 30.314)"/><ellipse cx="23.22" cy="30.86" rx=".16" ry=".91" transform="rotate(-84.62 23.224 30.862)"/><ellipse cx="21.74" cy="31.39" rx=".91" ry=".33" transform="rotate(-43.38 21.744 31.39)"/><ellipse cx="19.67" cy="31.01" rx=".33" ry=".91" transform="rotate(-72.34 19.67 31.003)"/><ellipse cx="20.26" cy="31.93" rx=".91" ry=".16" transform="rotate(-4.11 20.205 31.84)"/><ellipse cx="18.24" cy="30.79" rx=".91" ry=".16" transform="rotate(-87.7 18.244 30.786)"/><ellipse cx="20.93" cy="32.92" rx="2.53" ry=".33"/><ellipse cx="33.17" cy="27.73" rx="2.53" ry=".33"/><ellipse cx="31.59" cy="28.96" rx=".33" ry=".91" transform="rotate(-67.3 31.588 28.95)"/><ellipse cx="33.56" cy="28.96" rx=".91" ry=".16" transform="rotate(-26.24 33.553 28.968)"/><ellipse cx="30.49" cy="29.99" rx="2.53" ry=".33"/><ellipse cx="29.79" cy="28.65" rx=".33" ry=".91"/><ellipse cx="28.78" cy="28.84" rx=".16" ry=".91" transform="rotate(-26.24 28.785 28.852)"/><ellipse cx="28.28" cy="27.98" rx=".33" ry="2.53" transform="rotate(-48.8 28.282 27.98)"/><ellipse cx="34.4" cy="30.31" rx=".33" ry="2.53" transform="rotate(-48.8 34.388 30.312)"/><ellipse cx="32.01" cy="30.86" rx=".16" ry=".91" transform="rotate(-84.62 32.01 30.865)"/><ellipse cx="30.53" cy="31.39" rx=".91" ry=".33" transform="rotate(-43.38 30.524 31.389)"/><ellipse cx="28.46" cy="31.01" rx=".33" ry=".91" transform="rotate(-72.34 28.46 31.008)"/><ellipse cx="29.05" cy="31.93" rx=".91" ry=".16" transform="rotate(-4.11 28.994 31.875)"/><ellipse cx="27.03" cy="30.79" rx=".91" ry=".16" transform="rotate(-87.7 27.029 30.789)"/><ellipse cx="29.71" cy="32.92" rx="2.53" ry=".33"/><ellipse cx="41.96" cy="27.73" rx="2.53" ry=".33"/><ellipse cx="40.38" cy="28.96" rx=".33" ry=".91" transform="rotate(-67.3 40.375 28.957)"/><ellipse cx="42.34" cy="28.96" rx=".91" ry=".16" transform="rotate(-26.24 42.353 28.96)"/><ellipse cx="39.28" cy="29.99" rx="2.53" ry=".33"/><ellipse cx="38.58" cy="28.65" rx=".33" ry=".91"/><ellipse cx="37.57" cy="28.84" rx=".16" ry=".91" transform="rotate(-26.24 37.585 28.845)"/><ellipse cx="37.07" cy="27.98" rx=".33" ry="2.53" transform="rotate(-48.8 37.068 27.979)"/><ellipse cx="43.18" cy="30.31" rx=".33" ry="2.53" transform="rotate(-48.8 43.174 30.31)"/><ellipse cx="40.8" cy="30.86" rx=".16" ry=".91" transform="rotate(-84.62 40.797 30.867)"/><ellipse cx="39.32" cy="31.39" rx=".91" ry=".33" transform="rotate(-43.38 39.317 31.392)"/><ellipse cx="37.25" cy="31.01" rx=".33" ry=".91" transform="rotate(-72.34 37.245 31.007)"/><ellipse cx="37.84" cy="31.93" rx=".91" ry=".16" transform="rotate(-4.11 37.783 31.912)"/><ellipse cx="35.82" cy="30.79" rx=".91" ry=".16" transform="rotate(-87.7 35.819 30.786)"/><ellipse cx="38.5" cy="32.92" rx="2.53" ry=".33"/><ellipse cx="50.75" cy="27.73" rx="2.53" ry=".33"/><ellipse cx="49.17" cy="28.96" rx=".33" ry=".91" transform="rotate(-67.3 49.167 28.956)"/><ellipse cx="51.13" cy="28.96" rx=".91" ry=".16" transform="rotate(-26.24 51.131 28.949)"/><ellipse cx="48.06" cy="29.99" rx="2.53" ry=".33"/><ellipse cx="47.37" cy="28.65" rx=".33" ry=".91"/><ellipse cx="46.36" cy="28.84" rx=".16" ry=".91" transform="rotate(-26.24 46.359 28.854)"/><ellipse cx="45.86" cy="27.98" rx=".33" ry="2.53" transform="rotate(-48.8 45.854 27.977)"/><ellipse cx="51.97" cy="30.31" rx=".33" ry="2.53" transform="rotate(-48.8 51.971 30.313)"/><ellipse cx="49.58" cy="30.86" rx=".16" ry=".91" transform="rotate(-84.62 49.588 30.864)"/><ellipse cx="48.11" cy="31.39" rx=".91" ry=".33" transform="rotate(-43.38 48.102 31.377)"/><ellipse cx="46.03" cy="31.01" rx=".33" ry=".91" transform="rotate(-72.34 46.029 31.007)"/><ellipse cx="46.63" cy="31.93" rx=".91" ry=".16" transform="rotate(-4.11 46.571 31.948)"/><ellipse cx="44.61" cy="30.79" rx=".91" ry=".16" transform="rotate(-87.7 44.609 30.793)"/><ellipse cx="47.29" cy="32.92" rx="2.53" ry=".33"/><ellipse cx="59.54" cy="27.73" rx="2.53" ry=".33"/><ellipse cx="57.96" cy="28.96" rx=".33" ry=".91" transform="rotate(-67.3 57.954 28.962)"/><ellipse cx="59.92" cy="28.96" rx=".91" ry=".16" transform="rotate(-26.24 59.926 28.963)"/><ellipse cx="56.85" cy="29.99" rx="2.53" ry=".33"/><ellipse cx="56.15" cy="28.65" rx=".33" ry=".91"/><ellipse cx="55.15" cy="28.84" rx=".16" ry=".91" transform="rotate(-26.24 55.158 28.847)"/><ellipse cx="54.65" cy="27.98" rx=".33" ry="2.53" transform="rotate(-48.8 54.64 27.975)"/><ellipse cx="60.76" cy="30.31" rx=".33" ry="2.53" transform="rotate(-48.8 60.757 30.312)"/><ellipse cx="58.37" cy="30.86" rx=".16" ry=".91" transform="rotate(-84.62 58.374 30.867)"/><ellipse cx="56.9" cy="31.39" rx=".91" ry=".33" transform="rotate(-43.38 56.895 31.38)"/><ellipse cx="54.82" cy="31.01" rx=".33" ry=".91" transform="rotate(-72.34 54.82 31.011)"/><ellipse cx="55.41" cy="31.93" rx=".91" ry=".16" transform="rotate(-4.11 55.365 31.845)"/><ellipse cx="53.4" cy="30.79" rx=".91" ry=".16" transform="rotate(-87.7 53.398 30.79)"/><ellipse cx="56.08" cy="32.92" rx="2.53" ry=".33"/><ellipse cx="68.33" cy="27.73" rx="2.53" ry=".33"/><ellipse cx="66.74" cy="28.96" rx=".33" ry=".91" transform="rotate(-67.3 66.738 28.956)"/><ellipse cx="68.71" cy="28.96" rx=".91" ry=".16" transform="rotate(-26.24 68.726 28.956)"/><ellipse cx="65.64" cy="29.99" rx="2.53" ry=".33"/><ellipse cx="64.94" cy="28.65" rx=".33" ry=".91"/><ellipse cx="63.94" cy="28.84" rx=".16" ry=".91" transform="rotate(-26.24 63.937 28.835)"/><ellipse cx="63.44" cy="27.98" rx=".33" ry="2.53" transform="rotate(-48.8 63.426 27.974)"/><ellipse cx="69.55" cy="30.31" rx=".33" ry="2.53" transform="rotate(-48.8 69.543 30.31)"/><ellipse cx="67.16" cy="30.86" rx=".16" ry=".91" transform="rotate(-84.62 67.166 30.864)"/><ellipse cx="65.68" cy="31.39" rx=".91" ry=".33" transform="rotate(-43.38 65.688 31.383)"/><ellipse cx="63.61" cy="31.01" rx=".33" ry=".91" transform="rotate(-72.34 63.61 31.004)"/><ellipse cx="64.2" cy="31.93" rx=".91" ry=".16" transform="rotate(-4.11 64.154 31.881)"/><ellipse cx="62.18" cy="30.79" rx=".91" ry=".16" transform="rotate(-87.7 62.188 30.787)"/><ellipse cx="64.87" cy="32.92" rx="2.53" ry=".33"/><ellipse cx="-1.98" cy="21.16" rx="2.53" ry=".33"/><ellipse cx="-3.56" cy="22.38" rx=".33" ry=".91" transform="rotate(-67.3 -3.563 22.386)"/><ellipse cx="-1.6" cy="22.38" rx=".91" ry=".16" transform="rotate(-26.24 -1.598 22.381)"/><ellipse cx="-4.67" cy="23.42" rx="2.53" ry=".33"/><ellipse cx="-5.36" cy="22.07" rx=".33" ry=".91"/><ellipse cx="-6.37" cy="22.27" rx=".16" ry=".91" transform="rotate(-26.24 -6.366 22.265)"/><ellipse cx="-6.87" cy="21.4" rx=".33" ry="2.53" transform="rotate(-48.8 -6.866 21.406)"/><ellipse cx="-.76" cy="23.74" rx=".33" ry="2.53" transform="rotate(-48.8 -.76 23.738)"/><ellipse cx="-3.15" cy="24.29" rx=".16" ry=".91" transform="rotate(-84.62 -3.144 24.288)"/><ellipse cx="-4.62" cy="24.81" rx=".91" ry=".33" transform="rotate(-43.38 -4.625 24.805)"/><ellipse cx="-6.7" cy="24.43" rx=".33" ry=".91" transform="rotate(-72.34 -6.698 24.435)"/><ellipse cx="-6.1" cy="25.36" rx=".91" ry=".16" transform="rotate(-4.11 -6.07 25.315)"/><ellipse cx="-8.12" cy="24.22" rx=".91" ry=".16" transform="rotate(-87.7 -8.12 24.215)"/><ellipse cx="-5.44" cy="26.34" rx="2.53" ry=".33"/><ellipse cx="6.81" cy="21.16" rx="2.53" ry=".33"/><ellipse cx="5.23" cy="22.38" rx=".33" ry=".91" transform="rotate(-67.3 5.229 22.385)"/><ellipse cx="7.19" cy="22.38" rx=".91" ry=".16" transform="rotate(-26.24 7.197 22.395)"/><ellipse cx="4.12" cy="23.42" rx="2.53" ry=".33"/><ellipse cx="3.42" cy="22.07" rx=".33" ry=".91"/><ellipse cx="2.42" cy="22.27" rx=".16" ry=".91" transform="rotate(-26.24 2.408 22.274)"/><ellipse cx="1.92" cy="21.4" rx=".33" ry="2.53" transform="rotate(-48.8 1.92 21.405)"/><ellipse cx="8.03" cy="23.74" rx=".33" ry="2.53" transform="rotate(-48.8 8.026 23.736)"/><ellipse cx="5.64" cy="24.29" rx=".16" ry=".91" transform="rotate(-84.62 5.642 24.29)"/><ellipse cx="4.17" cy="24.81" rx=".91" ry=".33" transform="rotate(-43.38 4.168 24.808)"/><ellipse cx="2.09" cy="24.43" rx=".33" ry=".91" transform="rotate(-72.34 2.093 24.44)"/><ellipse cx="2.68" cy="25.36" rx=".91" ry=".16" transform="rotate(-4.11 2.718 25.352)"/><ellipse cx=".67" cy="24.22" rx=".91" ry=".16" transform="rotate(-87.7 .665 24.218)"/><ellipse cx="3.35" cy="26.34" rx="2.53" ry=".33"/><ellipse cx="15.6" cy="21.16" rx="2.53" ry=".33"/><ellipse cx="14.01" cy="22.38" rx=".33" ry=".91" transform="rotate(-67.3 14.013 22.379)"/><ellipse cx="15.98" cy="22.38" rx=".91" ry=".16" transform="rotate(-26.24 15.976 22.383)"/><ellipse cx="12.91" cy="23.42" rx="2.53" ry=".33"/><ellipse cx="12.21" cy="22.07" rx=".33" ry=".91"/><ellipse cx="11.21" cy="22.27" rx=".16" ry=".91" transform="rotate(-26.24 11.208 22.267)"/><ellipse cx="10.71" cy="21.4" rx=".33" ry="2.53" transform="rotate(-48.8 10.705 21.403)"/><ellipse cx="16.82" cy="23.74" rx=".33" ry="2.53" transform="rotate(-48.8 16.823 23.74)"/><ellipse cx="14.43" cy="24.29" rx=".16" ry=".91" transform="rotate(-84.62 14.429 24.293)"/><ellipse cx="12.95" cy="24.81" rx=".91" ry=".33" transform="rotate(-43.38 12.961 24.81)"/><ellipse cx="10.88" cy="24.43" rx=".33" ry=".91" transform="rotate(-72.34 10.882 24.432)"/><ellipse cx="11.47" cy="25.36" rx=".91" ry=".16" transform="rotate(-4.11 11.507 25.388)"/><ellipse cx="9.45" cy="24.22" rx=".91" ry=".16" transform="rotate(-87.7 9.455 24.215)"/><ellipse cx="12.14" cy="26.34" rx="2.53" ry=".33"/><ellipse cx="24.38" cy="21.16" rx="2.53" ry=".33"/><ellipse cx="22.8" cy="22.38" rx=".33" ry=".91" transform="rotate(-67.3 22.8 22.385)"/><ellipse cx="24.77" cy="22.38" rx=".91" ry=".16" transform="rotate(-26.24 24.77 22.397)"/><ellipse cx="21.7" cy="23.42" rx="2.53" ry=".33"/><ellipse cx="21" cy="22.07" rx=".33" ry=".91"/><ellipse cx="19.99" cy="22.27" rx=".16" ry=".91" transform="rotate(-26.24 20.003 22.281)"/><ellipse cx="19.49" cy="21.4" rx=".33" ry="2.53" transform="rotate(-48.8 19.491 21.401)"/><ellipse cx="25.61" cy="23.74" rx=".33" ry="2.53" transform="rotate(-48.8 25.608 23.737)"/><ellipse cx="23.22" cy="24.29" rx=".16" ry=".91" transform="rotate(-84.62 23.22 24.29)"/><ellipse cx="21.74" cy="24.81" rx=".91" ry=".33" transform="rotate(-43.38 21.741 24.809)"/><ellipse cx="19.67" cy="24.43" rx=".33" ry=".91" transform="rotate(-72.34 19.667 24.432)"/><ellipse cx="20.26" cy="25.36" rx=".91" ry=".16" transform="rotate(-4.11 20.3 25.285)"/><ellipse cx="18.24" cy="24.22" rx=".91" ry=".16" transform="rotate(-87.7 18.24 24.217)"/><ellipse cx="20.93" cy="26.34" rx="2.53" ry=".33"/><ellipse cx="33.17" cy="21.16" rx="2.53" ry=".33"/><ellipse cx="31.59" cy="22.38" rx=".33" ry=".91" transform="rotate(-67.3 31.591 22.384)"/><ellipse cx="33.56" cy="22.38" rx=".91" ry=".16" transform="rotate(-26.24 33.55 22.385)"/><ellipse cx="30.49" cy="23.42" rx="2.53" ry=".33"/><ellipse cx="29.79" cy="22.07" rx=".33" ry=".91"/><ellipse cx="28.78" cy="22.27" rx=".16" ry=".91" transform="rotate(-26.24 28.781 22.27)"/><ellipse cx="28.28" cy="21.4" rx=".33" ry="2.53" transform="rotate(-48.8 28.277 21.4)"/><ellipse cx="34.4" cy="23.74" rx=".33" ry="2.53" transform="rotate(-48.8 34.394 23.736)"/><ellipse cx="32.01" cy="24.29" rx=".16" ry=".91" transform="rotate(-84.62 32.006 24.292)"/><ellipse cx="30.53" cy="24.81" rx=".91" ry=".33" transform="rotate(-43.38 30.534 24.812)"/><ellipse cx="28.46" cy="24.43" rx=".33" ry=".91" transform="rotate(-72.34 28.458 24.436)"/><ellipse cx="29.05" cy="25.36" rx=".91" ry=".16" transform="rotate(-4.11 29.09 25.321)"/><ellipse cx="27.03" cy="24.22" rx=".91" ry=".16" transform="rotate(-87.7 27.03 24.214)"/><ellipse cx="29.71" cy="26.34" rx="2.53" ry=".33"/><ellipse cx="41.96" cy="21.16" rx="2.53" ry=".33"/><ellipse cx="40.38" cy="22.38" rx=".33" ry=".91" transform="rotate(-67.3 40.383 22.383)"/><ellipse cx="42.34" cy="22.38" rx=".91" ry=".16" transform="rotate(-26.24 42.35 22.378)"/><ellipse cx="39.28" cy="23.42" rx="2.53" ry=".33"/><ellipse cx="38.58" cy="22.07" rx=".33" ry=".91"/><ellipse cx="37.57" cy="22.27" rx=".16" ry=".91" transform="rotate(-26.24 37.581 22.262)"/><ellipse cx="37.07" cy="21.4" rx=".33" ry="2.53" transform="rotate(-48.8 37.063 21.398)"/><ellipse cx="43.18" cy="23.74" rx=".33" ry="2.53" transform="rotate(-48.8 43.175 23.745)"/><ellipse cx="40.8" cy="24.29" rx=".16" ry=".91" transform="rotate(-84.62 40.798 24.29)"/><ellipse cx="39.32" cy="24.81" rx=".91" ry=".33" transform="rotate(-43.38 39.314 24.81)"/><ellipse cx="37.25" cy="24.43" rx=".33" ry=".91" transform="rotate(-72.34 37.242 24.436)"/><ellipse cx="37.84" cy="25.36" rx=".91" ry=".16" transform="rotate(-4.11 37.739 25.353)"/><ellipse cx="35.82" cy="24.22" rx=".91" ry=".16" transform="rotate(-87.7 35.824 24.216)"/><ellipse cx="38.5" cy="26.34" rx="2.53" ry=".33"/><ellipse cx="50.75" cy="21.16" rx="2.53" ry=".33"/><ellipse cx="49.17" cy="22.38" rx=".33" ry=".91" transform="rotate(-67.3 49.162 22.384)"/><ellipse cx="51.13" cy="22.38" rx=".91" ry=".16" transform="rotate(-26.24 51.144 22.392)"/><ellipse cx="48.06" cy="23.42" rx="2.53" ry=".33"/><ellipse cx="47.37" cy="22.07" rx=".33" ry=".91"/><ellipse cx="46.36" cy="22.27" rx=".16" ry=".91" transform="rotate(-26.24 46.355 22.271)"/><ellipse cx="45.86" cy="21.4" rx=".33" ry="2.53" transform="rotate(-48.8 45.86 21.401)"/><ellipse cx="51.97" cy="23.74" rx=".33" ry="2.53" transform="rotate(-48.8 51.96 23.743)"/><ellipse cx="49.58" cy="24.29" rx=".16" ry=".91" transform="rotate(-84.62 49.584 24.292)"/><ellipse cx="48.11" cy="24.81" rx=".91" ry=".33" transform="rotate(-43.38 48.107 24.813)"/><ellipse cx="46.03" cy="24.43" rx=".33" ry=".91" transform="rotate(-72.34 46.034 24.44)"/><ellipse cx="46.63" cy="25.36" rx=".91" ry=".16" transform="rotate(-4.11 46.528 25.389)"/><ellipse cx="44.61" cy="24.22" rx=".91" ry=".16" transform="rotate(-87.7 44.61 24.219)"/><ellipse cx="47.29" cy="26.34" rx="2.53" ry=".33"/><ellipse cx="59.54" cy="21.16" rx="2.53" ry=".33"/><ellipse cx="57.96" cy="22.38" rx=".33" ry=".91" transform="rotate(-67.3 57.954 22.383)"/><ellipse cx="59.92" cy="22.38" rx=".91" ry=".16" transform="rotate(-26.24 59.923 22.38)"/><ellipse cx="56.85" cy="23.42" rx="2.53" ry=".33"/><ellipse cx="56.15" cy="22.07" rx=".33" ry=".91"/><ellipse cx="55.15" cy="22.27" rx=".16" ry=".91" transform="rotate(-26.24 55.155 22.264)"/><ellipse cx="54.65" cy="21.4" rx=".33" ry="2.53" transform="rotate(-48.8 54.64 21.41)"/><ellipse cx="60.76" cy="23.74" rx=".33" ry="2.53" transform="rotate(-48.8 60.758 23.747)"/><ellipse cx="58.37" cy="24.29" rx=".16" ry=".91" transform="rotate(-84.62 58.375 24.29)"/><ellipse cx="56.9" cy="24.81" rx=".91" ry=".33" transform="rotate(-43.38 56.887 24.81)"/><ellipse cx="54.82" cy="24.43" rx=".33" ry=".91" transform="rotate(-72.34 54.823 24.433)"/><ellipse cx="55.41" cy="25.36" rx=".91" ry=".16" transform="rotate(-4.11 55.321 25.286)"/><ellipse cx="53.4" cy="24.22" rx=".91" ry=".16" transform="rotate(-87.7 53.4 24.216)"/><ellipse cx="56.08" cy="26.34" rx="2.53" ry=".33"/><ellipse cx="68.33" cy="21.16" rx="2.53" ry=".33"/><ellipse cx="66.74" cy="22.38" rx=".33" ry=".91" transform="rotate(-67.3 66.74 22.39)"/><ellipse cx="68.71" cy="22.38" rx=".91" ry=".16" transform="rotate(-26.24 68.718 22.395)"/><ellipse cx="65.64" cy="23.42" rx="2.53" ry=".33"/><ellipse cx="64.94" cy="22.07" rx=".33" ry=".91"/><ellipse cx="63.94" cy="22.27" rx=".16" ry=".91" transform="rotate(-26.24 63.95 22.278)"/><ellipse cx="63.44" cy="21.4" rx=".33" ry="2.53" transform="rotate(-48.8 63.426 21.409)"/><ellipse cx="69.55" cy="23.74" rx=".33" ry="2.53" transform="rotate(-48.8 69.544 23.745)"/><ellipse cx="67.16" cy="24.29" rx=".16" ry=".91" transform="rotate(-84.62 67.162 24.292)"/><ellipse cx="65.68" cy="24.81" rx=".91" ry=".33" transform="rotate(-43.38 65.68 24.814)"/><ellipse cx="63.61" cy="24.43" rx=".33" ry=".91" transform="rotate(-72.34 63.607 24.432)"/><ellipse cx="64.2" cy="25.36" rx=".91" ry=".16" transform="rotate(-4.11 64.11 25.322)"/><ellipse cx="62.18" cy="24.22" rx=".91" ry=".16" transform="rotate(-87.7 62.184 24.218)"/><ellipse cx="64.87" cy="26.34" rx="2.53" ry=".33"/><ellipse cx="-1.98" cy="14.59" rx="2.53" ry=".33"/><ellipse cx="-3.56" cy="15.81" rx=".33" ry=".91" transform="rotate(-67.3 -3.563 15.807)"/><ellipse cx="-1.6" cy="15.81" rx=".91" ry=".16" transform="rotate(-26.24 -1.606 15.82)"/><ellipse cx="-4.67" cy="16.84" rx="2.53" ry=".33"/><ellipse cx="-5.36" cy="15.5" rx=".33" ry=".91"/><ellipse cx="-6.37" cy="15.7" rx=".16" ry=".91" transform="rotate(-26.24 -6.374 15.704)"/><ellipse cx="-6.87" cy="14.83" rx=".33" ry="2.53" transform="rotate(-48.8 -6.871 14.825)"/><ellipse cx="-.76" cy="17.17" rx=".33" ry="2.53" transform="rotate(-48.8 -.76 17.173)"/><ellipse cx="-3.15" cy="17.72" rx=".16" ry=".91" transform="rotate(-84.62 -3.143 17.72)"/><ellipse cx="-4.62" cy="18.24" rx=".91" ry=".33" transform="rotate(-43.38 -4.62 18.24)"/><ellipse cx="-6.7" cy="17.86" rx=".33" ry=".91" transform="rotate(-72.34 -6.695 17.857)"/><ellipse cx="-6.1" cy="18.78" rx=".91" ry=".16" transform="rotate(-4.11 -6.114 18.756)"/><ellipse cx="-8.12" cy="17.64" rx=".91" ry=".16" transform="rotate(-87.7 -8.124 17.646)"/><ellipse cx="-5.44" cy="19.77" rx="2.53" ry=".33"/><ellipse cx="6.81" cy="14.59" rx="2.53" ry=".33"/><ellipse cx="5.23" cy="15.81" rx=".33" ry=".91" transform="rotate(-67.3 5.224 15.813)"/><ellipse cx="7.19" cy="15.81" rx=".91" ry=".16" transform="rotate(-26.24 7.194 15.813)"/><ellipse cx="4.12" cy="16.84" rx="2.53" ry=".33"/><ellipse cx="3.42" cy="15.5" rx=".33" ry=".91"/><ellipse cx="2.42" cy="15.7" rx=".16" ry=".91" transform="rotate(-26.24 2.426 15.697)"/><ellipse cx="1.92" cy="14.83" rx=".33" ry="2.53" transform="rotate(-48.8 1.915 14.824)"/><ellipse cx="8.03" cy="17.17" rx=".33" ry="2.53" transform="rotate(-48.8 8.027 17.17)"/><ellipse cx="5.64" cy="17.72" rx=".16" ry=".91" transform="rotate(-84.62 5.644 17.723)"/><ellipse cx="4.17" cy="18.24" rx=".91" ry=".33" transform="rotate(-43.38 4.16 18.238)"/><ellipse cx="2.09" cy="17.86" rx=".33" ry=".91" transform="rotate(-72.34 2.096 17.862)"/><ellipse cx="2.68" cy="18.78" rx=".91" ry=".16" transform="rotate(-4.11 2.674 18.792)"/><ellipse cx=".67" cy="17.64" rx=".91" ry=".16" transform="rotate(-87.7 .666 17.643)"/><ellipse cx="3.35" cy="19.77" rx="2.53" ry=".33"/><ellipse cx="15.6" cy="14.59" rx="2.53" ry=".33"/><ellipse cx="14.01" cy="15.81" rx=".33" ry=".91" transform="rotate(-67.3 14.016 15.812)"/><ellipse cx="15.98" cy="15.81" rx=".91" ry=".16" transform="rotate(-26.24 15.993 15.806)"/><ellipse cx="12.91" cy="16.84" rx="2.53" ry=".33"/><ellipse cx="12.21" cy="15.5" rx=".33" ry=".91"/><ellipse cx="11.21" cy="15.7" rx=".16" ry=".91" transform="rotate(-26.24 11.2 15.706)"/><ellipse cx="10.71" cy="14.83" rx=".33" ry="2.53" transform="rotate(-48.8 10.706 14.838)"/><ellipse cx="16.82" cy="17.17" rx=".33" ry="2.53" transform="rotate(-48.8 16.813 17.17)"/><ellipse cx="14.43" cy="17.72" rx=".16" ry=".91" transform="rotate(-84.62 14.43 17.715)"/><ellipse cx="12.95" cy="18.24" rx=".91" ry=".33" transform="rotate(-43.38 12.953 18.241)"/><ellipse cx="10.88" cy="17.86" rx=".33" ry=".91" transform="rotate(-72.34 10.88 17.861)"/><ellipse cx="11.47" cy="18.78" rx=".91" ry=".16" transform="rotate(-4.11 11.463 18.829)"/><ellipse cx="9.45" cy="17.64" rx=".91" ry=".16" transform="rotate(-87.7 9.455 17.64)"/><ellipse cx="12.14" cy="19.77" rx="2.53" ry=".33"/><ellipse cx="24.38" cy="14.59" rx="2.53" ry=".33"/><ellipse cx="22.8" cy="15.81" rx=".33" ry=".91" transform="rotate(-67.3 22.807 15.81)"/><ellipse cx="24.77" cy="15.81" rx=".91" ry=".16" transform="rotate(-26.24 24.767 15.815)"/><ellipse cx="21.7" cy="16.84" rx="2.53" ry=".33"/><ellipse cx="21" cy="15.5" rx=".33" ry=".91"/><ellipse cx="19.99" cy="15.7" rx=".16" ry=".91" transform="rotate(-26.24 20 15.699)"/><ellipse cx="19.49" cy="14.83" rx=".33" ry="2.53" transform="rotate(-48.8 19.492 14.836)"/><ellipse cx="25.61" cy="17.17" rx=".33" ry="2.53" transform="rotate(-48.8 25.61 17.172)"/><ellipse cx="23.22" cy="17.72" rx=".16" ry=".91" transform="rotate(-84.62 23.216 17.717)"/><ellipse cx="21.74" cy="18.24" rx=".91" ry=".33" transform="rotate(-43.38 21.746 18.244)"/><ellipse cx="19.67" cy="17.86" rx=".33" ry=".91" transform="rotate(-72.34 19.664 17.86)"/><ellipse cx="20.26" cy="18.78" rx=".91" ry=".16" transform="rotate(-4.11 20.257 18.726)"/><ellipse cx="18.24" cy="17.64" rx=".91" ry=".16" transform="rotate(-87.7 18.24 17.642)"/><ellipse cx="20.93" cy="19.77" rx="2.53" ry=".33"/><ellipse cx="33.17" cy="14.59" rx="2.53" ry=".33"/><ellipse cx="31.59" cy="15.81" rx=".33" ry=".91" transform="rotate(-67.3 31.587 15.812)"/><ellipse cx="33.56" cy="15.81" rx=".91" ry=".16" transform="rotate(-26.24 33.567 15.808)"/><ellipse cx="30.49" cy="16.84" rx="2.53" ry=".33"/><ellipse cx="29.79" cy="15.5" rx=".33" ry=".91"/><ellipse cx="28.78" cy="15.7" rx=".16" ry=".91" transform="rotate(-26.24 28.778 15.687)"/><ellipse cx="28.28" cy="14.83" rx=".33" ry="2.53" transform="rotate(-48.8 28.278 14.834)"/><ellipse cx="34.4" cy="17.17" rx=".33" ry="2.53" transform="rotate(-48.8 34.395 17.17)"/><ellipse cx="32.01" cy="17.72" rx=".16" ry=".91" transform="rotate(-84.62 32.007 17.714)"/><ellipse cx="30.53" cy="18.24" rx=".91" ry=".33" transform="rotate(-43.38 30.526 18.242)"/><ellipse cx="28.46" cy="17.86" rx=".33" ry=".91" transform="rotate(-72.34 28.456 17.865)"/><ellipse cx="29.05" cy="18.78" rx=".91" ry=".16" transform="rotate(-4.11 29.046 18.762)"/><ellipse cx="27.03" cy="17.64" rx=".91" ry=".16" transform="rotate(-87.7 27.035 17.645)"/><ellipse cx="29.71" cy="19.77" rx="2.53" ry=".33"/><ellipse cx="41.96" cy="14.59" rx="2.53" ry=".33"/><ellipse cx="40.38" cy="15.81" rx=".33" ry=".91" transform="rotate(-67.3 40.378 15.81)"/><ellipse cx="42.34" cy="15.81" rx=".91" ry=".16" transform="rotate(-26.24 42.34 15.817)"/><ellipse cx="39.28" cy="16.84" rx="2.53" ry=".33"/><ellipse cx="38.58" cy="15.5" rx=".33" ry=".91"/><ellipse cx="37.57" cy="15.7" rx=".16" ry=".91" transform="rotate(-26.24 37.573 15.7)"/><ellipse cx="37.07" cy="14.83" rx=".33" ry="2.53" transform="rotate(-48.8 37.064 14.833)"/><ellipse cx="43.18" cy="17.17" rx=".33" ry="2.53" transform="rotate(-48.8 43.181 17.169)"/><ellipse cx="40.8" cy="17.72" rx=".16" ry=".91" transform="rotate(-84.62 40.794 17.717)"/><ellipse cx="39.32" cy="18.24" rx=".91" ry=".33" transform="rotate(-43.38 39.32 18.245)"/><ellipse cx="37.25" cy="17.86" rx=".33" ry=".91" transform="rotate(-72.34 37.245 17.858)"/><ellipse cx="37.84" cy="18.78" rx=".91" ry=".16" transform="rotate(-4.11 37.834 18.798)"/><ellipse cx="35.82" cy="17.64" rx=".91" ry=".16" transform="rotate(-87.7 35.82 17.647)"/><ellipse cx="38.5" cy="19.77" rx="2.53" ry=".33"/><ellipse cx="50.75" cy="14.59" rx="2.53" ry=".33"/><ellipse cx="49.17" cy="15.81" rx=".33" ry=".91" transform="rotate(-67.3 49.17 15.81)"/><ellipse cx="51.13" cy="15.81" rx=".91" ry=".16" transform="rotate(-26.24 51.14 15.81)"/><ellipse cx="48.06" cy="16.84" rx="2.53" ry=".33"/><ellipse cx="47.37" cy="15.5" rx=".33" ry=".91"/><ellipse cx="46.36" cy="15.7" rx=".16" ry=".91" transform="rotate(-26.24 46.372 15.694)"/><ellipse cx="45.86" cy="14.83" rx=".33" ry="2.53" transform="rotate(-48.8 45.85 14.83)"/><ellipse cx="51.97" cy="17.17" rx=".33" ry="2.53" transform="rotate(-48.8 51.967 17.167)"/><ellipse cx="49.58" cy="17.72" rx=".16" ry=".91" transform="rotate(-84.62 49.585 17.714)"/><ellipse cx="48.11" cy="18.24" rx=".91" ry=".33" transform="rotate(-43.38 48.1 18.243)"/><ellipse cx="46.03" cy="17.86" rx=".33" ry=".91" transform="rotate(-72.34 46.036 17.862)"/><ellipse cx="46.63" cy="18.78" rx=".91" ry=".16" transform="rotate(-4.11 46.623 18.835)"/><ellipse cx="44.61" cy="17.64" rx=".91" ry=".16" transform="rotate(-87.7 44.61 17.644)"/><ellipse cx="47.29" cy="19.77" rx="2.53" ry=".33"/><ellipse cx="59.54" cy="14.59" rx="2.53" ry=".33"/><ellipse cx="57.96" cy="15.81" rx=".33" ry=".91" transform="rotate(-67.3 57.95 15.811)"/><ellipse cx="59.92" cy="15.81" rx=".91" ry=".16" transform="rotate(-26.24 59.914 15.82)"/><ellipse cx="56.85" cy="16.84" rx="2.53" ry=".33"/><ellipse cx="56.15" cy="15.5" rx=".33" ry=".91"/><ellipse cx="55.15" cy="15.7" rx=".16" ry=".91" transform="rotate(-26.24 55.146 15.703)"/><ellipse cx="54.65" cy="14.83" rx=".33" ry="2.53" transform="rotate(-48.8 54.647 14.834)"/><ellipse cx="60.76" cy="17.17" rx=".33" ry="2.53" transform="rotate(-48.8 60.753 17.165)"/><ellipse cx="58.37" cy="17.72" rx=".16" ry=".91" transform="rotate(-84.62 58.372 17.717)"/><ellipse cx="56.9" cy="18.24" rx=".91" ry=".33" transform="rotate(-43.38 56.892 18.246)"/><ellipse cx="54.82" cy="17.86" rx=".33" ry=".91" transform="rotate(-72.34 54.82 17.862)"/><ellipse cx="55.41" cy="18.78" rx=".91" ry=".16" transform="rotate(-4.11 55.417 18.732)"/><ellipse cx="53.4" cy="17.64" rx=".91" ry=".16" transform="rotate(-87.7 53.4 17.641)"/><ellipse cx="56.08" cy="19.77" rx="2.53" ry=".33"/><ellipse cx="68.33" cy="14.59" rx="2.53" ry=".33"/><ellipse cx="66.74" cy="15.81" rx=".33" ry=".91" transform="rotate(-67.3 66.741 15.81)"/><ellipse cx="68.71" cy="15.81" rx=".91" ry=".16" transform="rotate(-26.24 68.714 15.812)"/><ellipse cx="65.64" cy="16.84" rx="2.53" ry=".33"/><ellipse cx="64.94" cy="15.5" rx=".33" ry=".91"/><ellipse cx="63.94" cy="15.7" rx=".16" ry=".91" transform="rotate(-26.24 63.946 15.696)"/><ellipse cx="63.44" cy="14.83" rx=".33" ry="2.53" transform="rotate(-48.8 63.432 14.832)"/><ellipse cx="69.55" cy="17.17" rx=".33" ry="2.53" transform="rotate(-48.8 69.539 17.164)"/><ellipse cx="67.16" cy="17.72" rx=".16" ry=".91" transform="rotate(-84.62 67.163 17.714)"/><ellipse cx="65.68" cy="18.24" rx=".91" ry=".33" transform="rotate(-43.38 65.685 18.25)"/><ellipse cx="63.61" cy="17.86" rx=".33" ry=".91" transform="rotate(-72.34 63.605 17.861)"/><ellipse cx="64.2" cy="18.78" rx=".91" ry=".16" transform="rotate(-4.11 64.206 18.768)"/><ellipse cx="62.18" cy="17.64" rx=".91" ry=".16" transform="rotate(-87.7 62.185 17.643)"/><ellipse cx="64.87" cy="19.77" rx="2.53" ry=".33"/><ellipse cx="-1.98" cy="8.02" rx="2.53" ry=".33"/><ellipse cx="-3.56" cy="9.24" rx=".33" ry=".91" transform="rotate(-67.3 -3.56 9.24)"/><ellipse cx="-1.6" cy="9.24" rx=".91" ry=".16" transform="rotate(-26.24 -1.589 9.242)"/><ellipse cx="-4.67" cy="10.27" rx="2.53" ry=".33"/><ellipse cx="-5.36" cy="8.93" rx=".33" ry=".91"/><ellipse cx="-6.37" cy="9.13" rx=".16" ry=".91" transform="rotate(-26.24 -6.378 9.121)"/><ellipse cx="-6.87" cy="8.26" rx=".33" ry="2.53" transform="rotate(-48.8 -6.87 8.26)"/><ellipse cx="-.76" cy="10.6" rx=".33" ry="2.53" transform="rotate(-48.8 -.753 10.596)"/><ellipse cx="-3.15" cy="11.15" rx=".16" ry=".91" transform="rotate(-84.62 -3.146 11.148)"/><ellipse cx="-4.62" cy="11.67" rx=".91" ry=".33" transform="rotate(-43.38 -4.627 11.67)"/><ellipse cx="-6.7" cy="11.29" rx=".33" ry=".91" transform="rotate(-72.34 -6.698 11.286)"/><ellipse cx="-6.1" cy="12.21" rx=".91" ry=".16" transform="rotate(-4.11 -6.158 12.197)"/><ellipse cx="-8.12" cy="11.07" rx=".91" ry=".16" transform="rotate(-87.7 -8.124 11.071)"/><ellipse cx="-5.44" cy="13.2" rx="2.53" ry=".33"/><ellipse cx="6.81" cy="8.02" rx="2.53" ry=".33"/><ellipse cx="5.23" cy="9.24" rx=".33" ry=".91" transform="rotate(-67.3 5.224 9.234)"/><ellipse cx="7.19" cy="9.24" rx=".91" ry=".16" transform="rotate(-26.24 7.19 9.23)"/><ellipse cx="4.12" cy="10.27" rx="2.53" ry=".33"/><ellipse cx="3.42" cy="8.93" rx=".33" ry=".91"/><ellipse cx="2.42" cy="9.13" rx=".16" ry=".91" transform="rotate(-26.24 2.417 9.135)"/><ellipse cx="1.92" cy="8.26" rx=".33" ry="2.53" transform="rotate(-48.8 1.916 8.258)"/><ellipse cx="8.03" cy="10.6" rx=".33" ry="2.53" transform="rotate(-48.8 8.033 10.595)"/><ellipse cx="5.64" cy="11.15" rx=".16" ry=".91" transform="rotate(-84.62 5.645 11.145)"/><ellipse cx="4.17" cy="11.67" rx=".91" ry=".33" transform="rotate(-43.38 4.165 11.674)"/><ellipse cx="2.09" cy="11.29" rx=".33" ry=".91" transform="rotate(-72.34 2.093 11.29)"/><ellipse cx="2.68" cy="12.21" rx=".91" ry=".16" transform="rotate(-4.11 2.63 12.233)"/><ellipse cx=".67" cy="11.07" rx=".91" ry=".16" transform="rotate(-87.7 .666 11.068)"/><ellipse cx="3.35" cy="13.2" rx="2.53" ry=".33"/><ellipse cx="15.6" cy="8.02" rx="2.53" ry=".33"/><ellipse cx="14.01" cy="9.24" rx=".33" ry=".91" transform="rotate(-67.3 14.011 9.24)"/><ellipse cx="15.98" cy="9.24" rx=".91" ry=".16" transform="rotate(-26.24 15.985 9.244)"/><ellipse cx="12.91" cy="10.27" rx="2.53" ry=".33"/><ellipse cx="12.21" cy="8.93" rx=".33" ry=".91"/><ellipse cx="11.21" cy="9.13" rx=".16" ry=".91" transform="rotate(-26.24 11.217 9.128)"/><ellipse cx="10.71" cy="8.26" rx=".33" ry="2.53" transform="rotate(-48.8 10.701 8.257)"/><ellipse cx="16.82" cy="10.6" rx=".33" ry="2.53" transform="rotate(-48.8 16.819 10.593)"/><ellipse cx="14.43" cy="11.15" rx=".16" ry=".91" transform="rotate(-84.62 14.431 11.147)"/><ellipse cx="12.95" cy="11.67" rx=".91" ry=".33" transform="rotate(-43.38 12.946 11.672)"/><ellipse cx="10.88" cy="11.29" rx=".33" ry=".91" transform="rotate(-72.34 10.878 11.29)"/><ellipse cx="11.47" cy="12.21" rx=".91" ry=".16" transform="rotate(-4.11 11.424 12.13)"/><ellipse cx="9.45" cy="11.07" rx=".91" ry=".16" transform="rotate(-87.7 9.451 11.07)"/><ellipse cx="12.14" cy="13.2" rx="2.53" ry=".33"/><ellipse cx="24.38" cy="8.02" rx="2.53" ry=".33"/><ellipse cx="22.8" cy="9.24" rx=".33" ry=".91" transform="rotate(-67.3 22.803 9.239)"/><ellipse cx="24.77" cy="9.24" rx=".91" ry=".16" transform="rotate(-26.24 24.763 9.232)"/><ellipse cx="21.7" cy="10.27" rx="2.53" ry=".33"/><ellipse cx="21" cy="8.93" rx=".33" ry=".91"/><ellipse cx="19.99" cy="9.13" rx=".16" ry=".91" transform="rotate(-26.24 19.995 9.116)"/><ellipse cx="19.49" cy="8.26" rx=".33" ry="2.53" transform="rotate(-48.8 19.498 8.26)"/><ellipse cx="25.61" cy="10.6" rx=".33" ry="2.53" transform="rotate(-48.8 25.604 10.591)"/><ellipse cx="23.22" cy="11.15" rx=".16" ry=".91" transform="rotate(-84.62 23.223 11.144)"/><ellipse cx="21.74" cy="11.67" rx=".91" ry=".33" transform="rotate(-43.38 21.743 11.662)"/><ellipse cx="19.67" cy="11.29" rx=".33" ry=".91" transform="rotate(-72.34 19.669 11.294)"/><ellipse cx="20.26" cy="12.21" rx=".91" ry=".16" transform="rotate(-4.11 20.213 12.166)"/><ellipse cx="18.24" cy="11.07" rx=".91" ry=".16" transform="rotate(-87.7 18.241 11.068)"/><ellipse cx="20.93" cy="13.2" rx="2.53" ry=".33"/><ellipse cx="33.17" cy="8.02" rx="2.53" ry=".33"/><ellipse cx="31.59" cy="9.24" rx=".33" ry=".91" transform="rotate(-67.3 31.595 9.238)"/><ellipse cx="33.56" cy="9.24" rx=".91" ry=".16" transform="rotate(-26.24 33.558 9.246)"/><ellipse cx="30.49" cy="10.27" rx="2.53" ry=".33"/><ellipse cx="29.79" cy="8.93" rx=".33" ry=".91"/><ellipse cx="28.78" cy="9.13" rx=".16" ry=".91" transform="rotate(-26.24 28.79 9.13)"/><ellipse cx="28.28" cy="8.26" rx=".33" ry="2.53" transform="rotate(-48.8 28.284 8.258)"/><ellipse cx="34.4" cy="10.6" rx=".33" ry="2.53" transform="rotate(-48.8 34.39 10.59)"/><ellipse cx="32.01" cy="11.15" rx=".16" ry=".91" transform="rotate(-84.62 32.01 11.147)"/><ellipse cx="30.53" cy="11.67" rx=".91" ry=".33" transform="rotate(-43.38 30.536 11.665)"/><ellipse cx="28.46" cy="11.29" rx=".33" ry=".91" transform="rotate(-72.34 28.458 11.287)"/><ellipse cx="29.05" cy="12.21" rx=".91" ry=".16" transform="rotate(-4.11 29.002 12.203)"/><ellipse cx="27.03" cy="11.07" rx=".91" ry=".16" transform="rotate(-87.7 27.036 11.07)"/><ellipse cx="29.71" cy="13.2" rx="2.53" ry=".33"/><ellipse cx="41.96" cy="8.02" rx="2.53" ry=".33"/><ellipse cx="40.38" cy="9.24" rx=".33" ry=".91" transform="rotate(-67.3 40.374 9.239)"/><ellipse cx="42.34" cy="9.24" rx=".91" ry=".16" transform="rotate(-26.24 42.358 9.24)"/><ellipse cx="39.28" cy="10.27" rx="2.53" ry=".33"/><ellipse cx="38.58" cy="8.93" rx=".33" ry=".91"/><ellipse cx="37.57" cy="9.13" rx=".16" ry=".91" transform="rotate(-26.24 37.569 9.118)"/><ellipse cx="37.07" cy="8.26" rx=".33" ry="2.53" transform="rotate(-48.8 37.07 8.257)"/><ellipse cx="43.18" cy="10.6" rx=".33" ry="2.53" transform="rotate(-48.8 43.182 10.604)"/><ellipse cx="40.8" cy="11.15" rx=".16" ry=".91" transform="rotate(-84.62 40.8 11.144)"/><ellipse cx="39.32" cy="11.67" rx=".91" ry=".33" transform="rotate(-43.38 39.316 11.663)"/><ellipse cx="37.25" cy="11.29" rx=".33" ry=".91" transform="rotate(-72.34 37.243 11.286)"/><ellipse cx="37.84" cy="12.21" rx=".91" ry=".16" transform="rotate(-4.11 37.79 12.239)"/><ellipse cx="35.82" cy="11.07" rx=".91" ry=".16" transform="rotate(-87.7 35.82 11.072)"/><ellipse cx="38.5" cy="13.2" rx="2.53" ry=".33"/><ellipse cx="50.75" cy="8.02" rx="2.53" ry=".33"/><ellipse cx="49.17" cy="9.24" rx=".33" ry=".91" transform="rotate(-67.3 49.166 9.238)"/><ellipse cx="51.13" cy="9.24" rx=".91" ry=".16" transform="rotate(-26.24 51.132 9.249)"/><ellipse cx="48.06" cy="10.27" rx="2.53" ry=".33"/><ellipse cx="47.37" cy="8.93" rx=".33" ry=".91"/><ellipse cx="46.36" cy="9.13" rx=".16" ry=".91" transform="rotate(-26.24 46.364 9.133)"/><ellipse cx="45.86" cy="8.26" rx=".33" ry="2.53" transform="rotate(-48.8 45.856 8.255)"/><ellipse cx="51.97" cy="10.6" rx=".33" ry="2.53" transform="rotate(-48.8 51.968 10.602)"/><ellipse cx="49.58" cy="11.15" rx=".16" ry=".91" transform="rotate(-84.62 49.587 11.147)"/><ellipse cx="48.11" cy="11.67" rx=".91" ry=".33" transform="rotate(-43.38 48.11 11.666)"/><ellipse cx="46.03" cy="11.29" rx=".33" ry=".91" transform="rotate(-72.34 46.034 11.29)"/><ellipse cx="46.63" cy="12.21" rx=".91" ry=".16" transform="rotate(-4.11 46.585 12.136)"/><ellipse cx="44.61" cy="11.07" rx=".91" ry=".16" transform="rotate(-87.7 44.61 11.07)"/><ellipse cx="47.29" cy="13.2" rx="2.53" ry=".33"/><ellipse cx="59.54" cy="8.02" rx="2.53" ry=".33"/><ellipse cx="57.96" cy="9.24" rx=".33" ry=".91" transform="rotate(-67.3 57.957 9.237)"/><ellipse cx="59.92" cy="9.24" rx=".91" ry=".16" transform="rotate(-26.24 59.932 9.241)"/><ellipse cx="56.85" cy="10.27" rx="2.53" ry=".33"/><ellipse cx="56.15" cy="8.93" rx=".33" ry=".91"/><ellipse cx="55.15" cy="9.13" rx=".16" ry=".91" transform="rotate(-26.24 55.142 9.12)"/><ellipse cx="54.65" cy="8.26" rx=".33" ry="2.53" transform="rotate(-48.8 54.637 8.264)"/><ellipse cx="60.76" cy="10.6" rx=".33" ry="2.53" transform="rotate(-48.8 60.754 10.6)"/><ellipse cx="58.37" cy="11.15" rx=".16" ry=".91" transform="rotate(-84.62 58.378 11.144)"/><ellipse cx="56.9" cy="11.67" rx=".91" ry=".33" transform="rotate(-43.38 56.89 11.664)"/><ellipse cx="54.82" cy="11.29" rx=".33" ry=".91" transform="rotate(-72.34 54.818 11.29)"/><ellipse cx="55.41" cy="12.21" rx=".91" ry=".16" transform="rotate(-4.11 55.373 12.172)"/><ellipse cx="53.4" cy="11.07" rx=".91" ry=".16" transform="rotate(-87.7 53.396 11.072)"/><ellipse cx="56.08" cy="13.2" rx="2.53" ry=".33"/><ellipse cx="68.33" cy="8.02" rx="2.53" ry=".33"/><ellipse cx="66.74" cy="9.24" rx=".33" ry=".91" transform="rotate(-67.3 66.744 9.243)"/><ellipse cx="68.71" cy="9.24" rx=".91" ry=".16" transform="rotate(-26.24 68.71 9.23)"/><ellipse cx="65.64" cy="10.27" rx="2.53" ry=".33"/><ellipse cx="64.94" cy="8.93" rx=".33" ry=".91"/><ellipse cx="63.94" cy="9.13" rx=".16" ry=".91" transform="rotate(-26.24 63.937 9.135)"/><ellipse cx="63.44" cy="8.26" rx=".33" ry="2.53" transform="rotate(-48.8 63.422 8.262)"/><ellipse cx="69.55" cy="10.6" rx=".33" ry="2.53" transform="rotate(-48.8 69.54 10.599)"/><ellipse cx="67.16" cy="11.15" rx=".16" ry=".91" transform="rotate(-84.62 67.165 11.146)"/><ellipse cx="65.68" cy="11.67" rx=".91" ry=".33" transform="rotate(-43.38 65.682 11.667)"/><ellipse cx="63.61" cy="11.29" rx=".33" ry=".91" transform="rotate(-72.34 63.61 11.295)"/><ellipse cx="64.2" cy="12.21" rx=".91" ry=".16" transform="rotate(-4.11 64.162 12.209)"/><ellipse cx="62.18" cy="11.07" rx=".91" ry=".16" transform="rotate(-87.7 62.186 11.069)"/><ellipse cx="64.87" cy="13.2" rx="2.53" ry=".33"/><ellipse cx="-1.98" cy="1.44" rx="2.53" ry=".33"/><ellipse cx="-3.56" cy="2.67" rx=".33" ry=".91" transform="rotate(-67.3 -3.564 2.668)"/><ellipse cx="-1.6" cy="2.67" rx=".91" ry=".16" transform="rotate(-26.24 -1.592 2.66)"/><ellipse cx="-4.67" cy="3.7" rx="2.53" ry=".33"/><ellipse cx="-5.36" cy="2.36" rx=".33" ry=".91"/><ellipse cx="-6.37" cy="2.55" rx=".16" ry=".91" transform="rotate(-26.24 -6.365 2.565)"/><ellipse cx="-6.87" cy="1.69" rx=".33" ry="2.53" transform="rotate(-48.8 -6.864 1.684)"/><ellipse cx="-.76" cy="4.02" rx=".33" ry="2.53" transform="rotate(-48.8 -.763 4.026)"/><ellipse cx="-3.15" cy="4.57" rx=".16" ry=".91" transform="rotate(-84.62 -3.145 4.57)"/><ellipse cx="-4.62" cy="5.1" rx=".91" ry=".33" transform="rotate(-43.38 -4.618 5.094)"/><ellipse cx="-6.7" cy="4.72" rx=".33" ry=".91" transform="rotate(-72.34 -6.693 4.72)"/><ellipse cx="-6.1" cy="5.64" rx=".91" ry=".16" transform="rotate(-4.11 -6.063 5.643)"/><ellipse cx="-8.12" cy="4.5" rx=".91" ry=".16" transform="rotate(-87.7 -8.123 4.497)"/><ellipse cx="-5.44" cy="6.62" rx="2.53" ry=".33"/><ellipse cx="6.81" cy="1.44" rx="2.53" ry=".33"/><ellipse cx="5.23" cy="2.67" rx=".33" ry=".91" transform="rotate(-67.3 5.227 2.667)"/><ellipse cx="7.19" cy="2.67" rx=".91" ry=".16" transform="rotate(-26.24 7.181 2.669)"/><ellipse cx="4.12" cy="3.7" rx="2.53" ry=".33"/><ellipse cx="3.42" cy="2.36" rx=".33" ry=".91"/><ellipse cx="2.42" cy="2.55" rx=".16" ry=".91" transform="rotate(-26.24 2.413 2.553)"/><ellipse cx="1.92" cy="1.69" rx=".33" ry="2.53" transform="rotate(-48.8 1.922 1.682)"/><ellipse cx="8.03" cy="4.02" rx=".33" ry="2.53" transform="rotate(-48.8 8.034 4.03)"/><ellipse cx="5.64" cy="4.57" rx=".16" ry=".91" transform="rotate(-84.62 5.641 4.572)"/><ellipse cx="4.17" cy="5.1" rx=".91" ry=".33" transform="rotate(-43.38 4.163 5.092)"/><ellipse cx="2.09" cy="4.72" rx=".33" ry=".91" transform="rotate(-72.34 2.091 4.72)"/><ellipse cx="2.68" cy="5.64" rx=".91" ry=".16" transform="rotate(-4.11 2.726 5.679)"/><ellipse cx=".67" cy="4.5" rx=".91" ry=".16" transform="rotate(-87.7 .667 4.494)"/><ellipse cx="3.35" cy="6.62" rx="2.53" ry=".33"/><ellipse cx="15.6" cy="1.44" rx="2.53" ry=".33"/><ellipse cx="14.01" cy="2.67" rx=".33" ry=".91" transform="rotate(-67.3 14.02 2.666)"/><ellipse cx="15.98" cy="2.67" rx=".91" ry=".16" transform="rotate(-26.24 15.981 2.662)"/><ellipse cx="12.91" cy="3.7" rx="2.53" ry=".33"/><ellipse cx="12.21" cy="2.36" rx=".33" ry=".91"/><ellipse cx="11.21" cy="2.55" rx=".16" ry=".91" transform="rotate(-26.24 11.213 2.546)"/><ellipse cx="10.71" cy="1.69" rx=".33" ry="2.53" transform="rotate(-48.8 10.702 1.692)"/><ellipse cx="16.82" cy="4.02" rx=".33" ry="2.53" transform="rotate(-48.8 16.82 4.028)"/><ellipse cx="14.43" cy="4.57" rx=".16" ry=".91" transform="rotate(-84.62 14.433 4.57)"/><ellipse cx="12.95" cy="5.1" rx=".91" ry=".33" transform="rotate(-43.38 12.955 5.095)"/><ellipse cx="10.88" cy="4.72" rx=".33" ry=".91" transform="rotate(-72.34 10.88 4.712)"/><ellipse cx="11.47" cy="5.64" rx=".91" ry=".16" transform="rotate(-4.11 11.52 5.576)"/><ellipse cx="9.45" cy="4.5" rx=".91" ry=".16" transform="rotate(-87.7 9.452 4.496)"/><ellipse cx="12.14" cy="6.62" rx="2.53" ry=".33"/><ellipse cx="24.38" cy="1.44" rx="2.53" ry=".33"/><ellipse cx="22.8" cy="2.67" rx=".33" ry=".91" transform="rotate(-67.3 22.798 2.667)"/><ellipse cx="24.77" cy="2.67" rx=".91" ry=".16" transform="rotate(-26.24 24.776 2.676)"/><ellipse cx="21.7" cy="3.7" rx="2.53" ry=".33"/><ellipse cx="21" cy="2.36" rx=".33" ry=".91"/><ellipse cx="19.99" cy="2.55" rx=".16" ry=".91" transform="rotate(-26.24 19.987 2.555)"/><ellipse cx="19.49" cy="1.69" rx=".33" ry="2.53" transform="rotate(-48.8 19.488 1.69)"/><ellipse cx="25.61" cy="4.02" rx=".33" ry="2.53" transform="rotate(-48.8 25.605 4.026)"/><ellipse cx="23.22" cy="4.57" rx=".16" ry=".91" transform="rotate(-84.62 23.219 4.572)"/><ellipse cx="21.74" cy="5.1" rx=".91" ry=".33" transform="rotate(-43.38 21.736 5.093)"/><ellipse cx="19.67" cy="4.72" rx=".33" ry=".91" transform="rotate(-72.34 19.672 4.716)"/><ellipse cx="20.26" cy="5.64" rx=".91" ry=".16" transform="rotate(-4.11 20.309 5.612)"/><ellipse cx="18.24" cy="4.5" rx=".91" ry=".16" transform="rotate(-87.7 18.247 4.498)"/><ellipse cx="20.93" cy="6.62" rx="2.53" ry=".33"/><ellipse cx="33.17" cy="1.44" rx="2.53" ry=".33"/><ellipse cx="31.59" cy="2.67" rx=".33" ry=".91" transform="rotate(-67.3 31.59 2.666)"/><ellipse cx="33.56" cy="2.67" rx=".91" ry=".16" transform="rotate(-26.24 33.554 2.664)"/><ellipse cx="30.49" cy="3.7" rx="2.53" ry=".33"/><ellipse cx="29.79" cy="2.36" rx=".33" ry=".91"/><ellipse cx="28.78" cy="2.55" rx=".16" ry=".91" transform="rotate(-26.24 28.787 2.548)"/><ellipse cx="28.28" cy="1.69" rx=".33" ry="2.53" transform="rotate(-48.8 28.274 1.688)"/><ellipse cx="34.4" cy="4.02" rx=".33" ry="2.53" transform="rotate(-48.8 34.391 4.024)"/><ellipse cx="32.01" cy="4.57" rx=".16" ry=".91" transform="rotate(-84.62 32.01 4.57)"/><ellipse cx="30.53" cy="5.1" rx=".91" ry=".33" transform="rotate(-43.38 30.528 5.096)"/><ellipse cx="28.46" cy="4.72" rx=".33" ry=".91" transform="rotate(-72.34 28.456 4.716)"/><ellipse cx="29.05" cy="5.64" rx=".91" ry=".16" transform="rotate(-4.11 28.958 5.643)"/><ellipse cx="27.03" cy="4.5" rx=".91" ry=".16" transform="rotate(-87.7 27.032 4.5)"/><ellipse cx="29.71" cy="6.62" rx="2.53" ry=".33"/><ellipse cx="41.96" cy="1.44" rx="2.53" ry=".33"/><ellipse cx="40.38" cy="2.67" rx=".33" ry=".91" transform="rotate(-67.3 40.382 2.665)"/><ellipse cx="42.34" cy="2.67" rx=".91" ry=".16" transform="rotate(-26.24 42.354 2.657)"/><ellipse cx="39.28" cy="3.7" rx="2.53" ry=".33"/><ellipse cx="38.58" cy="2.36" rx=".33" ry=".91"/><ellipse cx="37.57" cy="2.55" rx=".16" ry=".91" transform="rotate(-26.24 37.581 2.562)"/><ellipse cx="37.07" cy="1.69" rx=".33" ry="2.53" transform="rotate(-48.8 37.07 1.691)"/><ellipse cx="43.18" cy="4.02" rx=".33" ry="2.53" transform="rotate(-48.8 43.177 4.023)"/><ellipse cx="40.8" cy="4.57" rx=".16" ry=".91" transform="rotate(-84.62 40.797 4.572)"/><ellipse cx="39.32" cy="5.1" rx=".91" ry=".33" transform="rotate(-43.38 39.321 5.099)"/><ellipse cx="37.25" cy="4.72" rx=".33" ry=".91" transform="rotate(-72.34 37.247 4.72)"/><ellipse cx="37.84" cy="5.64" rx=".91" ry=".16" transform="rotate(-4.11 37.747 5.68)"/><ellipse cx="35.82" cy="4.5" rx=".91" ry=".16" transform="rotate(-87.7 35.822 4.498)"/><ellipse cx="38.5" cy="6.62" rx="2.53" ry=".33"/><ellipse cx="50.75" cy="1.44" rx="2.53" ry=".33"/><ellipse cx="49.17" cy="2.67" rx=".33" ry=".91" transform="rotate(-67.3 49.168 2.671)"/><ellipse cx="51.13" cy="2.67" rx=".91" ry=".16" transform="rotate(-26.24 51.128 2.666)"/><ellipse cx="48.06" cy="3.7" rx="2.53" ry=".33"/><ellipse cx="47.37" cy="2.36" rx=".33" ry=".91"/><ellipse cx="46.36" cy="2.55" rx=".16" ry=".91" transform="rotate(-26.24 46.36 2.55)"/><ellipse cx="45.86" cy="1.69" rx=".33" ry="2.53" transform="rotate(-48.8 45.857 1.69)"/><ellipse cx="51.97" cy="4.02" rx=".33" ry="2.53" transform="rotate(-48.8 51.974 4.026)"/><ellipse cx="49.58" cy="4.57" rx=".16" ry=".91" transform="rotate(-84.62 49.583 4.574)"/><ellipse cx="48.11" cy="5.1" rx=".91" ry=".33" transform="rotate(-43.38 48.101 5.097)"/><ellipse cx="46.03" cy="4.72" rx=".33" ry=".91" transform="rotate(-72.34 46.032 4.72)"/><ellipse cx="46.63" cy="5.64" rx=".91" ry=".16" transform="rotate(-4.11 46.54 5.577)"/><ellipse cx="44.61" cy="4.5" rx=".91" ry=".16" transform="rotate(-87.7 44.607 4.5)"/><ellipse cx="47.29" cy="6.62" rx="2.53" ry=".33"/><ellipse cx="59.54" cy="1.44" rx="2.53" ry=".33"/><ellipse cx="57.96" cy="2.67" rx=".33" ry=".91" transform="rotate(-67.3 57.953 2.665)"/><ellipse cx="59.92" cy="2.67" rx=".91" ry=".16" transform="rotate(-26.24 59.928 2.659)"/><ellipse cx="56.85" cy="3.7" rx="2.53" ry=".33"/><ellipse cx="56.15" cy="2.36" rx=".33" ry=".91"/><ellipse cx="55.15" cy="2.55" rx=".16" ry=".91" transform="rotate(-26.24 55.16 2.543)"/><ellipse cx="54.65" cy="1.69" rx=".33" ry="2.53" transform="rotate(-48.8 54.643 1.688)"/><ellipse cx="60.76" cy="4.02" rx=".33" ry="2.53" transform="rotate(-48.8 60.76 4.024)"/><ellipse cx="58.37" cy="4.57" rx=".16" ry=".91" transform="rotate(-84.62 58.374 4.571)"/><ellipse cx="56.9" cy="5.1" rx=".91" ry=".33" transform="rotate(-43.38 56.894 5.1)"/><ellipse cx="54.82" cy="4.72" rx=".33" ry=".91" transform="rotate(-72.34 54.816 4.719)"/><ellipse cx="55.41" cy="5.64" rx=".91" ry=".16" transform="rotate(-4.11 55.33 5.613)"/><ellipse cx="53.4" cy="4.5" rx=".91" ry=".16" transform="rotate(-87.7 53.396 4.497)"/><ellipse cx="56.08" cy="6.62" rx="2.53" ry=".33"/><ellipse cx="68.33" cy="1.44" rx="2.53" ry=".33"/><ellipse cx="66.74" cy="2.67" rx=".33" ry=".91" transform="rotate(-67.3 66.74 2.671)"/><ellipse cx="68.71" cy="2.67" rx=".91" ry=".16" transform="rotate(-26.24 68.723 2.673)"/><ellipse cx="65.64" cy="3.7" rx="2.53" ry=".33"/><ellipse cx="64.94" cy="2.36" rx=".33" ry=".91"/><ellipse cx="63.94" cy="2.55" rx=".16" ry=".91" transform="rotate(-26.24 63.933 2.552)"/><ellipse cx="63.44" cy="1.69" rx=".33" ry="2.53" transform="rotate(-48.8 63.428 1.686)"/><ellipse cx="69.55" cy="4.02" rx=".33" ry="2.53" transform="rotate(-48.8 69.545 4.023)"/><ellipse cx="67.16" cy="4.57" rx=".16" ry=".91" transform="rotate(-84.62 67.16 4.574)"/><ellipse cx="65.68" cy="5.1" rx=".91" ry=".33" transform="rotate(-43.38 65.674 5.098)"/><ellipse cx="63.61" cy="4.72" rx=".33" ry=".91" transform="rotate(-72.34 63.612 4.717)"/><ellipse cx="64.2" cy="5.64" rx=".91" ry=".16" transform="rotate(-4.11 64.119 5.65)"/><ellipse cx="62.18" cy="4.5" rx=".91" ry=".16" transform="rotate(-87.7 62.186 4.494)"/><ellipse cx="64.87" cy="6.62" rx="2.53" ry=".33"/><ellipse cx="-1.98" cy="-5.13" rx="2.53" ry=".33"/><ellipse cx="-3.56" cy="-3.91" rx=".33" ry=".91" transform="rotate(-67.3 -3.556 -3.907)"/><ellipse cx="-1.6" cy="-3.91" rx=".91" ry=".16" transform="rotate(-26.24 -1.601 -3.902)"/><ellipse cx="-4.67" cy="-2.87" rx="2.53" ry=".33"/><ellipse cx="-5.36" cy="-4.22" rx=".33" ry=".91"/><ellipse cx="-6.37" cy="-4.02" rx=".16" ry=".91" transform="rotate(-26.24 -6.37 -4.018)"/><ellipse cx="-6.87" cy="-4.89" rx=".33" ry="2.53" transform="rotate(-48.8 -6.874 -4.886)"/><ellipse cx="-.76" cy="-2.55" rx=".33" ry="2.53" transform="rotate(-48.8 -.757 -2.55)"/><ellipse cx="-3.15" cy="-2" rx=".16" ry=".91" transform="rotate(-84.62 -3.144 -1.998)"/><ellipse cx="-4.62" cy="-1.48" rx=".91" ry=".33" transform="rotate(-43.38 -4.625 -1.476)"/><ellipse cx="-6.7" cy="-1.86" rx=".33" ry=".91" transform="rotate(-72.34 -6.696 -1.852)"/><ellipse cx="-6.1" cy="-.93" rx=".91" ry=".16" transform="rotate(-4.11 -6.106 -.917)"/><ellipse cx="-8.12" cy="-2.07" rx=".91" ry=".16" transform="rotate(-87.7 -8.122 -2.078)"/><ellipse cx="-5.44" cy=".05" rx="2.53" ry=".33"/><ellipse cx="6.81" cy="-5.13" rx="2.53" ry=".33"/><ellipse cx="5.23" cy="-3.91" rx=".33" ry=".91" transform="rotate(-67.3 5.223 -3.905)"/><ellipse cx="7.19" cy="-3.91" rx=".91" ry=".16" transform="rotate(-26.24 7.199 -3.909)"/><ellipse cx="4.12" cy="-2.87" rx="2.53" ry=".33"/><ellipse cx="3.42" cy="-4.22" rx=".33" ry=".91"/><ellipse cx="2.42" cy="-4.02" rx=".16" ry=".91" transform="rotate(-26.24 2.41 -4.03)"/><ellipse cx="1.92" cy="-4.89" rx=".33" ry="2.53" transform="rotate(-48.8 1.923 -4.883)"/><ellipse cx="8.03" cy="-2.55" rx=".33" ry="2.53" transform="rotate(-48.8 8.029 -2.551)"/><ellipse cx="5.64" cy="-2" rx=".16" ry=".91" transform="rotate(-84.62 5.643 -1.995)"/><ellipse cx="4.17" cy="-1.48" rx=".91" ry=".33" transform="rotate(-43.38 4.167 -1.473)"/><ellipse cx="2.09" cy="-1.86" rx=".33" ry=".91" transform="rotate(-72.34 2.094 -1.859)"/><ellipse cx="2.68" cy="-.93" rx=".91" ry=".16" transform="rotate(-4.11 2.683 -.88)"/><ellipse cx=".67" cy="-2.07" rx=".91" ry=".16" transform="rotate(-87.7 .663 -2.076)"/><ellipse cx="3.35" cy=".05" rx="2.53" ry=".33"/><ellipse cx="15.6" cy="-5.13" rx="2.53" ry=".33"/><ellipse cx="14.01" cy="-3.91" rx=".33" ry=".91" transform="rotate(-67.3 14.014 -3.906)"/><ellipse cx="15.98" cy="-3.91" rx=".91" ry=".16" transform="rotate(-26.24 15.972 -3.9)"/><ellipse cx="12.91" cy="-2.87" rx="2.53" ry=".33"/><ellipse cx="12.21" cy="-4.22" rx=".33" ry=".91"/><ellipse cx="11.21" cy="-4.02" rx=".16" ry=".91" transform="rotate(-26.24 11.204 -4.016)"/><ellipse cx="10.71" cy="-4.89" rx=".33" ry="2.53" transform="rotate(-48.8 10.708 -4.884)"/><ellipse cx="16.82" cy="-2.55" rx=".33" ry="2.53" transform="rotate(-48.8 16.814 -2.553)"/><ellipse cx="14.43" cy="-2" rx=".16" ry=".91" transform="rotate(-84.62 14.429 -2.003)"/><ellipse cx="12.95" cy="-1.48" rx=".91" ry=".33" transform="rotate(-43.38 12.948 -1.475)"/><ellipse cx="10.88" cy="-1.86" rx=".33" ry=".91" transform="rotate(-72.34 10.885 -1.855)"/><ellipse cx="11.47" cy="-.93" rx=".91" ry=".16" transform="rotate(-4.11 11.476 -.983)"/><ellipse cx="9.45" cy="-2.07" rx=".91" ry=".16" transform="rotate(-87.7 9.458 -2.073)"/><ellipse cx="12.14" cy=".05" rx="2.53" ry=".33"/><ellipse cx="24.38" cy="-5.13" rx="2.53" ry=".33"/><ellipse cx="22.8" cy="-3.91" rx=".33" ry=".91" transform="rotate(-67.3 22.806 -3.908)"/><ellipse cx="24.77" cy="-3.91" rx=".91" ry=".16" transform="rotate(-26.24 24.772 -3.907)"/><ellipse cx="21.7" cy="-2.87" rx="2.53" ry=".33"/><ellipse cx="21" cy="-4.22" rx=".33" ry=".91"/><ellipse cx="19.99" cy="-4.02" rx=".16" ry=".91" transform="rotate(-26.24 20.004 -4.023)"/><ellipse cx="19.49" cy="-4.89" rx=".33" ry="2.53" transform="rotate(-48.8 19.494 -4.886)"/><ellipse cx="25.61" cy="-2.55" rx=".33" ry="2.53" transform="rotate(-48.8 25.611 -2.55)"/><ellipse cx="23.22" cy="-2" rx=".16" ry=".91" transform="rotate(-84.62 23.215 -2)"/><ellipse cx="21.74" cy="-1.48" rx=".91" ry=".33" transform="rotate(-43.38 21.74 -1.472)"/><ellipse cx="19.67" cy="-1.86" rx=".33" ry=".91" transform="rotate(-72.34 19.67 -1.855)"/><ellipse cx="20.26" cy="-.93" rx=".91" ry=".16" transform="rotate(-4.11 20.265 -.947)"/><ellipse cx="18.24" cy="-2.07" rx=".91" ry=".16" transform="rotate(-87.7 18.243 -2.071)"/><ellipse cx="20.93" cy=".05" rx="2.53" ry=".33"/><ellipse cx="33.17" cy="-5.13" rx="2.53" ry=".33"/><ellipse cx="31.59" cy="-3.91" rx=".33" ry=".91" transform="rotate(-67.3 31.593 -3.901)"/><ellipse cx="33.56" cy="-3.91" rx=".91" ry=".16" transform="rotate(-26.24 33.55 -3.919)"/><ellipse cx="30.49" cy="-2.87" rx="2.53" ry=".33"/><ellipse cx="29.79" cy="-4.22" rx=".33" ry=".91"/><ellipse cx="28.78" cy="-4.02" rx=".16" ry=".91" transform="rotate(-26.24 28.778 -4.013)"/><ellipse cx="28.28" cy="-4.89" rx=".33" ry="2.53" transform="rotate(-48.8 28.28 -4.888)"/><ellipse cx="34.4" cy="-2.55" rx=".33" ry="2.53" transform="rotate(-48.8 34.397 -2.552)"/><ellipse cx="32.01" cy="-2" rx=".16" ry=".91" transform="rotate(-84.62 32.006 -2.003)"/><ellipse cx="30.53" cy="-1.48" rx=".91" ry=".33" transform="rotate(-43.38 30.533 -1.469)"/><ellipse cx="28.46" cy="-1.86" rx=".33" ry=".91" transform="rotate(-72.34 28.454 -1.856)"/><ellipse cx="29.05" cy="-.93" rx=".91" ry=".16" transform="rotate(-4.11 29.054 -.91)"/><ellipse cx="27.03" cy="-2.07" rx=".91" ry=".16" transform="rotate(-87.7 27.033 -2.074)"/><ellipse cx="29.71" cy=".05" rx="2.53" ry=".33"/><ellipse cx="41.96" cy="-5.13" rx="2.53" ry=".33"/><ellipse cx="40.38" cy="-3.91" rx=".33" ry=".91" transform="rotate(-67.3 40.377 -3.907)"/><ellipse cx="42.34" cy="-3.91" rx=".91" ry=".16" transform="rotate(-26.24 42.346 -3.904)"/><ellipse cx="39.28" cy="-2.87" rx="2.53" ry=".33"/><ellipse cx="38.58" cy="-4.22" rx=".33" ry=".91"/><ellipse cx="37.57" cy="-4.02" rx=".16" ry=".91" transform="rotate(-26.24 37.578 -4.02)"/><ellipse cx="37.07" cy="-4.89" rx=".33" ry="2.53" transform="rotate(-48.8 37.066 -4.89)"/><ellipse cx="43.18" cy="-2.55" rx=".33" ry="2.53" transform="rotate(-48.8 43.178 -2.542)"/><ellipse cx="40.8" cy="-2" rx=".16" ry=".91" transform="rotate(-84.62 40.793 -2)"/><ellipse cx="39.32" cy="-1.48" rx=".91" ry=".33" transform="rotate(-43.38 39.318 -1.483)"/><ellipse cx="37.25" cy="-1.86" rx=".33" ry=".91" transform="rotate(-72.34 37.245 -1.851)"/><ellipse cx="37.84" cy="-.93" rx=".91" ry=".16" transform="rotate(-4.11 37.843 -.875)"/><ellipse cx="35.82" cy="-2.07" rx=".91" ry=".16" transform="rotate(-87.7 35.822 -2.077)"/><ellipse cx="38.5" cy=".05" rx="2.53" ry=".33"/><ellipse cx="50.75" cy="-5.13" rx="2.53" ry=".33"/><ellipse cx="49.17" cy="-3.91" rx=".33" ry=".91" transform="rotate(-67.3 49.169 -3.908)"/><ellipse cx="51.13" cy="-3.91" rx=".91" ry=".16" transform="rotate(-26.24 51.146 -3.912)"/><ellipse cx="48.06" cy="-2.87" rx="2.53" ry=".33"/><ellipse cx="47.37" cy="-4.22" rx=".33" ry=".91"/><ellipse cx="46.36" cy="-4.02" rx=".16" ry=".91" transform="rotate(-26.24 46.356 -4.033)"/><ellipse cx="45.86" cy="-4.89" rx=".33" ry="2.53" transform="rotate(-48.8 45.863 -4.886)"/><ellipse cx="51.97" cy="-2.55" rx=".33" ry="2.53" transform="rotate(-48.8 51.964 -2.544)"/><ellipse cx="49.58" cy="-2" rx=".16" ry=".91" transform="rotate(-84.62 49.584 -2.004)"/><ellipse cx="48.11" cy="-1.48" rx=".91" ry=".33" transform="rotate(-43.38 48.111 -1.48)"/><ellipse cx="46.03" cy="-1.86" rx=".33" ry=".91" transform="rotate(-72.34 46.034 -1.859)"/><ellipse cx="46.63" cy="-.93" rx=".91" ry=".16" transform="rotate(-4.11 46.637 -.978)"/><ellipse cx="44.61" cy="-2.07" rx=".91" ry=".16" transform="rotate(-87.7 44.607 -2.075)"/><ellipse cx="47.29" cy=".05" rx="2.53" ry=".33"/><ellipse cx="59.54" cy="-5.13" rx="2.53" ry=".33"/><ellipse cx="57.96" cy="-3.91" rx=".33" ry=".91" transform="rotate(-67.3 57.956 -3.902)"/><ellipse cx="59.92" cy="-3.91" rx=".91" ry=".16" transform="rotate(-26.24 59.919 -3.902)"/><ellipse cx="56.85" cy="-2.87" rx="2.53" ry=".33"/><ellipse cx="56.15" cy="-4.22" rx=".33" ry=".91"/><ellipse cx="55.15" cy="-4.02" rx=".16" ry=".91" transform="rotate(-26.24 55.151 -4.018)"/><ellipse cx="54.65" cy="-4.89" rx=".33" ry="2.53" transform="rotate(-48.8 54.644 -4.877)"/><ellipse cx="60.76" cy="-2.55" rx=".33" ry="2.53" transform="rotate(-48.8 60.75 -2.546)"/><ellipse cx="58.37" cy="-2" rx=".16" ry=".91" transform="rotate(-84.62 58.37 -2.001)"/><ellipse cx="56.9" cy="-1.48" rx=".91" ry=".33" transform="rotate(-43.38 56.891 -1.482)"/><ellipse cx="54.82" cy="-1.86" rx=".33" ry=".91" transform="rotate(-72.34 54.825 -1.854)"/><ellipse cx="55.41" cy="-.93" rx=".91" ry=".16" transform="rotate(-4.11 55.425 -.941)"/><ellipse cx="53.4" cy="-2.07" rx=".91" ry=".16" transform="rotate(-87.7 53.397 -2.077)"/><ellipse cx="56.08" cy=".05" rx="2.53" ry=".33"/><ellipse cx="68.33" cy="-5.13" rx="2.53" ry=".33"/><ellipse cx="66.74" cy="-3.91" rx=".33" ry=".91" transform="rotate(-67.3 66.74 -3.908)"/><ellipse cx="68.71" cy="-3.91" rx=".91" ry=".16" transform="rotate(-26.24 68.719 -3.91)"/><ellipse cx="65.64" cy="-2.87" rx="2.53" ry=".33"/><ellipse cx="64.94" cy="-4.22" rx=".33" ry=".91"/><ellipse cx="63.94" cy="-4.02" rx=".16" ry=".91" transform="rotate(-26.24 63.951 -4.026)"/><ellipse cx="63.44" cy="-4.89" rx=".33" ry="2.53" transform="rotate(-48.8 63.43 -4.879)"/><ellipse cx="69.55" cy="-2.55" rx=".33" ry="2.53" transform="rotate(-48.8 69.546 -2.543)"/><ellipse cx="67.16" cy="-2" rx=".16" ry=".91" transform="rotate(-84.62 67.162 -2.004)"/><ellipse cx="65.68" cy="-1.48" rx=".91" ry=".33" transform="rotate(-43.38 65.684 -1.48)"/><ellipse cx="63.61" cy="-1.86" rx=".33" ry=".91" transform="rotate(-72.34 63.61 -1.855)"/><ellipse cx="64.2" cy="-.93" rx=".91" ry=".16" transform="rotate(-4.11 64.075 -.91)"/><ellipse cx="62.18" cy="-2.07" rx=".91" ry=".16" transform="rotate(-87.7 62.182 -2.075)"/><ellipse cx="64.87" cy=".05" rx="2.53" ry=".33"/></g></pattern></defs><g id="uuid-4a864595-16f4-422d-b166-3f3535cc9e2c"><g id="uuid-7e336147-1c67-48bc-9b40-85286192cef3"><path d="M12.57 99.6C6.72 99.6 1.81 99 .4 98.12V1.21c0-.33.74-.82 1.89-.82h20.56c1.15 0 1.89.48 1.89.82v96.91c-1.41.88-6.32 1.48-12.17 1.48Z" fill="url(#uuid-371614c4-ec85-4702-9419-92816cd041f9)" stroke-width="0"/><path d="M22.85.8c.89 0 1.44.33 1.49.42v96.67c-1.38.68-5.63 1.32-11.77 1.32S2.18 98.57.8 97.89V1.26C.86 1.13 1.4.8 2.29.8h20.56m0-.8H2.29C1.03 0 0 .55 0 1.21v97.11C1.4 99.44 6.98 100 12.57 100s11.17-.56 12.57-1.68V1.21C25.14.54 24.11 0 22.85 0Z" fill="#f2bc79" stroke-width="0"/><path d="M12.57 99.6C6.72 99.6 1.81 99 .4 98.12V1.21c0-.33.74-.82 1.89-.82h20.56c1.15 0 1.89.48 1.89.82v96.91c-1.41.88-6.32 1.48-12.17 1.48Z" fill="url(#uuid-a1bd55ad-676d-45dd-a832-cada09add45b)" stroke-width="0" opacity=".3"/></g><g id="uuid-948a99cd-026c-4401-b6f3-18f6e0642364" opacity=".3" fill="#292425" stroke-width="0"><path d="M12.57 99.6C6.72 99.6 1.81 99 .4 98.12V1.21c0-.33.74-.82 1.89-.82h20.56c1.15 0 1.89.48 1.89.82v96.91c-1.41.88-6.32 1.48-12.17 1.48Z"/><path d="M22.85.8c.89 0 1.44.33 1.49.42v96.67c-1.38.68-5.63 1.32-11.77 1.32S2.18 98.57.8 97.89V1.26C.86 1.13 1.4.8 2.29.8h20.56m0-.8H2.29C1.03 0 0 .55 0 1.21v97.11C1.4 99.44 6.98 100 12.57 100s11.17-.56 12.57-1.68V1.21C25.14.54 24.11 0 22.85 0Z"/></g></g></svg>