<svg id="uuid-ee1369ce-250e-48e2-ba49-45e5414c4f4a" xmlns="http://www.w3.org/2000/svg" viewBox="0 0 385.917 100"><defs><linearGradient id="uuid-fe7c65ef-d6c3-43ba-96f7-2f75b56c19e3" x1=".382" y1="50" x2="385.534" y2="50" gradientUnits="userSpaceOnUse"><stop offset="0" stop-color="#260101"/><stop offset=".485" stop-color="#3c2213"/><stop offset="1" stop-color="#260101"/></linearGradient><style>.uuid-303c1f09-530a-4abe-bb49-3a8a8a468358{fill:#260101;stroke-width:0}.uuid-35ac412b-9732-4723-9d0e-0af09bf223f9{opacity:.2}</style></defs><path fill="url(#uuid-fe7c65ef-d6c3-43ba-96f7-2f75b56c19e3)" stroke-width="0" d="M.382.382h385.153v99.236H.382z"/><path class="uuid-303c1f09-530a-4abe-bb49-3a8a8a468358" d="M385.153.763v98.474H.763V.763h384.39m.764-.763H0v100h385.917V0Z"/><g class="uuid-35ac412b-9732-4723-9d0e-0af09bf223f9"><path class="uuid-303c1f09-530a-4abe-bb49-3a8a8a468358" d="M0 74.276c23.837-2.073 48.41-2.691 72.36-2.939 24.142-.527 48.244 1.67 72.359 2.107 32.171.591 64.312-2.063 96.479-2.33 48.208-1.04 96.604-.336 144.719 3.162v.749c-48.116 3.498-96.511 4.202-144.72 3.162-32.166-.266-64.307-2.921-96.478-2.33-24.115.436-48.218 2.634-72.36 2.107-5.952-.035-18.154-.243-24.12-.414a938.273 938.273 0 0 1-24.12-.908C16.08 76.249 8.04 75.759 0 75.025v-.749ZM43.712 56.605c91.129-.156 218.962-2.254 308.75 0v.234c-89.146 2.019-218.769.603-308.75-.234ZM0 94.1c11.137-1.032 22.575-1.344 33.754-1.47 11.264-.25 22.506.819 33.754 1.05 15.005.307 30.006-1.047 45.006-1.153 22.524-.518 45.012-.176 67.508 1.573v.374c-22.496 1.748-44.984 2.09-67.508 1.573-15-.106-30.001-1.46-45.006-1.153-11.248.23-22.49 1.299-33.754 1.05-2.786-.019-8.462-.121-11.251-.207C15.002 95.503 7.5 95.188 0 94.474V94.1ZM205.13 50.006c11.137-1.032 22.575-1.344 33.755-1.47 11.263-.25 22.505.819 33.754 1.05 15.004.307 30.006-1.047 45.005-1.153 22.524-.518 45.012-.176 67.508 1.573v.374c-22.496 1.748-44.984 2.09-67.508 1.573-15-.106-30-1.46-45.005-1.154-11.249.232-22.49 1.3-33.754 1.05-2.786-.018-8.462-.12-11.252-.206-7.5-.234-15.002-.549-22.502-1.263v-.374ZM70.703 86.486c91.128-.155 218.962-2.254 308.75 0v.234c-89.147 2.02-218.77.603-308.75-.234ZM0 42.671c23.837-2.074 48.41-2.692 72.36-2.939 24.142-.527 48.244 1.67 72.359 2.107 32.171.591 64.312-2.064 96.479-2.33 48.208-1.04 96.604-.336 144.719 3.162v.748c-48.116 3.499-96.511 4.202-144.72 3.163-32.166-.267-64.307-2.921-96.478-2.33-24.115.436-48.218 2.633-72.36 2.106-5.952-.034-18.154-.242-24.12-.413a938.265 938.265 0 0 1-24.12-.908C16.08 44.643 8.04 44.154 0 43.419v-.748ZM.484 67.634c11.136-1.032 22.574-1.345 33.754-1.47 11.263-.25 22.505.819 33.754 1.05 15.005.306 30.006-1.047 45.005-1.153 22.525-.518 45.012-.176 67.509 1.572v.375c-22.497 1.748-44.984 2.09-67.509 1.572-14.999-.105-30-1.46-45.005-1.153-11.249.232-22.49 1.3-33.754 1.05a621.43 621.43 0 0 1-11.252-.207c-7.5-.233-15.001-.548-22.502-1.262v-.374Z"/></g><g class="uuid-35ac412b-9732-4723-9d0e-0af09bf223f9"><path class="uuid-303c1f09-530a-4abe-bb49-3a8a8a468358" d="M0 40.231c23.837-2.074 48.41-2.692 72.36-2.939 24.142-.527 48.244 1.67 72.359 2.107 32.171.591 64.312-2.064 96.479-2.33 48.208-1.04 96.604-.336 144.719 3.162v.748c-48.116 3.499-96.511 4.202-144.72 3.163-32.166-.267-64.307-2.921-96.478-2.33-24.115.436-48.218 2.634-72.36 2.106-5.952-.034-18.154-.242-24.12-.413a938.28 938.28 0 0 1-24.12-.908C16.08 42.203 8.04 41.714 0 40.979v-.748ZM33.454 22.56c91.129-.156 218.962-2.254 308.75 0v.234c-89.146 2.018-218.769.603-308.75-.235ZM205.895 60.055c11.137-1.032 22.574-1.344 33.754-1.47 11.263-.25 22.505.819 33.754 1.05 15.005.306 30.006-1.047 45.005-1.153 22.525-.518 45.012-.176 67.509 1.573v.374c-22.497 1.748-44.984 2.09-67.509 1.572-14.999-.105-30-1.459-45.005-1.153-11.249.232-22.49 1.3-33.754 1.05-2.786-.018-8.462-.12-11.252-.207-7.5-.233-15.001-.548-22.502-1.262v-.374ZM.764 15.96c11.137-1.03 22.575-1.343 33.754-1.469 11.264-.25 22.506.819 33.754 1.05 15.005.306 30.007-1.047 45.006-1.153 22.524-.518 45.012-.176 67.508 1.573v.374c-22.496 1.748-44.984 2.09-67.508 1.572-15-.105-30-1.46-45.006-1.153-11.248.232-22.49 1.3-33.754 1.05a621.48 621.48 0 0 1-11.251-.207c-7.501-.233-15.002-.548-22.503-1.262v-.374ZM6.464 52.44c91.128-.155 218.961-2.253 308.75 0v.235c-89.147 2.019-218.77.603-308.75-.234ZM0 8.626c23.837-2.074 48.41-2.692 72.36-2.94 24.142-.526 48.244 1.671 72.359 2.107 32.171.592 64.312-2.063 96.479-2.33 48.208-1.039 96.604-.335 144.719 3.163v.748c-48.116 3.499-96.511 4.202-144.72 3.162-32.166-.266-64.307-2.92-96.478-2.33-24.115.437-48.218 2.634-72.36 2.107-5.952-.034-18.154-.243-24.12-.413a938.287 938.287 0 0 1-24.12-.909C16.08 10.598 8.04 10.11 0 9.374v-.748ZM205.411 33.588c11.137-1.031 22.575-1.344 33.754-1.47 11.264-.249 22.506.82 33.754 1.05 15.005.307 30.006-1.047 45.006-1.152 22.524-.518 45.012-.176 67.508 1.572v.374c-22.496 1.749-44.984 2.09-67.508 1.573-15-.106-30.001-1.46-45.006-1.153-11.248.231-22.49 1.3-33.754 1.05-2.786-.018-8.462-.12-11.251-.207-7.501-.234-15.002-.549-22.503-1.263v-.374Z"/></g></svg>