<svg id="uuid-17122dd1-0082-4108-905c-2c54a3f5420d" xmlns="http://www.w3.org/2000/svg" viewBox="0 0 260.868 100"><defs><linearGradient id="uuid-848859ed-2b5b-4646-bde9-eeb1c28e93ae" x1=".314" y1="50" x2="260.554" y2="50" gradientUnits="userSpaceOnUse"><stop offset="0" stop-color="#260101"/><stop offset=".485" stop-color="#3c2213"/><stop offset="1" stop-color="#260101"/></linearGradient><style>.uuid-5832d1ea-c96e-4a5a-b6b3-77162ac3769d{fill:#260101;stroke-width:0}.uuid-e4f9ed77-2ca2-44f5-b42f-853b5d475ebf{opacity:.2}</style></defs><path fill="url(#uuid-848859ed-2b5b-4646-bde9-eeb1c28e93ae)" stroke-width="0" d="M.314.314h260.24v99.373H.314z"/><path class="uuid-5832d1ea-c96e-4a5a-b6b3-77162ac3769d" d="M260.24.628v98.744H.628V.628H260.24m.628-.628H0v100h260.868V0Z"/><g class="uuid-e4f9ed77-2ca2-44f5-b42f-853b5d475ebf"><path class="uuid-5832d1ea-c96e-4a5a-b6b3-77162ac3769d" d="M0 74.343c16.133-1.696 32.707-2.21 48.913-2.416 16.326-.434 32.613 1.373 48.912 1.731 21.75.487 43.471-1.696 65.217-1.915 32.596-.855 65.323-.275 97.826 2.6v.615c-32.503 2.875-65.23 3.455-97.826 2.6-21.746-.219-43.466-2.401-65.217-1.915-16.299.358-32.586 2.165-48.912 1.732-4.015-.029-12.279-.2-16.305-.34C21.74 76.65 10.87 76.132 0 74.958v-.615ZM29.548 56.625c61.6-.127 148.015-1.852 208.705 0v.193c-60.232 1.66-147.973.495-208.705-.193ZM0 94.133c10.12-1.063 20.266-1.38 30.422-1.126 5.07.193 10.141.695 15.211.781 10.144.251 20.284-.85 30.423-.955 15.232-.423 30.429-.132 45.633 1.3v.308c-15.204 1.432-30.4 1.723-45.633 1.3-10.139-.105-20.279-1.206-30.423-.955-10.133.424-20.266 1.269-30.422.693-5.07-.192-10.14-.451-15.211-1.038v-.308ZM138.662 50.04c10.12-1.064 20.266-1.38 30.422-1.127 5.07.193 10.14.695 15.211.781 10.144.25 20.284-.85 30.423-.955 15.232-.423 30.429-.132 45.633 1.3v.308c-15.204 1.432-30.4 1.723-45.633 1.3-10.139-.105-20.279-1.206-30.423-.955-10.133.424-20.266 1.269-30.422.693-5.07-.192-10.14-.451-15.211-1.038v-.308ZM47.793 86.507c61.6-.128 148.014-1.853 208.705 0v.192c-60.232 1.66-147.973.496-208.705-.192ZM0 42.738c16.133-1.696 32.707-2.21 48.913-2.417 16.326-.433 32.613 1.374 48.912 1.732 21.75.486 43.471-1.696 65.217-1.915 32.596-.856 65.323-.275 97.826 2.6v.615c-32.503 2.875-65.23 3.455-97.826 2.6-21.746-.22-43.466-2.402-65.217-1.915-16.299.358-32.586 2.164-48.912 1.731-4.015-.028-12.279-.2-16.305-.34C21.74 45.045 10.87 44.527 0 43.353v-.615ZM.327 67.667c10.12-1.064 20.266-1.38 30.422-1.127 5.07.193 10.141.696 15.211.782 10.144.25 20.284-.85 30.423-.955 15.232-.423 30.429-.133 45.633 1.3v.307c-15.204 1.433-30.4 1.723-45.633 1.3-10.139-.104-20.279-1.205-30.423-.955-10.133.424-20.266 1.27-30.422.693-5.07-.192-10.14-.45-15.211-1.038v-.307Z"/></g><g class="uuid-e4f9ed77-2ca2-44f5-b42f-853b5d475ebf"><path class="uuid-5832d1ea-c96e-4a5a-b6b3-77162ac3769d" d="M0 40.298c16.133-1.696 32.707-2.21 48.913-2.417 16.326-.433 32.613 1.374 48.912 1.732 21.75.486 43.471-1.696 65.217-1.915 32.596-.856 65.323-.275 97.826 2.6v.615c-32.503 2.875-65.23 3.455-97.826 2.6-21.746-.22-43.466-2.402-65.217-1.915-16.299.358-32.586 2.164-48.912 1.731a792.54 792.54 0 0 1-16.305-.34C21.74 42.605 10.87 42.087 0 40.913v-.615ZM22.614 22.58c61.6-.128 148.014-1.853 208.705 0v.193c-60.232 1.66-147.973.495-208.705-.193ZM139.178 60.088c10.12-1.064 20.266-1.38 30.423-1.127 5.07.194 10.14.696 15.21.782 10.145.25 20.285-.85 30.423-.955 15.233-.423 30.43-.133 45.634 1.3v.308c-15.205 1.432-30.401 1.722-45.634 1.3-10.138-.105-20.278-1.206-30.422-.956-10.134.425-20.266 1.27-30.422.693-5.07-.192-10.141-.45-15.212-1.037v-.308ZM.517 15.994c10.12-1.064 20.265-1.38 30.422-1.127 5.07.194 10.14.696 15.211.782 10.144.25 20.284-.85 30.422-.955 15.233-.423 30.43-.133 45.634 1.3v.307c-15.205 1.433-30.401 1.723-45.634 1.3-10.138-.104-20.278-1.205-30.422-.955-10.133.425-20.266 1.27-30.422.693-5.07-.192-10.141-.45-15.211-1.038v-.307ZM4.37 52.462c61.6-.128 148.014-1.853 208.704 0v.192c-60.232 1.66-147.973.495-208.705-.192ZM0 8.692c16.133-1.695 32.707-2.21 48.913-2.416 16.326-.433 32.613 1.374 48.912 1.732 21.75.486 43.471-1.696 65.217-1.915 32.596-.856 65.323-.275 97.826 2.6v.615c-32.503 2.874-65.23 3.455-97.826 2.6-21.746-.22-43.466-2.402-65.217-1.916-16.299.358-32.586 2.165-48.912 1.732-4.015-.028-12.279-.2-16.305-.34C21.74 10.999 10.87 10.482 0 9.308v-.616ZM138.851 33.622c10.12-1.064 20.266-1.38 30.423-1.127 5.07.193 10.14.695 15.21.782 10.145.25 20.285-.85 30.423-.955 15.233-.423 30.43-.133 45.634 1.3v.307c-15.205 1.433-30.401 1.723-45.634 1.3-10.138-.105-20.278-1.206-30.422-.955-10.134.424-20.266 1.27-30.422.693-5.07-.192-10.141-.45-15.212-1.038v-.307Z"/></g></svg>