<svg id="uuid-d1828330-1cf5-444d-9d33-07f864b807f7" xmlns="http://www.w3.org/2000/svg" viewBox="0 0 167.109 100"><defs><linearGradient id="uuid-c1a35db7-73df-441f-971c-fe9bf6c84616" x1=".251" y1="50" x2="166.857" y2="50" gradientUnits="userSpaceOnUse"><stop offset="0" stop-color="#260101"/><stop offset=".485" stop-color="#3c2213"/><stop offset="1" stop-color="#260101"/></linearGradient><style>.uuid-bbb7542b-613d-4649-934e-e82588a11bca{fill:#260101;stroke-width:0}.uuid-15cf333d-8013-49fa-aea2-409841044cc9{opacity:.2}</style></defs><path fill="url(#uuid-c1a35db7-73df-441f-971c-fe9bf6c84616)" stroke-width="0" d="M.251.251h166.606v99.498H.251z"/><path class="uuid-bbb7542b-613d-4649-934e-e82588a11bca" d="M166.606.502v98.996H.502V.502h166.104M167.11 0H0v100h167.109V0Z"/><g class="uuid-15cf333d-8013-49fa-aea2-409841044cc9"><path class="uuid-bbb7542b-613d-4649-934e-e82588a11bca" d="M0 83.968c13.906-1.22 27.836-1.592 41.777-1.296 6.963.218 13.926.79 20.889.9 13.928.289 27.854-.992 41.777-1.091 20.91-.49 41.783-.167 62.666 1.487v.354c-20.883 1.653-41.757 1.977-62.666 1.487-13.923-.1-27.849-1.38-41.777-1.09-13.919.5-27.838 1.456-41.777.797-6.963-.221-13.926-.519-20.889-1.194v-.354ZM18.928 74.83c39.46-.075 94.815-1.066 133.694-.001v.11c-38.594.955-94.756.286-133.694-.11ZM0 94.199c9.732-1.002 19.49-.718 29.232-.199 9.745.042 19.483-.813 29.232-.656 6.497.074 12.993.296 19.489.855v.176c-9.741.82-19.477.994-29.233.744-6.494-.063-12.99-.684-19.488-.545-6.492.247-12.985.726-19.488.398-3.248-.098-6.496-.279-9.744-.597V94.2ZM88.825 71.424c9.732-1.002 19.49-.718 29.232-.198 9.745.041 19.483-.814 29.233-.657 6.496.075 12.992.297 19.488.855v.177c-9.741.82-19.477.993-29.232.743-6.495-.062-12.991-.683-19.489-.545-6.492.248-12.984.726-19.488.399-3.248-.099-6.496-.28-9.744-.597v-.177ZM30.616 90.263c39.46-.074 94.815-1.066 133.694 0v.11c-38.595.955-94.756.286-133.694-.11ZM0 67.644c13.906-1.22 27.836-1.593 41.777-1.296 6.963.218 13.926.79 20.889.899 13.928.29 27.854-.99 41.777-1.09 20.91-.49 41.783-.167 62.666 1.487v.354c-20.883 1.653-41.757 1.977-62.666 1.487-13.923-.1-27.849-1.38-41.777-1.09-13.919.5-27.838 1.456-41.777.797-6.963-.221-13.926-.52-20.889-1.194v-.354ZM.21 80.529c9.732-1.002 19.49-.718 29.232-.199 9.744.042 19.482-.813 29.232-.656 6.496.074 12.992.296 19.488.855v.177c-9.74.819-19.477.993-29.232.743-6.495-.063-12.99-.683-19.488-.545-6.493.247-12.985.726-19.488.399-3.248-.099-6.497-.28-9.745-.597v-.177Z"/></g><g class="uuid-15cf333d-8013-49fa-aea2-409841044cc9"><path class="uuid-bbb7542b-613d-4649-934e-e82588a11bca" d="M0 29.798c10.335-1.106 20.95-1.442 31.333-1.576 10.46-.273 20.892.893 31.333 1.126 13.933.327 27.846-1.12 41.777-1.237 20.906-.556 41.82-.19 62.666 1.687v.401c-20.846 1.877-41.76 2.243-62.666 1.687-13.93-.117-27.844-1.563-41.777-1.237-10.441.234-20.874 1.4-31.333 1.127-2.582-.02-7.858-.13-10.444-.222-6.963-.25-13.926-.589-20.889-1.355v-.4ZM14.486 18.024c39.46-.083 94.817-1.209 133.694 0v.126c-38.582 1.082-94.796.323-133.694-.126ZM89.156 42.945c9.729-1.136 19.49-.814 29.232-.225 9.745.045 19.48-.926 29.233-.745 6.496.085 12.992.337 19.488.97v.2c-9.74.93-19.474 1.128-29.233.844-6.494-.057-12.99-.783-19.488-.618-6.491.28-12.982.823-19.488.452-3.248-.112-6.496-.317-9.744-.677v-.201ZM.33 13.649c9.73-1.137 19.49-.814 29.233-.225 9.745.045 19.48-.926 29.232-.745 6.496.085 12.993.337 19.489.97v.2c-9.74.93-19.474 1.127-29.233.844-6.494-.057-12.99-.783-19.488-.619-6.492.28-12.983.824-19.488.452-3.248-.111-6.496-.316-9.744-.677v-.2ZM2.799 37.877c39.46-.083 94.816-1.208 133.694 0v.126c-38.582 1.083-94.796.323-133.694-.126ZM0 8.8c10.335-1.107 20.95-1.442 31.333-1.577 10.46-.273 20.892.893 31.333 1.126 13.933.327 27.846-1.12 41.777-1.237 20.906-.555 41.82-.189 62.666 1.687v.402c-20.846 1.876-41.76 2.243-62.666 1.687-13.93-.118-27.844-1.564-41.777-1.237-10.441.233-20.874 1.399-31.333 1.126-2.582-.02-7.858-.13-10.444-.222C13.926 10.305 6.963 9.967 0 9.201v-.402ZM88.947 25.36c9.728-1.136 19.49-.814 29.232-.224 9.745.045 19.48-.926 29.232-.745 6.496.084 12.992.336 19.488.97v.2c-9.74.93-19.474 1.127-29.232.844-6.494-.057-12.99-.783-19.488-.619-6.492.28-12.983.824-19.488.452-3.248-.111-6.496-.316-9.744-.677v-.2Z"/></g><g class="uuid-15cf333d-8013-49fa-aea2-409841044cc9"><path class="uuid-bbb7542b-613d-4649-934e-e82588a11bca" d="M167.109 48.225c-10.336 1.106-20.95 1.441-31.333 1.576-10.46.272-20.892-.893-31.333-1.127-13.933-.326-27.847 1.12-41.777 1.237-20.906.556-41.82.19-62.666-1.686v-.402c20.845-1.876 41.76-2.243 62.666-1.687 13.93.117 27.844 1.564 41.777 1.237 10.44-.233 20.873-1.399 31.333-1.126 2.582.02 7.858.13 10.444.222 6.963.25 13.926.588 20.889 1.354v.402ZM152.622 59.999c-39.46.083-94.816 1.208-133.694 0v-.126c38.583-1.083 94.797-.323 133.694.126ZM77.953 35.078c-9.73 1.136-19.49.814-29.233.224-9.745-.044-19.48.927-29.232.745-6.496-.084-12.992-.336-19.488-.97v-.2c9.74-.929 19.474-1.127 29.232-.843 6.495.056 12.99.782 19.488.618 6.492-.28 12.983-.824 19.489-.452 3.248.111 6.496.317 9.744.677v.2ZM166.778 64.374c-9.73 1.136-19.49.814-29.232.225-9.746-.045-19.481.926-29.233.745-6.496-.085-12.992-.337-19.488-.97v-.2c9.74-.93 19.474-1.128 29.232-.844 6.495.056 12.99.783 19.489.618 6.491-.28 12.982-.823 19.488-.452 3.248.112 6.496.317 9.744.677v.201ZM164.31 40.145c-39.46.084-94.817 1.21-133.694 0v-.125c38.582-1.083 94.796-.323 133.694.125ZM167.109 69.223c-10.336 1.107-20.95 1.442-31.333 1.577-10.46.272-20.892-.893-31.333-1.127-13.933-.326-27.847 1.12-41.777 1.237-20.906.556-41.82.19-62.666-1.687v-.401c20.845-1.876 41.76-2.243 62.666-1.687 13.93.117 27.844 1.564 41.777 1.237 10.44-.233 20.873-1.399 31.333-1.126 2.582.019 7.858.129 10.444.221 6.963.251 13.926.589 20.889 1.355v.401ZM78.162 52.662c-9.729 1.136-19.49.814-29.232.225-9.745-.045-19.48.926-29.232.745-6.496-.085-12.992-.337-19.489-.97v-.2c9.74-.93 19.474-1.128 29.233-.844 6.494.057 12.99.783 19.488.618 6.492-.28 12.983-.823 19.488-.452 3.248.112 6.496.317 9.744.677v.201Z"/></g></svg>