<svg id="uuid-b6bf722a-ec60-4470-bb29-ba0be3947ba4" xmlns="http://www.w3.org/2000/svg" viewBox="0 0 196.267 100"><defs><linearGradient id="uuid-eb5f1b9f-5796-4484-808f-2c8cdb3e8434" x1=".272" y1="50" x2="195.994" y2="50" gradientUnits="userSpaceOnUse"><stop offset="0" stop-color="#260101"/><stop offset=".485" stop-color="#3c2213"/><stop offset="1" stop-color="#260101"/></linearGradient><style>.uuid-4d1ba3e2-dc4a-4f63-a8c6-63032778fa5c{fill:#260101;stroke-width:0}.uuid-bf7a5add-c770-4527-9ee5-f9b79a49a37a{opacity:.2}</style></defs><path fill="url(#uuid-eb5f1b9f-5796-4484-808f-2c8cdb3e8434)" stroke-width="0" d="M.272.272h195.722v99.456H.272z"/><path class="uuid-4d1ba3e2-dc4a-4f63-a8c6-63032778fa5c" d="M195.722.544v98.912H.544V.544h195.178m.545-.544H0v100h196.267V0Z"/><g class="uuid-bf7a5add-c770-4527-9ee5-f9b79a49a37a"><path class="uuid-4d1ba3e2-dc4a-4f63-a8c6-63032778fa5c" d="M0 83.953c12.142-1.057 24.615-1.378 36.8-1.506 12.278-.256 24.536.839 36.8 1.076 12.269.244 24.54-.487 36.8-.917 28.64-.796 57.257-.774 85.867 1.347v.384c-28.61 2.12-57.227 2.142-85.867 1.347-12.26-.43-24.531-1.161-36.8-.917-12.264.237-24.522 1.332-36.8 1.076-3.032-.018-9.23-.125-12.267-.212-8.177-.24-16.355-.563-24.533-1.294v-.384ZM22.23 74.824c46.123-.083 111.568-1.141 157.022 0v.12c-45.13 1.022-111.483.313-157.021-.12ZM0 94.191c11.432-1.086 22.89-.778 34.333-.215 11.445.045 22.883-.881 34.333-.711 7.63.08 15.259.321 22.888.926v.192c-11.441.888-22.877 1.077-34.333.806-7.628-.068-15.257-.741-22.888-.591-7.626.268-15.252.787-22.889.432-3.814-.107-7.63-.303-11.444-.647v-.192ZM104.324 71.416c11.432-1.085 22.89-.777 34.333-.214 11.444.045 22.882-.882 34.332-.712 7.63.08 15.26.322 22.889.926v.192c-11.441.888-22.878 1.077-34.333.806-7.628-.068-15.258-.74-22.888-.59-7.627.267-15.252.786-22.889.431-3.815-.106-7.63-.302-11.444-.647v-.192ZM35.958 90.258c46.122-.083 111.566-1.141 157.021 0v.12c-45.131 1.022-111.483.313-157.021-.12ZM0 67.629c12.142-1.058 24.615-1.378 36.8-1.507 12.278-.255 24.536.84 36.8 1.077 12.269.243 24.54-.487 36.8-.917 28.64-.796 57.257-.775 85.867 1.347v.383c-28.61 2.122-57.227 2.143-85.867 1.348-12.26-.43-24.531-1.161-36.8-.918-12.264.238-24.522 1.332-36.8 1.077-3.032-.018-9.23-.125-12.267-.212-8.177-.24-16.355-.563-24.533-1.295v-.383ZM.246 80.521c11.432-1.086 22.89-.777 34.333-.215 11.445.045 22.883-.881 34.333-.711 7.63.08 15.259.321 22.888.926v.192c-11.441.888-22.877 1.077-34.333.806-7.628-.068-15.257-.741-22.888-.591-7.626.268-15.252.787-22.889.432-3.814-.107-7.63-.303-11.444-.647v-.192Z"/></g><g class="uuid-bf7a5add-c770-4527-9ee5-f9b79a49a37a"><path class="uuid-4d1ba3e2-dc4a-4f63-a8c6-63032778fa5c" d="M0 29.781c12.14-1.199 24.61-1.562 36.8-1.708 12.282-.296 24.537.968 36.8 1.22 16.363.353 32.706-1.197 49.067-1.35 24.55-.598 49.11-.189 73.6 1.838v.435c-24.49 2.027-49.05 2.436-73.6 1.838-16.36-.152-32.704-1.703-49.067-1.35-12.263.253-24.518 1.516-36.8 1.22a634.02 634.02 0 0 1-12.267-.24C16.356 31.412 8.178 31.046 0 30.216v-.435ZM17.014 18.019c46.123-.095 111.568-1.295 157.022 0v.136c-45.113 1.155-111.532.356-157.022-.136ZM104.712 42.937c11.428-1.24 22.891-.877 34.333-.244 11.446.049 22.881-1.004 34.333-.807 7.63.091 15.259.364 22.889 1.05v.218c-11.44 1.007-22.875 1.221-34.333.914-7.628-.061-15.257-.848-22.889-.67-7.625.304-15.25.892-22.888.49-3.815-.136-7.63-.319-11.445-.734v-.217ZM.389 13.64c11.428-1.24 22.89-.876 34.332-.243 11.446.048 22.881-1.004 34.333-.808 7.63.092 15.26.365 22.889 1.051v.218c-11.44 1.007-22.874 1.221-34.333.914-7.628-.062-15.257-.848-22.889-.67-7.625.304-15.25.892-22.888.49-3.815-.136-7.63-.32-11.444-.734v-.218ZM3.287 37.872c46.123-.094 111.569-1.295 157.022 0v.136c-45.113 1.156-111.532.356-157.022-.136ZM0 8.783c12.14-1.2 24.61-1.563 36.8-1.709 12.282-.295 24.537.968 36.8 1.22 16.363.353 32.706-1.197 49.067-1.35 24.55-.598 49.11-.189 73.6 1.838v.435c-24.49 2.028-49.05 2.437-73.6 1.839-16.36-.153-32.704-1.703-49.067-1.35-12.263.252-24.518 1.515-36.8 1.22-3.027-.02-9.233-.141-12.267-.24C16.356 10.413 8.178 10.047 0 9.216v-.434ZM104.466 25.352c11.428-1.24 22.891-.876 34.333-.243 11.446.048 22.881-1.004 34.333-.808 7.63.092 15.259.365 22.889 1.051v.218c-11.44 1.007-22.875 1.22-34.333.914-7.628-.062-15.257-.849-22.889-.67-7.625.303-15.25.892-22.888.49-3.815-.136-7.63-.32-11.445-.734v-.218Z"/></g><g class="uuid-bf7a5add-c770-4527-9ee5-f9b79a49a37a"><path class="uuid-4d1ba3e2-dc4a-4f63-a8c6-63032778fa5c" d="M196.267 48.241c-12.14 1.2-24.61 1.563-36.8 1.709-12.282.295-24.537-.968-36.8-1.221-16.364-.352-32.707 1.198-49.067 1.35-24.55.599-49.11.19-73.6-1.838v-.435c24.49-2.027 49.05-2.436 73.6-1.838 16.36.153 32.704 1.703 49.067 1.35 12.263-.252 24.518-1.515 36.8-1.22 3.027.02 9.233.141 12.266.24 8.178.272 16.356.638 24.534 1.468v.435ZM179.253 60.004c-46.123.094-111.569 1.295-157.022 0v-.136c45.113-1.156 111.532-.356 157.022.136ZM91.554 35.086c-11.428 1.24-22.89.876-34.333.244-11.445-.049-22.88 1.003-34.332.807-7.63-.092-15.26-.365-22.889-1.05v-.218c11.44-1.007 22.874-1.222 34.333-.914 7.628.06 15.257.848 22.888.67 7.626-.304 15.25-.893 22.889-.49 3.815.136 7.63.319 11.444.734v.217ZM195.878 64.382c-11.428 1.24-22.89.877-34.333.244-11.445-.049-22.88 1.004-34.333.807-7.63-.091-15.259-.364-22.888-1.05v-.218c11.44-1.007 22.874-1.221 34.333-.914 7.627.061 15.257.848 22.888.67 7.625-.304 15.25-.892 22.889-.49 3.814.136 7.63.319 11.444.734v.217ZM192.98 40.15c-46.123.095-111.57 1.295-157.022 0v-.136c45.113-1.155 111.531-.356 157.021.137ZM196.267 69.24c-12.14 1.2-24.61 1.563-36.8 1.709-12.282.295-24.537-.968-36.8-1.221-16.364-.353-32.707 1.198-49.067 1.35-24.55.598-49.11.19-73.6-1.838v-.435c24.49-2.027 49.05-2.436 73.6-1.838 16.36.152 32.704 1.703 49.067 1.35 12.263-.252 24.518-1.516 36.8-1.22 3.027.02 9.233.14 12.266.24 8.178.272 16.356.638 24.534 1.468v.435ZM91.8 52.67c-11.428 1.24-22.89.877-34.333.244-11.445-.049-22.88 1.004-34.332.807-7.63-.091-15.26-.364-22.889-1.05v-.218c11.44-1.007 22.874-1.221 34.333-.914 7.628.061 15.257.848 22.888.67 7.626-.304 15.25-.892 22.889-.49 3.815.136 7.63.319 11.444.734v.218Z"/></g></svg>