<svg xmlns="http://www.w3.org/2000/svg" xmlns:xlink="http://www.w3.org/1999/xlink" viewBox="0 0 304.548 50.024"><defs><linearGradient id="uuid-2647bbdb-0dcb-4b07-8cda-ec1cef939984" x1=".5" y1="25.012" x2="304.048" y2="25.012" gradientUnits="userSpaceOnUse"><stop offset="0" stop-color="#af861e"/><stop offset=".244" stop-color="#fcc61f"/><stop offset=".501" stop-color="#fdec51"/><stop offset=".752" stop-color="#fcc61f"/><stop offset="1" stop-color="#af861e"/></linearGradient><linearGradient id="uuid-3718f5df-ec14-45ac-9772-1df3b8e24503" x1="292.321" y1="24.992" x2="298.423" y2="24.992" xlink:href="#uuid-2647bbdb-0dcb-4b07-8cda-ec1cef939984"/><linearGradient id="uuid-90e7df04-f658-4374-b963-434948f558f6" x1="296.578" y1="26.195" x2="294.172" y2="23.789" xlink:href="#uuid-2647bbdb-0dcb-4b07-8cda-ec1cef939984"/><linearGradient id="uuid-edfd7922-1755-4291-8d66-835262e1264a" x1="6.125" y1="24.992" x2="12.226" y2="24.992" xlink:href="#uuid-2647bbdb-0dcb-4b07-8cda-ec1cef939984"/><linearGradient id="uuid-498f1b9b-5392-40f5-9016-b00a0583e5ce" x1="10.381" y1="26.195" x2="7.975" y2="23.789" xlink:href="#uuid-2647bbdb-0dcb-4b07-8cda-ec1cef939984"/><style>.uuid-9f40e024-fae0-42fe-9576-6cf29a5df7ce{fill:#292425;stroke-width:0}.uuid-55f3f0de-d462-4fd0-9d45-6ddf47e906b6{opacity:.6}</style></defs><rect class="uuid-9f40e024-fae0-42fe-9576-6cf29a5df7ce" width="304.548" height="50.024" rx="12.453" ry="12.453" id="uuid-69cbfc75-56ce-4158-8bdc-ea26a299e5ea"/><g id="uuid-4952ae13-ed90-46aa-a473-eab8d792051a"><g class="uuid-55f3f0de-d462-4fd0-9d45-6ddf47e906b6"><path d="M12.453.5h279.641c6.598 0 11.954 5.356 11.954 11.954V37.57c0 6.597-5.356 11.953-11.953 11.953H12.453C5.856 49.524.5 44.168.5 37.57V12.453C.5 5.856 5.856.5 12.453.5Z" fill="url(#uuid-2647bbdb-0dcb-4b07-8cda-ec1cef939984)" stroke-width="0"/><path d="M292.095 1c6.315 0 11.453 5.138 11.453 11.453V37.57c0 6.316-5.138 11.454-11.453 11.454H12.453C6.138 49.024 1 43.886 1 37.57V12.453C1 6.138 6.138 1 12.453 1h279.642m0-1H12.453C5.576 0 0 5.576 0 12.453V37.57c0 6.878 5.576 12.454 12.453 12.454h279.642c6.877 0 12.453-5.576 12.453-12.454V12.453C304.548 5.576 298.972 0 292.095 0Z" fill="#c29b00" stroke-width="0"/></g><path d="M291.113 3.401c5.683 0 10.308 4.624 10.308 10.308v22.606c0 5.684-4.625 10.308-10.308 10.308H13.436c-5.684 0-10.309-4.624-10.309-10.308V13.709c0-5.684 4.625-10.308 10.309-10.308h277.677m0-.9H13.436c-6.19 0-11.209 5.018-11.209 11.208v22.606c0 6.19 5.018 11.208 11.209 11.208h277.677c6.19 0 11.208-5.018 11.208-11.208V13.709c0-6.19-5.018-11.208-11.208-11.208Z" fill="#af861e" stroke-width="0"/></g><g id="uuid-36d804aa-bf6e-4676-b550-99f984358574"><g class="uuid-55f3f0de-d462-4fd0-9d45-6ddf47e906b6"><circle cx="295.372" cy="24.992" r="3.051" fill="url(#uuid-3718f5df-ec14-45ac-9772-1df3b8e24503)" stroke-width="0"/><path class="uuid-9f40e024-fae0-42fe-9576-6cf29a5df7ce" d="M295.372 22.066c1.614 0 2.926 1.313 2.926 2.926s-1.312 2.925-2.926 2.925c-1.613 0-2.925-1.312-2.925-2.925s1.312-2.926 2.925-2.926m0-.25a3.176 3.176 0 1 0 0 6.351 3.176 3.176 0 0 0 0-6.35Z"/><path d="M296.545 25.807c.09.1.09.26 0 .35-.05.05-.12.08-.18.08s-.13-.03-.18-.08l-.81-.81-.82.81a.25.25 0 0 1-.18.08c-.06 0-.12-.03-.17-.08-.1-.09-.1-.25 0-.35l.82-.81-.82-.82c-.1-.1-.1-.26 0-.35.1-.1.25-.1.35 0l.82.81.81-.81c.1-.1.26-.1.36 0 .09.09.09.25 0 .35l-.82.82.82.81Z" stroke="url(#uuid-90e7df04-f658-4374-b963-434948f558f6)" stroke-miterlimit="10" stroke-width=".1" fill="#292425"/></g><g class="uuid-55f3f0de-d462-4fd0-9d45-6ddf47e906b6"><path d="M9.175 28.042a3.054 3.054 0 0 1-3.05-3.05c0-1.682 1.368-3.051 3.05-3.051s3.051 1.369 3.051 3.05a3.054 3.054 0 0 1-3.05 3.051Z" fill="url(#uuid-edfd7922-1755-4291-8d66-835262e1264a)" stroke-width="0"/><path class="uuid-9f40e024-fae0-42fe-9576-6cf29a5df7ce" d="M9.176 22.066c1.613 0 2.925 1.313 2.925 2.926s-1.312 2.925-2.925 2.925-2.926-1.312-2.926-2.925 1.312-2.926 2.926-2.926m0-.25a3.176 3.176 0 1 0 0 6.351 3.176 3.176 0 0 0 0-6.35Z"/><path d="M10.349 25.807c.09.1.09.26 0 .35-.05.05-.12.08-.18.08s-.13-.03-.18-.08l-.81-.81-.82.81a.25.25 0 0 1-.18.08c-.06 0-.12-.03-.17-.08-.1-.09-.1-.25 0-.35l.82-.81-.82-.82c-.1-.1-.1-.26 0-.35.1-.1.25-.1.35 0l.82.81.81-.81c.1-.1.26-.1.36 0 .09.09.09.25 0 .35l-.82.82.82.81Z" stroke-miterlimit="10" stroke-width=".1" fill="#292425" stroke="url(#uuid-498f1b9b-5392-40f5-9016-b00a0583e5ce)"/></g></g></svg>