<svg xmlns="http://www.w3.org/2000/svg" viewBox="0 0 723.035 719.268"><defs><style>.uuid-05f3dc0d-e250-4a65-83c7-b1793b5c9838,.uuid-4ffd38dd-f1f5-47ac-8a6c-0fb7eba5a7bd,.uuid-6b0f54ec-7a82-425e-9e40-15ef9285a2c5{fill:#fffffc}.uuid-4ffd38dd-f1f5-47ac-8a6c-0fb7eba5a7bd,.uuid-5631f092-d9e1-427b-a4d4-39678a012c6c,.uuid-6b0f54ec-7a82-425e-9e40-15ef9285a2c5,.uuid-ec4c8131-a847-4def-858a-ee506c09be36,.uuid-f1707415-1bdc-4ca3-9bed-28c6ae988499{stroke-miterlimit:10;stroke:#1d1d1b}.uuid-6b0f54ec-7a82-425e-9e40-15ef9285a2c5{stroke-width:2.706264px}.uuid-05f3dc0d-e250-4a65-83c7-b1793b5c9838,.uuid-0b051f60-a2e0-4c6c-bd12-e11d43918e89,.uuid-5c940e72-9613-45be-8412-74c64adeaa78{stroke-width:0}.uuid-0b051f60-a2e0-4c6c-bd12-e11d43918e89,.uuid-5631f092-d9e1-427b-a4d4-39678a012c6c,.uuid-ec4c8131-a847-4def-858a-ee506c09be36{fill:#1d1d1b}.uuid-4ffd38dd-f1f5-47ac-8a6c-0fb7eba5a7bd,.uuid-5631f092-d9e1-427b-a4d4-39678a012c6c,.uuid-f1707415-1bdc-4ca3-9bed-28c6ae988499{stroke-width:1.804176px}.uuid-f1707415-1bdc-4ca3-9bed-28c6ae988499{fill:none}.uuid-5c940e72-9613-45be-8412-74c64adeaa78{fill:#000}.uuid-ec4c8131-a847-4def-858a-ee506c09be36{stroke-width:.451044px}</style></defs><g id="uuid-fc91ba98-4d50-4c4c-ab86-b1b82adc20a6"><g id="uuid-dfebb4ec-d80f-4662-a7e2-0ed8bbfb1e2b"><path class="uuid-05f3dc0d-e250-4a65-83c7-b1793b5c9838" d="M4.51 376.682h338.076v338.075H4.51z"/><path class="uuid-0b051f60-a2e0-4c6c-bd12-e11d43918e89" d="M338.076 381.193v329.054H9.02V381.193h329.055m9.02-9.021H0v347.096h347.096V372.172Z"/><path class="uuid-4ffd38dd-f1f5-47ac-8a6c-0fb7eba5a7bd" d="M305.267 519.771a21.172 21.172 0 0 1-5.323-1.226 13.946 13.946 0 0 0-7.216-.515 9.797 9.797 0 0 0-3.356-1.326 96.714 96.714 0 0 0-10.149-.902c2.165-2.877 1.516-8.19-4.69-11.537-7.073-3.816-10.176-8.48-10.6-9.193l-.09-.108a20.55 20.55 0 0 0 .144-4.736c1.732 1.245 4.853 2.878 12.63 5.133 14.27 4.159 23.354 15.66 28.65 24.41Z"/><path class="uuid-4ffd38dd-f1f5-47ac-8a6c-0fb7eba5a7bd" d="m302.353 535.459-2.472-.803a111.032 111.032 0 0 0-8.065-2.192 26.702 26.702 0 0 0-5.556-.722 20.811 20.811 0 0 0-9.328 1.922 2.796 2.796 0 0 0-.117-1.922 2.898 2.898 0 0 0-.262-.415c-.965-1.308-3.103-2.57-5.015-4.871l-.433-.532c-.903-1.11-1.805-2.382-2.617-3.473a31.32 31.32 0 0 0 3.897-.578c.145-.022.287-.058.424-.108 1.426-.541 2.337-2.706 5.332-4.916a5.052 5.052 0 0 0 1.055-1.047c3.397.122 6.784.424 10.149.902 1.19.23 2.329.68 3.356 1.326a15.489 15.489 0 0 1 6.486 8.002c.956 3.049 2.688 7.054 3.166 9.427Z"/><path class="uuid-4ffd38dd-f1f5-47ac-8a6c-0fb7eba5a7bd" d="M317.472 540.312c.09.803-.902 1.344-2.183 1.804-1.922.64-4.565 1.065-5.413 1.804-1.48 1.272-6.99 14.849-7.415 16.969s-5.097 7.415-8.489 8.263c-3.391.848-6.143.848-8.48 2.336s-8.903 3.608-16.751 5.72c-.379.099-.794.198-1.263.288.054-.767.1-1.534.126-2.3.118-2.95.136-5.864.073-8.75l.333.135c.345.135.706.226 1.074.27h.234c3.392.19 5.016-4.357 13.18-1.75 10.6 3.392 16.328-4.032 16.535-8.272s.217-13.531 0-15.687-2.968-2.968-5.512-3.608a7.903 7.903 0 0 1-1.759-.668c-1.461-.776-3.022-2.22-5.493-5.142 1.872.045 3.735.287 5.556.722a111.04 111.04 0 0 1 8.065 2.192l2.472.803c10.239 3.509 14.127 6.675 15.11 4.871ZM276.932 533.664c-.37.171-.722.342-1.073.532l-.19.099c-.334.18-.667.37-.992.568s-.704.424-1.038.659h-.045c-.297.198-.586.406-.902.622l-.252.19-.09.072c-.262.18-.515.379-.767.586l-.09.072c-.316.253-.632.524-.903.794s-.64.569-.947.902-.532.506-.794.767a53.36 53.36 0 0 0-3.653 4.033 131.986 131.986 0 0 0-6.017-21.353c3.608-.316 6.928-.478 7.577-.126a3.554 3.554 0 0 0 1.741.379 76.093 76.093 0 0 0 2.617 3.473l.433.532c1.912 2.3 4.05 3.608 5.015 4.871.099.13.186.27.262.415.26.605.298 1.282.108 1.913Z"/><path class="uuid-5631f092-d9e1-427b-a4d4-39678a012c6c" d="M317.472 540.312c-.983 1.804-4.908-1.362-15.12-4.853-.477-2.373-2.21-6.378-3.166-9.427a15.489 15.489 0 0 0-6.486-8.002 13.946 13.946 0 0 1 7.217.515 21.172 21.172 0 0 0 5.322 1.226c1.444 2.382 2.608 4.565 3.519 6.315 4.267 8.254 9.986 11.863 8.714 14.226ZM35.777 560.771l-1.227 2.76-.695-3.67.244.135c.542.294 1.102.554 1.678.775ZM42.02 561.637l-1.255 3.51-.297-3.401c.519 0 1.037-.035 1.551-.109ZM54.757 559.346l-1.182 2.634v-3.23l1.182.596ZM58.915 561.538l-1.317 2.995-.243-3.77c.424.225.902.45 1.317.658l.243.117ZM50.977 563.965l-1.705-.036v-.614l.009-4.33 1.416 4.15.28.83zM60.882 568.123l-2.075-.36.487-2.815 1.002 1.985.586 1.19zM65.185 567.438l-1.272-.226.415-2.399.55 1.687.307.938zM46.106 567.717l-1.399.253.055-.767.171-2.751.902 2.499.271.766zM36.535 567.889l-1.624.604.018-.261.144-3.726 1.254 2.905.208.478z"/><path class="uuid-f1707415-1bdc-4ca3-9bed-28c6ae988499" d="M66.123 573.364h-.469l.108-1.804.361 1.804Z"/><path class="uuid-5631f092-d9e1-427b-a4d4-39678a012c6c" d="M61.522 572.796c-.18 0-.37-.063-.55-.108l.226-1.606.324 1.714ZM45.06 569.946l-.84-.109-.388-2.462 1.227 2.57Z"/><path class="uuid-f1707415-1bdc-4ca3-9bed-28c6ae988499" d="m39.827 568.99-.56-.1.272-.902.288 1.001ZM51.067 570.324l-.613-.08.28-2.608.333 2.688Z"/><path class="uuid-5631f092-d9e1-427b-a4d4-39678a012c6c" d="m56.877 571.74-.605-.17.235-2.292.37 2.463Z"/><path class="uuid-4ffd38dd-f1f5-47ac-8a6c-0fb7eba5a7bd" d="M167.852 477.554a.325.325 0 0 0 0 .09 1.66 1.66 0 0 0-.073.343c-.514 4.086-1.678 17.518-1.48 20.829s-2.056 7-4.51 11.087c-2.2 3.608-8.308 12.367-10.716 15.885l-.704 1.047c-1.515 2.255-3.807 8.588-3.96 9.02a30.238 30.238 0 0 1-5.963 5.17c-3.374 1.876-15.642 2.12-16.49 2.138a.316.316 0 0 1 0-.127c.045-.099.126-.243.243-.442a.605.605 0 0 1 .055-.108l2.832-5.187.587-1.155 3.788-6.892c1.543-2.787 2.995-5.412 4.042-7.28 3.364-5.926 19.548-37.202 32.349-44.418Z"/><path class="uuid-5631f092-d9e1-427b-a4d4-39678a012c6c" d="M91.805 570.532H90.38l1.335-3.608.09 3.608ZM85.32 570.938l-.984.162v-1.894l.983 1.732Z"/><path class="uuid-f1707415-1bdc-4ca3-9bed-28c6ae988499" d="m79.718 572.228-.533.162v-1.804l.533 1.642Z"/><path class="uuid-5631f092-d9e1-427b-a4d4-39678a012c6c" d="M72.384 573.473h-.578l.289-1.651.289 1.65ZM124.064 542.594c0 .154-.063.307-.09.46.045-.099.126-.243.244-.442a.424.424 0 0 1-.154-.018Zm-.162.587a.316.316 0 0 1 0-.127v.127ZM99.708 565.75l-.541 1.11-.262-1.452c.298.126.577.244.803.343ZM105.914 566.22l-.478 1.497-.667-1.263a6.784 6.784 0 0 0 1.145-.234ZM97.317 570.82l-.803-.063.388-2.228.415 2.292ZM111.814 566.103l-2.075-2.49c1.055-.902 1.055-.487 1.985-.072l.09 2.562ZM120.934 562.91l-.253 1.416-.424-1.254c.199-.045.451-.109.677-.163Z"/><path d="M113.42 570.496a.9.9 0 0 0 .045.343 41.433 41.433 0 0 1-12.63.36c-1.244-.153-2.4-.27-3.5-.378l-.415-2.292-.388 2.228a73.643 73.643 0 0 0-4.708-.225l-.09-3.608-1.336 3.608a37.887 37.887 0 0 0-5.06.406l-.903-1.732v1.894c-1.558.31-3.1.698-4.618 1.164l-.56-1.669v1.804l-1.091.289a29.66 29.66 0 0 1-5.71.758l-.289-1.633-.289 1.65a48.713 48.713 0 0 1-5.683-.126l-.36-1.804-.109 1.804a53.453 53.453 0 0 1-4.131-.532l-.325-1.714-.226 1.606a39.154 39.154 0 0 1-3.725-.848l-.37-.1-.37-2.462-.235 2.291c-2.543-.694-4.041-1.055-5.205-1.245l-.333-2.706-.28 2.607c-1.452-.18-2.544-.117-5.133-.28h-.262l-1.226-2.57.388 2.462c-1.318-.19-2.878-.55-4.394-.848l-.252-.992-.27.902c-3.366-.613-6.315-.74-5.648 2.382-.83-1.38.388-2.472 1.272-3.04v.27l1.624-.613-.208-.478c1.417-.776 1.958-.127 4.854-.09 1.203.06 2.41.024 3.608-.109v.767l1.398-.253-.28-.766a4.204 4.204 0 0 0 2.382-2.228 3.933 3.933 0 0 1 1.055-1.408v.605h1.696l-.28-.821c.746.332 1.434.78 2.04 1.326a11.312 11.312 0 0 0 6.206 2.535l-.136.766 2.084.361-.595-1.19 3.726-.352-.118.622 1.272.226-.297-.902c1.506-.145 2.895-.253 3.743-.262a9.471 9.471 0 0 0 1.615-.225c1.687 1.326 4.826 3.13 6.531-.208 2.4-4.718 4.159-1.28 9.923-4.24 2.246-1.136 3.365-3.95 6.684-.316a17.266 17.266 0 0 0 5.566 4.15l.262 1.452.541-1.11a10.5 10.5 0 0 0 5.025.705l.667 1.262.479-1.497a6.315 6.315 0 0 0 2.769-1.588c.442-.45.785-.776 1.055-1.02l2.075 2.49-.09-2.561c.262.112.534.2.812.261a1.2 1.2 0 0 0 .27.054c.332.052.666.085 1.002.1-.118.902-.253 1.759-.388 2.643l-.153 3.888Z" stroke-width=".902" stroke="#1d1d1b" stroke-miterlimit="10" fill="#fffffc"/><path class="uuid-4ffd38dd-f1f5-47ac-8a6c-0fb7eba5a7bd" d="M260.054 578.344a79.465 79.465 0 0 1-7.289 24.618c-21.596 44.716-84.922 56.029-119.274 8.335a65.113 65.113 0 0 1-9.923-20.008 72.023 72.023 0 0 1-2.706-21.65v-.902c.072-1.994.171-3.96.306-5.918a148.844 148.844 0 0 1 2.707-19.656c.848 0 13.116-.262 16.49-2.138a30.238 30.238 0 0 0 5.963-5.17 75.723 75.723 0 0 0 5.412-6.314c.415-.56 1.01-1.488 1.804-2.634 2.707-4.05 7.47-10.825 13.532-13.531 7.785-3.5 14.433-10.7 17.51-16.536s8.172-4.672 9.733-2.147a18.042 18.042 0 0 1 1.28 4.51 35.371 35.371 0 0 0 5.558 13.613c.415.587.857 1.173 1.335 1.805 2.706 3.283 4.97 4.988 6.801 5.764 2.941 1.245 4.71.063 5.07-.902.587-1.552 1.362 5.259 3.888 7.216s3.699 1.363 7.01-1.551c3.31-2.914 6.034-1.75 13.035-12.458 1.858-2.833 3.247-4.321 4.348-4.98.7-.541 1.657-.609 2.426-.17 2.622 4.999 4.924 10.16 6.892 15.452a151.315 151.315 0 0 1 6.982 25.349c.064.324.118.64.172.965.108.56.198 1.118.288 1.687a94.882 94.882 0 0 1 .65 27.351Z"/><path class="uuid-5631f092-d9e1-427b-a4d4-39678a012c6c" d="M299.07 541.16c-.208-2.12-2.969-2.968-5.513-3.608a7.903 7.903 0 0 1-1.759-.668c-1.461-.776-3.022-2.22-5.493-5.142a20.811 20.811 0 0 0-9.328 1.922c-.37.171-.722.342-1.073.532l-.19.099c-.334.18-.667.37-.992.568s-.695.433-1.038.659h-.045c-.297.198-.586.406-.902.622l-.252.19-.09.072c-.262.19-.515.388-.767.586l-.09.072c-.316.262-.632.524-.903.794s-.64.569-.947.902-.532.506-.794.767a53.36 53.36 0 0 0-3.653 4.033 131.986 131.986 0 0 0-6.017-21.353c3.608-.316 6.928-.478 7.578-.126a3.554 3.554 0 0 0 1.74.379 31.32 31.32 0 0 0 3.898-.578c.144-.022.286-.058.424-.108 1.425-.541 2.336-2.706 5.33-4.916a5.052 5.052 0 0 0 1.056-1.047c2.165-2.877 1.516-8.19-4.69-11.537a31.898 31.898 0 0 1-10.69-9.3 20.55 20.55 0 0 0 .144-4.737c-2.3-1.633-2.192-2.562-7.108-3.284-2.49-2.165-7.217-6.711-11.177-9.922-3.329-2.707-16.941-9.084-27.19-13.748a54.811 54.811 0 0 0-18.248-8.913c-14.064-3.816-27.18-1.804-38.069 8.344-1 .902-1.993 1.877-2.967 2.824-4.033 1.254-9.824 5.214-18.042 20.071-.614 1.11-1.227 2.21-1.858 3.293-2.571 4.51-5.242 8.777-7.894 12.819-11.06 16.815-21.902 29.155-24.699 31.952l-2.544 2.471c-5.881 2.535-12.34 5.413-19.241 5.8-10.374.56-13.532 2.78-16.094 3.907s-11.32-.794-11.32-.794c-5.215-1.696-10.176-3.5-20.208.397-8.912 3.518-11.537 9.923-3.473 14.433l.244.136c.533.293 1.084.553 1.65.775a12.44 12.44 0 0 0 4.692.975c.519 0 1.037-.035 1.551-.109 2.631-.48 5.05-1.758 6.928-3.662 1.435-.55 2.96-.072 4.673.776l1.137.595c.82.442 1.678.902 2.598 1.416.424.226.902.451 1.317.659l.243.117a78.329 78.329 0 0 0 7.506 3.004l2.706.47c.358.359.738.696 1.137 1.01 1.687 1.326 4.826 3.13 6.53-.208 2.4-4.718 4.16-1.28 9.924-4.24 2.246-1.136 3.365-3.95 6.684-.315a17.266 17.266 0 0 0 5.566 4.15c.262.125.541.243.803.342a10.5 10.5 0 0 0 5.025.704 6.783 6.783 0 0 0 1.145-.235 6.315 6.315 0 0 0 2.77-1.588c.442-.45.784-.775 1.055-1.019 1.056-.902 1.056-.487 1.985-.072.261.112.533.2.812.261a1.2 1.2 0 0 0 .27.055c.332.051.666.085 1.001.099-.117.902-.252 1.759-.387 2.643v3.897a.9.9 0 0 0 .045.343 41.433 41.433 0 0 1-12.63.36c-1.244-.153-2.4-.27-3.5-.378l-.802-.063a73.643 73.643 0 0 0-4.71-.226h-1.425a37.887 37.887 0 0 0-5.06.406l-.984.162c-1.558.31-3.1.698-4.618 1.164l-.533.162-1.091.289a29.66 29.66 0 0 1-5.71.758h-.578a48.713 48.713 0 0 1-5.683-.126H65.7a53.453 53.453 0 0 1-4.131-.533c-.18 0-.37-.063-.55-.108a39.154 39.154 0 0 1-3.726-.848l-.37-.1-.605-.17c-2.544-.695-4.041-1.056-5.205-1.245l-.613-.082c-1.452-.18-2.544-.117-5.133-.28h-.262l-.839-.108c-1.317-.189-2.877-.55-4.393-.847l-.604-.163c-3.365-.613-6.315-.74-5.647 2.382a16.111 16.111 0 0 0 2.31 4.745c7.46 11.573 9.164 6.314 17.03 6.53 7.867.217 31.826 5.558 40.847 5.955 5.034.216 14.434 1.326 22.733 2.146 7.82 30.32 33.864 53.82 65.076 57.608 42.895 5.223 82.794-27.965 85.789-70.778.054-.767.1-1.534.126-2.3.118-2.95.136-5.864.072-8.75l.334.135c.345.135.706.226 1.074.27h.234c3.392.19 5.016-4.357 13.18-1.75 10.6 3.392 16.328-4.032 16.535-8.272s.28-13.531.108-15.651Zm-37.771-44.798Zm-92.915-20.26c-.172.36-.316.694-.433 1.01a8.28 8.28 0 0 1 .469-1.01h-.036Zm-48.163 86.97c.226 0 .451-.109.677-.163l-.253 1.417-.424-1.254Zm139.824 15.272a79.465 79.465 0 0 1-7.289 24.618c-21.596 44.716-84.923 56.029-119.274 8.335a65.113 65.113 0 0 1-9.923-20.008 72.023 72.023 0 0 1-2.706-21.65v-.902c.072-1.994.171-3.96.306-5.918a148.844 148.844 0 0 1 2.707-19.656l.072-.127c0-.153.054-.306.09-.46a.713.713 0 0 1 0-.117h.18l2.833-5.187.632-1.128 3.788-6.892c1.543-2.787 2.995-5.412 4.042-7.28 3.337-5.926 19.52-37.202 32.321-44.418a.325.325 0 0 0 0 .09 1.66 1.66 0 0 0-.072.343c-.514 4.086-1.678 17.518-1.48 20.829s-2.056 7-4.51 11.087c-2.2 3.608-8.308 12.367-10.716 15.885l-.704 1.047c-1.516 2.255-3.807 8.588-3.96 9.02a75.723 75.723 0 0 0 5.412-6.314c.415-.56 1.01-1.488 1.805-2.634 2.706-4.05 7.469-10.825 13.53-13.531 7.786-3.5 14.434-10.7 17.51-16.536 3.076-5.836 8.173-4.672 9.734-2.147a18.042 18.042 0 0 1 1.28 4.51c.975-3.337 2.32-6.314 3.185-8.551 1.353-3.5-1.551-11.727-3.301-15.002s-2.337-8.173-2.147-13.81v-1.3c.009-.15.009-.3 0-.45v-.425a3.608 3.608 0 0 0-.055-.46c1.7.163 3.384.465 5.034.902a283.556 283.556 0 0 1 3.464 5.476c6.612 10.699 6.81 16.734 7 22.182.19 5.269-1.263 9.617.758 15.173.063.19.135.388.217.587 1.378 3.69 2.55 7.455 3.509 11.276a209.368 209.368 0 0 1 1.163 4.682c.587-1.552 1.363 5.259 3.888 7.216s3.699 1.363 7.01-1.551 6.035-1.75 13.035-12.458c1.858-2.833 3.247-4.321 4.348-4.98.7-.541 1.657-.609 2.427-.17 2.622 4.999 4.924 10.16 6.891 15.452a151.315 151.315 0 0 1 6.983 25.349c.063.324.117.64.171.965.108.56.198 1.118.289 1.687a94.881 94.881 0 0 1 .532 27.351h-.01Zm13.315-31.889a12.26 12.26 0 0 1 3.5-.776 5.864 5.864 0 0 1 3.608.794c.258.17.496.367.713.587l.171.171.081.09c.159.183.3.379.424.587 0 .054.064.099.09.144.071.116.134.237.19.36 0 .064.063.118.09.19.113.266.213.537.298.812 0 .153.09.316.126.487.14.593.228 1.196.262 1.804-4.772 3.582-9.544-5.25-9.544-5.25h-.01Z"/><path class="uuid-4ffd38dd-f1f5-47ac-8a6c-0fb7eba5a7bd" d="M214.345 519.438c-.36.965-2.129 2.147-5.07.902-1.804-.776-4.113-2.481-6.801-5.765a26.627 26.627 0 0 1-1.335-1.804 35.371 35.371 0 0 1-5.557-13.612c.974-3.338 2.318-6.315 3.184-8.552 1.353-3.5-1.552-11.727-3.302-15.002s-2.336-8.173-2.147-13.81v-1.3c.01-.15.01-.3 0-.45v-.425a3.608 3.608 0 0 0-.054-.46c1.7.163 3.384.464 5.034.902a283.556 283.556 0 0 1 3.464 5.476c6.612 10.699 6.81 16.734 7 22.182.19 5.268-1.263 9.616.758 15.173.063.19.135.388.216.587 1.379 3.69 2.55 7.455 3.51 11.276.64 2.706 1.1 4.682 1.1 4.682Z"/><path class="uuid-0b051f60-a2e0-4c6c-bd12-e11d43918e89" d="m172.48 523.975 1.199 6.468c-1.2 1.732-.64 3.87-.289 5.647.445 1.8 1 3.572 1.66 5.304h-1.046c-.352 1.687 0 3.952-1.173 4.71-.193.47-.255.984-.18 1.488.757 2.706.09 5.827.586 8.588.117.604.47 1.48.704 1.48 1.849 0 3.22 2.01 4.654 3.87a30.048 30.048 0 0 1 2.707 3.436 3.23 3.23 0 0 1-1.029-.568c-1.254-1.371-2.426-3.194-3.752-4.123a4.51 4.51 0 0 0-3.42-.406c-.207 0-.577 2.183-.46 3.176.38 3.428 1.083 6.576 2.96 7.992l-.172.505-1.804-1.74c-.352 1.019-.794 2.11-1.119 3.319a5.412 5.412 0 0 0-.135 2.165c.577 2.436 1.046 5.07 2.652 5.845a30.86 30.86 0 0 1 3.32 2.364c.28.137.6.17.902.09.469-.063 1.209-1.416 1.127 1.01 0 .118.334.29.515.406s.55.217.775.497c.686.902 1.281 2.21 2.021 2.706s1.434-.172 2.174-.108a6.477 6.477 0 0 1-1.615.965 1.299 1.299 0 0 1-1.443-.442c-1.642-2.58-3.608-2.788-5.629-3.753 0 .821-.054 1.398-.045 1.281a21.425 21.425 0 0 0-3.202-2.787c-1.029-.578-.948 2.065-1.561 2.895a9.69 9.69 0 0 0 .063 2.156c-1.245.072-2.075 2.021-2.787 4.213a5.007 5.007 0 0 0-.28 2.066 19.124 19.124 0 0 0 1.804 4.637c.596.902 1.56.721 2.337 1.163a4.646 4.646 0 0 1 1.614 1.651 33.847 33.847 0 0 0-3.32-1.407 1.001 1.001 0 0 0-1.145.586c-.084.746-.017 1.5.198 2.22.37 1.542.83 3.003 1.354 4.844-.388 2.128-1.263 4.618-.533 7.866.208.902-.342 2.526-.793 3.554l.902 2.706-.325.668c-.614-1.074-1.254-2.102-1.804-3.293.15-.678.36-1.342.622-1.984 0-3.943-1.723-3.852-3.184-4.62a22.315 22.315 0 0 1-2.517-1.857c2.012-.758 3.608 1.299 5.61 1.984-.45-3.166-.838-5.854-1.226-8.543-.117-.784-.216-1.578-.325-2.363-.19-1.362-.379-2.706-.559-4.096a13.143 13.143 0 0 1-.153-1.335c0-1.019.18-2.525-.082-2.968a7.893 7.893 0 0 0-2.39-2.706 32.522 32.522 0 0 0-4.348-1.894c1.452-.73 3.915-.307 6.233 1.687.731.631 1.092.09 1.362-.767.623-2.012 1.074-4.24 1.705-6.243.479-1.479 1.128-2.706 1.805-4.257l-2.256-2.806c1.2-4.222 1.191-4.97-.08-6.314.811-.659 1.65-1.21 1.154-3.609-.235-1.127-.217-2.472-.487-3.554-.442-1.804-1.02-1.037-1.543 0a3.302 3.302 0 0 1-1.209 1.56l1.038-1.605c-2.093-1.904-3.789.902-5.683.36.234-.36.397-.838.577-.856 1.804-.208 3.608-1.606 5.494-1.128 1.127.28 1.605-.758 1.804-3.094.216-2.201.505-4.357.82-6.991l-1.425-4.51-.45.189c1.939-1.209.396-4.781 1.271-6.622l-.153-.577c-1.11.523-2.3.704-3.293 1.678s-1.678 2.706-2.544 4.177l.55-2.418c-1.019-1.714-1.93 3.05-2.904.235 1.02-.695 2.048-1.48 3.112-2.093s2.075-1.002 3.293-1.57l-.749-1.804c.388 0 .623-.108.821 0 .73.478 1.137-.09 1.263-1.498.225-2.543.397-5.105.65-7.64.17-1.804.432-3.554.649-5.332l.56-.126Z"/><path class="uuid-5c940e72-9613-45be-8412-74c64adeaa78" d="M175.05 541.394c.956 0 1.877-.46 2.896-.28 1.804.335 2.336 2.78 2.887 5.495a22.887 22.887 0 0 0-1.85-3.293 5.16 5.16 0 0 0-2.047-1.227c-.614-.298-1.245-.496-1.868-.74l-.018.045Z"/></g></g><g id="uuid-843e28b1-50ac-47c5-a8e3-0e44b6561bfe"><path stroke-width="9.021" stroke="#1d1d1b" stroke-miterlimit="10" fill="#fffffc" d="M194.093 176.214h347.096v175.393H194.093z"/><path class="uuid-0b051f60-a2e0-4c6c-bd12-e11d43918e89" d="M374.275 286.71c.46-9.192 1.876-17.698 7.216-25.095 10.212-14.073 26.892-13.261 35.885 1.623 8.787 14.524 6.504 31.89-6.53 46.133a52.438 52.438 0 0 1-12.026 9.878c-9.192 5.322-15.687 2.706-19.376-7.217-2.833-7.668-3.979-15.994-5.17-25.321ZM363.928 285.466c.487 9.598-2.977 18.574-5.557 26.756-3.112 9.86-9.725 11.97-18.944 7.307-21.127-10.717-30.202-37.148-19.178-55.867 9.426-16.003 28.064-16.418 36.985-.126 3.762 6.757 6.594 14.415 6.694 21.93ZM412.244 235.941c-.163-12.43 2.543-19.512 10.292-23.653 8.047-4.312 15.273-1.181 21.813 3.771 14.433 10.888 15.687 39.972 2.444 52.276-4.988 4.637-10.446 5.223-15.84.406-10.897-9.733-17.564-21.903-18.71-32.8ZM325.661 236.14c-1.28 10.978-7.965 23.13-18.944 32.818-4.51 3.978-9.832 4.266-14.884.144-16.923-13.838-12.052-48.433 8.046-56.922 13.875-5.872 25.845 3.5 25.782 23.96Z"/><path d="M541.189 4.51H194.093v171.713h110.226c1.434-8.245 5.042-15.002 12.881-19.963 5.91-3.726 10.907-9.021 15.787-14.154 7.361-7.704 14.713-15.245 24.465-20.044 11.637-5.738 21.911-3.248 31.293 4.726 3.536 3.004 6.567 6.559 9.869 9.815 7.072 6.937 13.739 14.434 21.388 20.613a23.914 23.914 0 0 1 9.328 19.007h111.859V4.51ZM329.694 72.78c2.824-11.095 7.09-21.568 13.884-30.887.144-.198.604-.153.902-.217v20.261c-.062 1.807.01 3.617.216 5.413.64 3.996-.46 5.476-4.826 4.664-1.543-.28-3.464 1.74-5.277 2.544-1.251.603-2.603.97-3.987 1.082-.271.045-1.128-1.985-.912-2.86Zm-31.22 25.015a1763.12 1763.12 0 0 1 11.988-31.96c.261-.686 1.452-1.02 3.265-2.21 0 11.284-.072 21.325.046 31.365 0 2.959-1.408 4.411-3.843 3.347-3.293-1.444-5.16-.271-7.28 1.966-.677.695-2.463.758-3.545.451-.497-.135-.939-2.102-.632-2.959Zm10.012 49.615a10.77 10.77 0 0 1-13.531-5.908c-4.411-9.31-1.47-26.161 5.846-33.522 6.657-6.703 16.138-5.413 21.153 3.202a34.577 34.577 0 0 1 3.916 10.564c.54 12.358-6.91 22.38-17.339 25.691l-.045-.027Zm45.213-36.985c-2.968 5.656-9.797 9.408-16.156 8.542-6.108-.82-8.309-5.493-9.5-10.716-.73-3.203-.902-6.532-1.362-9.806-.333-.172 2.03-11.375 5.061-15.75 5.016-7.271 12.521-7.019 18.502-.434s7.596 20.37 3.455 28.227v-.063Zm72.735-36.607a9.021 9.021 0 0 1 .686-2.273c5.26 3.157 12.449 25.565 10.942 32.944-3.013.442-5.53 1.136-8.001 1.02-1.245-.064-3.428-1.597-3.455-2.518-.262-9.715-.199-19.449-.172-29.173Zm-22.552-30.942c5.683 6.531 7.036 14.127 7.911 21.867.161 2.149.2 4.305.118 6.459 0 7.217 0 7.108-6.802 5.927-1.804-.316-3.843.297-5.81.487 1.534-11.718 3.05-23.23 4.556-34.74h.027ZM377.207 26.64c3.401 10.175 3.51 20.378 3.104 30.598 0 .903-1.805 2.21-2.896 2.346-3.654.469-7.37.496-12.115.749 2.011-11.349 6.242-22.652 11.88-33.666l.027-.027Zm6.622 75.432c-4.8 7.452-14.434 7.217-19.62 0-6.83-9.463-5.846-19.746-2.021-29.823 2.101-5.52 7.307-7.532 13.035-7.216 5.412.261 11.258 5.412 12.746 11.158.812 3.176.902 6.531 1.362 9.797.316.135-2.525 11.448-5.53 16.111l.028-.027Zm27.784 21.587c-4.934 4.457-10.654 3.735-14.433-1.804a33.864 33.864 0 0 1-6.135-19.72c.569-3.608.902-7.216 1.805-10.762 2.318-9.183 11.646-12.223 18.474-5.674 10.113 9.779 11.015 28.29.262 37.987l.027-.027Zm31.961 17.798c-1.083 4.682-3.672 8.182-8.804 8.895a12.304 12.304 0 0 1-12.341-6.684c-4.655-9.743-4.213-19.657.108-29.318 2.58-5.774 8.877-6.802 13.622-2.553a26.422 26.422 0 0 1 9.066 19.422c-.56 3.437-.902 6.9-1.678 10.265l.027-.027Z" fill="#1d1d1b" stroke-width="9.021" stroke="#1d1d1b" stroke-miterlimit="10"/><path class="uuid-05f3dc0d-e250-4a65-83c7-b1793b5c9838" d="m304.864 180.589 125.337.226a52.7 52.7 0 0 0 .216-3.149v-1.443H305.424a50.558 50.558 0 0 0-.56 4.366Z"/><path class="uuid-05f3dc0d-e250-4a65-83c7-b1793b5c9838" d="M420.819 157.216c-7.65-6.215-14.316-13.676-21.389-20.613-3.301-3.256-6.314-6.81-9.869-9.815-9.381-7.974-19.656-10.464-31.293-4.726-9.752 4.799-17.14 12.34-24.465 20.044-4.88 5.106-9.923 10.428-15.786 14.154-7.84 4.961-11.448 11.727-12.882 19.963h125.011a23.914 23.914 0 0 0-9.327-19.007Z"/><path class="uuid-0b051f60-a2e0-4c6c-bd12-e11d43918e89" d="M304.895 180.589c.054.47.135 1.119.18 1.804a31.663 31.663 0 0 0 9.373 20.288 35.551 35.551 0 0 0 8.119 8.119c7.92 5.791 13.675 13.008 18.538 21.542 11.628 20.432 40.476 21.65 54.621 3.238 7.361-9.598 15.588-18.61 23.833-27.504a43.778 43.778 0 0 0 2.706-3.167 43.445 43.445 0 0 0 3.248-4.51 29.922 29.922 0 0 0 4.709-19.503c0 .225 0 .46-.063.694l-125.264-1.001Z"/><path class="uuid-0b051f60-a2e0-4c6c-bd12-e11d43918e89" d="M430.246 181.51c0-.235 0-.47.063-.695l-125.336-.226 125.273.92Z"/><path class="uuid-05f3dc0d-e250-4a65-83c7-b1793b5c9838" d="M388.627 76.127c-1.489-5.791-7.307-10.897-12.747-11.159-5.728-.27-10.933 1.741-13.035 7.217-3.825 10.076-4.808 20.36 2.02 29.823 5.206 7.217 14.822 7.496 19.621 0 3.004-4.664 5.846-15.976 5.503-16.174-.406-3.176-.523-6.531-1.362-9.707ZM380.995 57.265c.406-10.221.298-20.424-3.103-30.6-5.638 11.006-9.869 22.318-11.908 33.694 4.745-.253 8.462-.28 12.115-.749 1.092-.135 2.86-1.488 2.896-2.345ZM322.621 111.21c-5.016-8.625-14.496-9.924-21.154-3.203-7.316 7.37-10.257 24.212-5.845 33.522a10.77 10.77 0 0 0 13.53 5.908c10.474-3.337 17.925-13.333 17.339-25.664a34.577 34.577 0 0 0-3.87-10.564ZM299.816 100.754c1.083.307 2.869.244 3.545-.45 2.12-2.238 3.988-3.41 7.28-1.967 2.436 1.064 3.88-.388 3.843-3.347-.117-10.04-.045-20.08-.045-31.366-1.804 1.191-3.004 1.525-3.265 2.21a1858.03 1858.03 0 0 0-11.99 31.961c-.306.857.136 2.824.632 2.96ZM412.018 85.752c-6.829-6.549-16.156-3.509-18.475 5.675-.902 3.509-1.2 7.216-1.804 10.762a33.864 33.864 0 0 0 6.134 19.72c3.735 5.51 9.454 6.233 14.434 1.803 10.744-9.724 9.841-28.235-.289-37.96ZM405.82 77.11c6.83 1.182 6.82 1.29 6.802-5.926.083-2.154.044-4.31-.117-6.46-.902-7.721-2.21-15.335-7.938-21.848a7974.938 7974.938 0 0 0-4.51 34.722c1.92-.226 3.905-.803 5.764-.488ZM332.454 82.785c-3.031 4.375-5.413 15.579-5.06 15.75.432 3.275.63 6.603 1.361 9.806 1.191 5.223 3.392 9.923 9.5 10.717 6.359.902 13.188-2.887 16.156-8.543 4.14-7.884 2.444-21.65-3.455-28.163-5.9-6.513-13.487-6.865-18.502.433ZM331.344 75.676a11.276 11.276 0 0 0 3.987-1.082c1.805-.803 3.735-2.824 5.278-2.544 4.366.812 5.466-.668 4.826-4.664a36.507 36.507 0 0 1-.217-5.413v-20.26c-.315.063-.775 0-.902.216-6.82 9.283-11.086 19.756-13.91 30.851-.216.875.64 2.905.938 2.896ZM436.843 111.823c-4.745-4.249-11.041-3.22-13.621 2.553-4.321 9.661-4.763 19.575-.108 29.318a12.304 12.304 0 0 0 12.34 6.684c5.133-.713 7.722-4.213 8.805-8.895.775-3.364 1.118-6.828 1.65-10.238a26.422 26.422 0 0 0-9.066-19.422ZM430.772 105.508c2.472.117 4.989-.577 8.002-1.02 1.506-7.378-5.683-29.768-10.942-32.943a9.021 9.021 0 0 0-.686 2.273c0 9.724-.09 19.458.171 29.173.027.92 2.21 2.454 3.455 2.517Z"/></g><g id="uuid-3e14bd44-4bfe-4996-805b-de915306331e"><path class="uuid-05f3dc0d-e250-4a65-83c7-b1793b5c9838" d="M380.449 376.682h338.075v338.075H380.449z"/><path class="uuid-5c940e72-9613-45be-8412-74c64adeaa78" d="M714.014 381.193v329.054H384.96V381.193h329.055m9.02-9.021H375.94v347.096h347.096V372.172Z"/><path class="uuid-ec4c8131-a847-4def-858a-ee506c09be36" d="M529.947 624.152c4.636.902 10.049-.758 15.795-3.951a32.755 32.755 0 0 1-8.245-9.923 2301.462 2301.462 0 0 0-9.246 13.324c.542.25 1.11.434 1.696.55Z"/><path d="M598.892 514.155c15.239-17.53 63.12-59.68 63.12-59.68s-51.56 41.956-65.684 56.08c-1.637 1.636-19.926 20.925-26.833 28.955.15 2.98.354 6.27.557 9.729 7.818-9.994 27.32-33.333 28.84-35.084Z" stroke="#fff" stroke-width="4.422" stroke-miterlimit="10" fill="#fffffc"/><path class="uuid-6b0f54ec-7a82-425e-9e40-15ef9285a2c5" d="M537.497 610.305a2301.462 2301.462 0 0 0-9.246 13.324c-10.374 15.119-17.87 26.602-21.154 31.7l-1.858 2.895-5.323-6.874c.505-.73 1.01-1.452 1.516-2.192 7.379-10.708 14.478-21.127 21.515-31.294a1944.44 1944.44 0 0 1 10.825-15.588 56.433 56.433 0 0 0 3.725 8.029Z"/><path d="M522.708 535.928c-4.618-5.17-17.915-19.115-19.72-20.938a569.009 569.009 0 0 0-51.03-45.375c15.723 13.36 32.213 30.59 48.28 49.173 1.686 1.949 16.652 19.846 22.29 26.882v-2.57c.03-2.4.09-4.79.18-7.172Z" stroke-width="1.804" stroke="#fff" stroke-miterlimit="10" fill="#fffffc"/><path d="m576.564 598.942-3.847-5.474a48.801 48.801 0 0 1-2.875 9.065 1256.612 1256.612 0 0 1 9.402 13.566c10.524 15.336 18.068 26.904 21.225 31.786a356.334 356.334 0 0 1 1.636 2.547l5.307-6.819c-.451-.645-.885-1.282-1.327-1.928-7.411-10.728-14.486-21.128-21.562-31.316a1598.64 1598.64 0 0 0-7.96-11.427Z" stroke-width="2.653" stroke="#1d1d1b" stroke-miterlimit="10" fill="#fffffc"/><path class="uuid-ec4c8131-a847-4def-858a-ee506c09be36" d="M525.045 583.143c-.391.896-.761 1.771-1.11 2.625a719.203 719.203 0 0 0-3.762-4.61c-3.662-4.51-15.2-16.643-28.957-30.292a676.827 676.827 0 0 0-5.647-5.556c-18.89-18.502-40.36-38.204-50.995-44.861-13.72-8.534-35.01-34.063-21.298-45.664 13.712-11.6 24.429-27.387 50.878-3.554 17.654 15.949 35.867 32.114 51.347 49.064a363.434 363.434 0 0 1 5.078 5.693 244.115 244.115 0 0 1 4.258 5.078c-1.037 8.12-1.804 16.41-2.084 24.862a725.193 725.193 0 0 0-14.397-15.516 500.214 500.214 0 0 0-5.34-5.413 569.009 569.009 0 0 0-51.031-45.375c15.696 13.351 32.186 30.581 48.252 49.164 1.696 1.949 3.374 3.915 5.061 5.89 5.845 6.893 11.6 13.929 17.239 20.992-.01 15.183.911 27.487 2.508 37.473Z"/><path d="M657.793 440.387c-3.307.566-40.868 20.766-76.058 53.285a342.937 342.937 0 0 0-5.306 4.988c-2.45 2.37-4.891 4.82-7.288 7.305.557 9.8.699 17.838.248 22.41a83.292 83.292 0 0 0 0 11.135c6.907-8.03 14.15-16.034 21.986-24.038a379.493 379.493 0 0 1 4.847-4.917c14.15-14.15 29.423-28.619 47.757-43.106 5.943-5.05 12.284-9.197 17.918-12.974-6.04 4.475-11.497 9.897-17.033 14.301a429.817 429.817 0 0 0-46.087 45.379c-1.52 1.768-3.042 3.537-4.545 5.306-8.296 9.728-16.45 19.793-24.295 29.804.681 11.436 1.362 24.993-.115 36.95 8.092-8.26 15.353-16.21 20.562-20.995 3.856-3.538 10.348-10.321 18.104-18.926a614.285 614.285 0 0 0 5.138-5.775c22.712-25.736 52.72-63.067 60.927-82.161 11.913-27.478-12.001-18.776-16.76-17.971Z" stroke-width=".442" fill="#1d1d1b" stroke="#1d1d1b" stroke-miterlimit="10"/><path d="M569.91 586.384a80.725 80.725 0 0 1-1.202 7.075l3.847 5.474a44.521 44.521 0 0 0-2.644-12.55Z" stroke-width="2.653" stroke="#000" stroke-miterlimit="10"/><path d="M571.372 609.944a9.17 9.17 0 0 0 2.388-1.769 1256.612 1256.612 0 0 0-3.918-5.607 26.753 26.753 0 0 1-5.792 8.588 11.842 11.842 0 0 0 7.322-1.212Z" stroke-width=".442" stroke="#1d1d1b" stroke-miterlimit="10"/><path class="uuid-ec4c8131-a847-4def-858a-ee506c09be36" d="M555.96 610.025c-.83-7.541-2.599-25.989-2.707-27.17-.316-3.609-2.138-26.802-2.607-34.713-.18-3.067-1.398-63.38-1.335-65.609a372.893 372.893 0 0 1 2.995-39.195c-2.373 13.702-4.168 26.728-5.476 39.24-.243 2.373-2.823 62.118-2.751 65.447.08 4.655 1.389 30.67 1.515 32.42.289 3.87 2.093 23.816 2.76 29.932.181 1.723 8.4 67.512 8.534 68.559l8.516 1.551s-9.237-68.567-9.445-70.462ZM529.817 602.276a1944.44 1944.44 0 0 0-10.825 15.588c-2.13-5.511-1.913-15.335 4.988-32.096.349-.854.719-1.729 1.11-2.625.282 1.732.583 3.398.902 4.998a91.778 91.778 0 0 0 3.825 14.135Z"/><path class="uuid-6b0f54ec-7a82-425e-9e40-15ef9285a2c5" d="m574.208 592.723-.054.063v.118a82.34 82.34 0 0 1-1.226 7.216 49.118 49.118 0 0 1-2.941 9.247 27.126 27.126 0 0 1-5.9 8.76l-.604.567a45.375 45.375 0 0 1-6.08 4.556c-.298-2.48-1.3-11.34-1.507-13.234-.83-7.541-2.598-25.989-2.706-27.17-.325-3.609-2.968-40.847-3.112-43.932-.848-16.716-1.245-33.549-.984-49.67 0-2.254 3.149-45.916 3.149-45.916s-5.945 43.95-6.162 46.287a519.603 519.603 0 0 0-2.174 48.352c0 3.364 1.498 40.693 1.624 42.47.289 3.87 2.093 23.815 2.76 29.931.18 1.723 1.254 11.159 1.606 14.145a25.827 25.827 0 0 1-8.218-4.321 32.863 32.863 0 0 1-8.245-9.923 56.435 56.435 0 0 1-3.68-8.029 91.778 91.778 0 0 1-3.88-14.135c-.318-1.6-.619-3.266-.901-4.998-1.597-9.986-2.517-22.29-2.508-37.473v-2.57c0-2.406.054-4.812.162-7.217.307-8.453 1.047-16.78 2.084-24.862a325.333 325.333 0 0 1 1.624-10.915c.65-3.96 1.37-7.857 2.138-11.655a401.835 401.835 0 0 1 23.156-74.612c1.092-2.995 4.231-13.224 9.508 3.608 3.383 10.826 7.975 42.462 10.555 70.68.252 2.705.478 5.357.694 7.965a607.5 607.5 0 0 1 1.029 14.758c.568 9.995.712 18.195.252 22.859a83.451 83.451 0 0 0 0 11.357c.154 3.04.361 6.396.569 9.923.811 11.745 1.497 25.574-.028 37.77Z"/></g></svg>