<svg xmlns="http://www.w3.org/2000/svg" viewBox="0 0 1165.826 720.554"><defs><style>.uuid-1fc06729-4925-4664-9b48-90de07c8e54e,.uuid-7401f8d3-e244-4166-b712-18dc248305d6,.uuid-7de11ad2-33b9-4531-a251-c63733ee1548{fill:#fffffc}.uuid-1fc06729-4925-4664-9b48-90de07c8e54e,.uuid-7401f8d3-e244-4166-b712-18dc248305d6,.uuid-8f436769-772a-47a3-908d-16f2266cff16,.uuid-97c842b4-70da-4a60-a726-8dee1e6b581e,.uuid-adc71902-fcf0-41f8-b6bd-c8b6bd7f1fa1{stroke-miterlimit:10;stroke:#1d1d1b}.uuid-0f5ff2b8-5550-4ba2-9922-d205135f3f97,.uuid-7de11ad2-33b9-4531-a251-c63733ee1548,.uuid-ef5cf915-4db6-430c-8d5a-44c504afe1d3{stroke-width:0}.uuid-7401f8d3-e244-4166-b712-18dc248305d6,.uuid-8f436769-772a-47a3-908d-16f2266cff16,.uuid-97c842b4-70da-4a60-a726-8dee1e6b581e{stroke-width:1.9845936px}.uuid-8f436769-772a-47a3-908d-16f2266cff16,.uuid-adc71902-fcf0-41f8-b6bd-c8b6bd7f1fa1,.uuid-ef5cf915-4db6-430c-8d5a-44c504afe1d3{fill:#1d1d1b}.uuid-97c842b4-70da-4a60-a726-8dee1e6b581e{fill:none}.uuid-1fc06729-4925-4664-9b48-90de07c8e54e{stroke-width:2.9768904px}.uuid-0f5ff2b8-5550-4ba2-9922-d205135f3f97{fill:#000}.uuid-adc71902-fcf0-41f8-b6bd-c8b6bd7f1fa1{stroke-width:.4961484px}</style></defs><g id="uuid-bd5a2859-3dfb-42ad-aaac-8dd3b09a1564"><g id="uuid-ee622ff1-28aa-4f74-9104-6004bf8aafa8"><path class="uuid-7de11ad2-33b9-4531-a251-c63733ee1548" d="M4.961 343.71h371.883v371.882H4.961z"/><path class="uuid-ef5cf915-4db6-430c-8d5a-44c504afe1d3" d="M371.883 348.67v361.96H9.923V348.67h361.96m9.923-9.922H0v381.806h381.806V338.748Z"/><path class="uuid-7401f8d3-e244-4166-b712-18dc248305d6" d="M335.793 501.107a23.289 23.289 0 0 1-5.854-1.35 15.341 15.341 0 0 0-7.939-.565 10.776 10.776 0 0 0-3.691-1.459 106.386 106.386 0 0 0-11.163-.992c2.381-3.165 1.667-9.01-5.16-12.691-7.78-4.198-11.193-9.328-11.66-10.112l-.099-.119c.254-1.725.307-3.473.159-5.21 1.905 1.37 5.338 3.166 13.892 5.647 15.698 4.574 25.69 17.226 31.515 26.851Z"/><path class="uuid-7401f8d3-e244-4166-b712-18dc248305d6" d="m332.588 518.363-2.719-.883a122.135 122.135 0 0 0-8.87-2.411 29.372 29.372 0 0 0-6.113-.794 22.892 22.892 0 0 0-10.26 2.114 3.076 3.076 0 0 0-.13-2.114 3.187 3.187 0 0 0-.288-.457c-1.061-1.438-3.413-2.828-5.517-5.358l-.476-.585c-.992-1.22-1.985-2.62-2.878-3.82a34.453 34.453 0 0 0 4.287-.636 2.47 2.47 0 0 0 .466-.119c1.568-.595 2.57-2.977 5.865-5.408a5.557 5.557 0 0 0 1.16-1.15c3.737.133 7.463.465 11.164.991 1.31.254 2.562.748 3.692 1.459a17.038 17.038 0 0 1 7.134 8.802c1.052 3.354 2.957 7.76 3.483 10.37Z"/><path class="uuid-7401f8d3-e244-4166-b712-18dc248305d6" d="M349.219 523.702c.1.883-.992 1.478-2.401 1.984-2.114.705-5.021 1.171-5.954 1.985-1.628 1.4-7.69 16.333-8.157 18.665s-5.606 8.157-9.337 9.09c-3.731.932-6.758.932-9.328 2.57s-9.794 3.969-18.427 6.29c-.417.11-.873.219-1.39.318a72.1 72.1 0 0 0 .14-2.53c.129-3.245.149-6.45.08-9.625l.366.148c.38.15.777.25 1.181.298h.258c3.731.209 5.517-4.793 14.498-1.925 11.66 3.731 17.96-4.436 18.188-9.1s.239-14.884 0-17.255-3.264-3.265-6.062-3.97a8.693 8.693 0 0 1-1.935-.734c-1.608-.853-3.325-2.44-6.044-5.656 2.06.05 4.109.316 6.113.794 3.314.774 6.251 1.588 8.871 2.411l2.719.883c11.263 3.86 15.54 7.343 16.621 5.359ZM304.625 516.389c-.407.188-.794.377-1.18.585l-.209.11c-.367.198-.734.406-1.092.624s-.774.467-1.14.725h-.05c-.328.218-.645.446-.993.684l-.277.209-.1.08c-.287.198-.565.416-.843.644l-.1.08c-.347.277-.694.575-.992.873s-.704.625-1.042.992-.585.556-.873.843a58.695 58.695 0 0 0-4.019 4.436 145.184 145.184 0 0 0-6.618-23.488c3.969-.347 7.62-.526 8.335-.139a3.91 3.91 0 0 0 1.915.417c.854 1.2 1.895 2.6 2.878 3.82l.476.586c2.104 2.53 4.456 3.97 5.517 5.358.109.144.205.297.288.457.286.665.328 1.41.12 2.104Z"/><path class="uuid-8f436769-772a-47a3-908d-16f2266cff16" d="M349.219 523.702c-1.082 1.984-5.398-1.499-16.63-5.339-.527-2.61-2.432-7.015-3.484-10.37a17.038 17.038 0 0 0-7.134-8.801 15.341 15.341 0 0 1 7.938.566c1.885.7 3.853 1.154 5.854 1.35 1.588 2.619 2.868 5.02 3.87 6.945 4.694 9.08 10.985 13.049 9.586 15.649ZM39.354 546.207l-1.349 3.036-.764-4.038.268.149c.596.324 1.212.61 1.845.853ZM46.221 547.16l-1.38 3.86-.327-3.741c.571.001 1.142-.039 1.707-.12ZM60.232 544.64l-1.3 2.897v-3.553l1.3.655ZM64.807 547.05l-1.449 3.295-.268-4.148c.467.248.993.496 1.449.725l.268.128ZM56.075 549.72l-1.876-.04v-.675l.01-4.763 1.558 4.565.308.913zM66.97 554.294l-2.282-.397.536-3.096 1.101 2.183.645 1.31zM71.703 553.54l-1.399-.248.457-2.639.605 1.855.337 1.032zM50.716 553.848l-1.538.278.06-.844.188-3.026.993 2.748.297.844zM40.188 554.036l-1.786.665.02-.288.159-4.098 1.379 3.195.228.526z"/><path class="uuid-97c842b4-70da-4a60-a726-8dee1e6b581e" d="M72.735 560.06h-.516l.12-1.985.396 1.985Z"/><path class="uuid-8f436769-772a-47a3-908d-16f2266cff16" d="M67.675 559.434c-.199 0-.407-.07-.606-.119l.248-1.766.358 1.885ZM49.565 556.299l-.923-.12-.426-2.708 1.35 2.828Z"/><path class="uuid-97c842b4-70da-4a60-a726-8dee1e6b581e" d="m43.81 555.247-.615-.11.297-.992.318 1.102ZM56.174 556.715l-.675-.089.308-2.868.367 2.957Z"/><path class="uuid-8f436769-772a-47a3-908d-16f2266cff16" d="m62.564 558.273-.665-.188.258-2.52.407 2.708Z"/><path class="uuid-7401f8d3-e244-4166-b712-18dc248305d6" d="M184.637 454.668a.357.357 0 0 0 0 .099c-.04.122-.067.249-.08.377-.565 4.495-1.845 19.27-1.627 22.912s-2.263 7.7-4.962 12.195c-2.42 3.97-9.139 13.605-11.788 17.475l-.774 1.15c-1.667 2.482-4.188 9.448-4.356 9.924a33.262 33.262 0 0 1-6.56 5.686c-3.71 2.064-17.206 2.332-18.139 2.351a.347.347 0 0 1 0-.139 5.9 5.9 0 0 1 .268-.486.665.665 0 0 1 .06-.119l3.116-5.706.645-1.27 4.167-7.58c1.697-3.067 3.295-5.955 4.446-8.009 3.701-6.519 21.503-40.922 35.584-48.86Z"/><path class="uuid-8f436769-772a-47a3-908d-16f2266cff16" d="M100.986 556.944h-1.568l1.469-3.97.099 3.97ZM93.851 557.39l-1.081.179v-2.084l1.081 1.905Z"/><path class="uuid-97c842b4-70da-4a60-a726-8dee1e6b581e" d="m87.69 558.81-.586.178v-1.985l.585 1.806Z"/><path class="uuid-8f436769-772a-47a3-908d-16f2266cff16" d="M79.622 560.179h-.635l.317-1.816.318 1.816ZM136.47 526.212c0 .169-.069.338-.099.506a5.9 5.9 0 0 1 .268-.486.466.466 0 0 1-.168-.02Zm-.178.645a.347.347 0 0 1 0-.139v.14ZM109.679 551.685l-.596 1.22-.288-1.598c.328.14.635.268.884.378ZM116.506 552.2l-.526 1.648-.735-1.39c.427-.049.849-.135 1.26-.257ZM107.049 557.261l-.883-.07.427-2.45.456 2.52ZM122.995 552.072l-2.282-2.74c1.16-.991 1.16-.535 2.183-.079l.1 2.819ZM133.027 548.559l-.278 1.558-.466-1.38c.218-.05.496-.119.744-.178Z"/><path d="M124.761 556.904c0 .129 0 .248.05.377a45.576 45.576 0 0 1-13.892.397c-1.37-.169-2.64-.298-3.85-.417l-.457-2.52-.426 2.45a81.007 81.007 0 0 0-5.18-.247l-.1-3.97-1.468 3.97a41.675 41.675 0 0 0-5.567.446l-.992-1.905v2.084a51.71 51.71 0 0 0-5.08 1.28l-.616-1.836v1.985l-1.2.317c-2.062.481-4.166.76-6.282.834l-.317-1.796-.318 1.816a53.584 53.584 0 0 1-6.251-.14l-.397-1.984-.12 1.985a58.799 58.799 0 0 1-4.544-.586l-.357-1.885-.248 1.766a43.07 43.07 0 0 1-4.098-.933l-.407-.109-.407-2.709-.258 2.52c-2.798-.763-4.446-1.16-5.726-1.369l-.367-2.976-.307 2.867c-1.598-.198-2.799-.129-5.647-.307h-.287l-1.35-2.828.427 2.709c-1.449-.209-3.166-.606-4.833-.933l-.278-1.092-.297.993c-3.702-.675-6.946-.814-6.212 2.62-.913-1.519.427-2.72 1.4-3.345v.298l1.785-.675-.228-.526c1.558-.853 2.153-.139 5.339-.099 1.324.067 2.651.027 3.969-.12v.844l1.538-.277-.308-.844a4.624 4.624 0 0 0 2.62-2.45 4.326 4.326 0 0 1 1.16-1.549v.665h1.866l-.307-.903c.82.366 1.576.858 2.242 1.459a12.443 12.443 0 0 0 6.827 2.788l-.148.843 2.292.397-.655-1.31 4.098-.386-.129.684 1.4.248-.328-.992c1.657-.159 3.185-.278 4.118-.288a10.418 10.418 0 0 0 1.776-.248c1.855 1.459 5.309 3.443 7.184-.228 2.64-5.19 4.575-1.41 10.915-4.664 2.471-1.25 3.702-4.346 7.353-.347a18.993 18.993 0 0 0 6.123 4.564l.288 1.598.595-1.22a11.55 11.55 0 0 0 5.527.773l.734 1.39.526-1.648a6.946 6.946 0 0 0 3.047-1.746 25.69 25.69 0 0 1 1.16-1.121l2.283 2.738-.1-2.818c.289.124.588.22.894.288.096.031.196.051.297.06.365.057.733.093 1.102.109-.13.992-.278 1.935-.427 2.907l-.169 4.277Z" stroke-width=".992" stroke="#1d1d1b" stroke-miterlimit="10" fill="#fffffc"/><path class="uuid-7401f8d3-e244-4166-b712-18dc248305d6" d="M286.06 565.537a87.412 87.412 0 0 1-8.018 27.08c-23.756 49.188-93.415 61.631-131.202 9.169a71.624 71.624 0 0 1-10.915-22.01 79.225 79.225 0 0 1-2.977-23.815v-.992c.08-2.193.188-4.356.337-6.51a163.729 163.729 0 0 1 2.977-21.622c.933 0 14.428-.287 18.14-2.351a33.262 33.262 0 0 0 6.558-5.686 83.295 83.295 0 0 0 5.954-6.946c.457-.615 1.112-1.638 1.985-2.898 2.977-4.455 8.216-11.907 14.884-14.884 8.564-3.85 15.877-11.769 19.26-18.189 3.385-6.42 8.991-5.14 10.708-2.362a19.846 19.846 0 0 1 1.409 4.962 38.908 38.908 0 0 0 6.112 14.974c.457.645.943 1.29 1.469 1.984 2.977 3.612 5.467 5.488 7.482 6.34 3.235 1.37 5.18.07 5.576-.991.645-1.707 1.499 5.785 4.277 7.938s4.069 1.498 7.71-1.707c3.642-3.205 6.639-1.925 14.34-13.703 2.043-3.116 3.571-4.753 4.782-5.478a2.411 2.411 0 0 1 2.67-.188 146.69 146.69 0 0 1 7.58 16.998 166.447 166.447 0 0 1 7.68 27.883c.07.357.13.705.19 1.062.118.615.218 1.23.317 1.856a104.37 104.37 0 0 1 .714 30.086Z"/><path class="uuid-8f436769-772a-47a3-908d-16f2266cff16" d="M328.976 524.635c-.228-2.332-3.265-3.265-6.063-3.97a8.693 8.693 0 0 1-1.935-.734c-1.607-.853-3.324-2.441-6.043-5.656a22.892 22.892 0 0 0-10.26 2.114c-.407.188-.794.377-1.181.585l-.208.11c-.368.198-.735.406-1.092.624s-.764.477-1.141.725h-.05c-.327.218-.645.446-.992.684l-.278.209-.099.08c-.288.208-.566.426-.843.644l-.1.08c-.347.287-.694.575-.992.873s-.705.625-1.042.992-.585.556-.873.843a58.695 58.695 0 0 0-4.019 4.436 145.184 145.184 0 0 0-6.619-23.488c3.97-.347 7.621-.526 8.336-.139a3.91 3.91 0 0 0 1.915.417 34.453 34.453 0 0 0 4.287-.635 2.47 2.47 0 0 0 .466-.119c1.568-.595 2.57-2.977 5.864-5.408a5.557 5.557 0 0 0 1.161-1.151c2.382-3.165 1.667-9.01-5.16-12.691a35.088 35.088 0 0 1-11.758-10.231c.253-1.725.307-3.473.159-5.21-2.53-1.796-2.412-2.818-7.82-3.612-2.739-2.381-7.938-7.382-12.294-10.915-3.662-2.977-18.636-9.992-29.908-15.122a60.292 60.292 0 0 0-20.074-9.804c-15.47-4.198-29.898-1.985-41.875 9.178-1.102.993-2.193 2.064-3.265 3.106-4.435 1.38-10.806 5.736-19.846 22.079-.675 1.22-1.35 2.431-2.044 3.622-2.828 4.961-5.765 9.655-8.683 14.1-12.165 18.497-24.093 32.071-27.169 35.147l-2.798 2.72c-6.47 2.788-13.575 5.953-21.166 6.38-11.411.615-14.884 3.056-17.702 4.296s-12.454-.873-12.454-.873c-5.735-1.865-11.193-3.85-22.227.437-9.804 3.87-12.691 10.915-3.82 15.877l.268.148c.586.324 1.193.609 1.815.854a13.684 13.684 0 0 0 5.16 1.072c.571 0 1.142-.039 1.707-.12a14.309 14.309 0 0 0 7.621-4.028c1.578-.606 3.255-.08 5.14.853l1.25.655c.903.486 1.846.992 2.858 1.558.467.248.993.496 1.449.724l.268.13a86.162 86.162 0 0 0 8.256 3.304l2.977.516c.393.395.811.766 1.25 1.111 1.856 1.459 5.309 3.443 7.184-.228 2.64-5.19 4.575-1.41 10.915-4.664 2.471-1.25 3.702-4.346 7.353-.347a18.993 18.993 0 0 0 6.123 4.564c.288.14.595.268.883.377a11.55 11.55 0 0 0 5.527.774c.427-.05.848-.136 1.26-.258a6.946 6.946 0 0 0 3.047-1.746 25.69 25.69 0 0 1 1.16-1.121c1.162-.993 1.162-.536 2.184-.08.288.124.587.22.893.288.096.031.196.051.297.06.365.057.733.093 1.102.109-.13.992-.278 1.935-.427 2.907v4.287c0 .129 0 .248.05.377a45.576 45.576 0 0 1-13.892.397c-1.37-.169-2.64-.298-3.85-.417l-.884-.07a81.007 81.007 0 0 0-5.18-.248h-1.567a41.675 41.675 0 0 0-5.567.447l-1.082.179a51.71 51.71 0 0 0-5.08 1.28l-.586.178-1.2.318c-2.062.48-4.166.76-6.281.833h-.636a53.584 53.584 0 0 1-6.251-.139h-.516a58.799 58.799 0 0 1-4.545-.585c-.198 0-.407-.07-.605-.12a43.07 43.07 0 0 1-4.098-.932l-.407-.109-.665-.189c-2.798-.764-4.445-1.16-5.725-1.369l-.675-.09c-1.598-.198-2.798-.128-5.646-.307h-.288l-.923-.119c-1.449-.208-3.165-.605-4.832-.933l-.665-.178c-3.702-.675-6.946-.814-6.212 2.62a17.722 17.722 0 0 0 2.54 5.219c8.206 12.731 10.082 6.946 18.735 7.184 8.653.238 35.008 6.113 44.93 6.55 5.538.237 15.878 1.458 25.007 2.36 8.603 33.352 37.25 59.201 71.584 63.369 47.184 5.745 91.073-30.761 94.368-77.856a72.1 72.1 0 0 0 .138-2.53c.13-3.245.15-6.45.08-9.625l.367.149c.38.149.776.249 1.18.297h.259c3.73.209 5.517-4.792 14.497-1.925 11.66 3.731 17.96-4.435 18.19-9.1s.307-14.884.118-17.215Zm-41.547-49.278L185.222 453.07a13.83 13.83 0 0 0-.476 1.111c.147-.381.32-.752.516-1.11h-.04Zm-155.186 73.38c.248 0 .497-.119.745-.178l-.278 1.558-.467-1.38Zm153.806 16.8a87.412 87.412 0 0 1-8.017 27.08c-23.756 49.188-93.415 61.631-131.202 9.169a71.624 71.624 0 0 1-10.915-22.01 79.225 79.225 0 0 1-2.977-23.815v-.992c.08-2.193.189-4.356.337-6.51a163.729 163.729 0 0 1 2.977-21.622l.08-.139c0-.168.06-.337.099-.506a.784.784 0 0 1 0-.129h.198l3.116-5.705.695-1.24 4.167-7.582c1.697-3.066 3.295-5.954 4.446-8.008 3.671-6.519 21.473-40.922 35.554-48.86a.357.357 0 0 0 0 .099c-.04.122-.066.249-.08.377-.565 4.495-1.845 19.27-1.627 22.912s-2.262 7.7-4.961 12.195c-2.422 3.97-9.14 13.605-11.789 17.475l-.774 1.15c-1.667 2.482-4.187 9.448-4.356 9.924a83.295 83.295 0 0 0 5.954-6.946c.456-.615 1.111-1.638 1.984-2.898 2.977-4.455 8.217-11.907 14.885-14.884 8.563-3.85 15.877-11.769 19.26-18.189 3.384-6.42 8.99-5.14 10.707-2.362a19.846 19.846 0 0 1 1.41 4.962c1.07-3.672 2.55-6.946 3.502-9.407 1.488-3.85-1.707-12.9-3.632-16.502s-2.57-8.99-2.361-15.192v-1.429c.01-.165.01-.331 0-.496v-.467a3.969 3.969 0 0 0-.06-.506c1.87.18 3.722.511 5.537.993a311.911 311.911 0 0 1 3.81 6.023c7.274 11.769 7.492 18.407 7.7 24.4.21 5.795-1.389 10.578.834 16.69.07.21.149.428.238.646 1.516 4.06 2.805 8.2 3.86 12.404.774 2.976 1.28 5.15 1.28 5.15.645-1.707 1.499 5.785 4.277 7.938s4.069 1.498 7.71-1.707c3.642-3.205 6.639-1.925 14.34-13.703 2.043-3.116 3.571-4.753 4.782-5.478a2.411 2.411 0 0 1 2.67-.188 146.69 146.69 0 0 1 7.58 16.998 166.447 166.447 0 0 1 7.68 27.883c.07.357.13.705.19 1.062.118.615.218 1.23.317 1.856a104.37 104.37 0 0 1 .585 30.086h-.01Zm14.647-35.078a13.485 13.485 0 0 1 3.85-.853 6.45 6.45 0 0 1 3.969.873c.283.187.546.403.784.645l.188.189.09.099c.174.2.33.416.466.645 0 .06.07.109.1.159.077.128.146.26.208.397 0 .069.07.129.099.208.124.292.234.59.327.893 0 .169.1.347.14.536.153.652.25 1.316.287 1.984-5.25 3.94-10.498-5.775-10.498-5.775h-.01Z"/><path class="uuid-7401f8d3-e244-4166-b712-18dc248305d6" d="M235.78 500.74c-.397 1.062-2.342 2.362-5.577.992-1.985-.853-4.525-2.729-7.482-6.34a29.29 29.29 0 0 1-1.469-1.985 38.908 38.908 0 0 1-6.112-14.974c1.072-3.671 2.55-6.946 3.503-9.407 1.488-3.85-1.707-12.9-3.632-16.502s-2.57-8.99-2.362-15.192v-1.429c.01-.165.01-.33 0-.496v-.466a3.969 3.969 0 0 0-.06-.506c1.87.179 3.722.51 5.538.992a311.911 311.911 0 0 1 3.81 6.023c7.274 11.769 7.492 18.407 7.7 24.4.209 5.796-1.389 10.579.834 16.691.07.209.149.427.238.645 1.516 4.06 2.805 8.2 3.86 12.404.705 2.977 1.21 5.15 1.21 5.15Z"/><path class="uuid-ef5cf915-4db6-430c-8d5a-44c504afe1d3" d="m189.727 505.731 1.32 7.115c-1.32 1.905-.705 4.257-.318 6.212a50.022 50.022 0 0 0 1.826 5.835h-1.15c-.388 1.855 0 4.346-1.29 5.18a3.116 3.116 0 0 0-.2 1.637c.834 2.976.1 6.41.646 9.446.129.665.516 1.628.774 1.628 2.034 0 3.542 2.212 5.12 4.257a33.053 33.053 0 0 1 2.977 3.78 3.552 3.552 0 0 1-1.131-.625c-1.38-1.508-2.67-3.513-4.128-4.535a4.961 4.961 0 0 0-3.761-.446c-.228 0-.635 2.401-.506 3.493.417 3.77 1.19 7.233 3.254 8.791l-.188.556-1.985-1.915c-.387 1.121-.873 2.322-1.23 3.652a5.954 5.954 0 0 0-.149 2.381c.635 2.68 1.151 5.577 2.917 6.43a33.947 33.947 0 0 1 3.652 2.6c.308.151.66.186.992.1.516-.07 1.33-1.559 1.24 1.11 0 .13.368.318.566.447s.606.238.854.546c.754.992 1.409 2.431 2.222 2.977s1.578-.189 2.392-.12a7.125 7.125 0 0 1-1.776 1.062 1.429 1.429 0 0 1-1.588-.486c-1.806-2.838-3.97-3.066-6.192-4.128 0 .903-.06 1.538-.05 1.41a23.568 23.568 0 0 0-3.522-3.067c-1.131-.635-1.042 2.273-1.717 3.185-.065.791-.042 1.587.07 2.372-1.37.08-2.283 2.223-3.067 4.634a5.507 5.507 0 0 0-.307 2.272 21.036 21.036 0 0 0 1.984 5.1c.655.993 1.717.795 2.57 1.28a5.11 5.11 0 0 1 1.777 1.817 37.231 37.231 0 0 0-3.652-1.548 1.101 1.101 0 0 0-1.26.645c-.093.82-.018 1.65.218 2.44.407 1.698.913 3.305 1.489 5.33-.427 2.341-1.39 5.08-.586 8.652.228.993-.377 2.779-.873 3.91l.992 2.977-.357.734c-.675-1.18-1.38-2.312-1.985-3.622.167-.745.396-1.476.685-2.183 0-4.336-1.895-4.237-3.503-5.08a24.547 24.547 0 0 1-2.768-2.044c2.213-.834 3.969 1.428 6.172 2.183-.496-3.483-.923-6.44-1.35-9.397-.129-.864-.238-1.737-.357-2.6-.208-1.499-.417-2.977-.615-4.505a14.458 14.458 0 0 1-.169-1.469c0-1.121.199-2.778-.09-3.265a8.683 8.683 0 0 0-2.629-2.976 35.774 35.774 0 0 0-4.783-2.084c1.598-.804 4.307-.338 6.857 1.855.804.695 1.2.1 1.499-.843.684-2.213 1.18-4.664 1.875-6.867.526-1.627 1.24-2.977 1.985-4.684l-2.481-3.086c1.32-4.643 1.31-5.467-.09-6.946.894-.724 1.816-1.33 1.27-3.969-.257-1.24-.238-2.719-.535-3.91-.486-1.984-1.121-1.14-1.697 0a3.632 3.632 0 0 1-1.33 1.717l1.141-1.766c-2.302-2.094-4.167.992-6.251.397.258-.397.437-.923.635-.943 1.985-.228 3.97-1.766 6.043-1.24 1.24.307 1.766-.834 1.985-3.404.238-2.421.555-4.793.903-7.69l-1.568-4.962-.496.209c2.133-1.33.436-5.26 1.399-7.284l-.169-.635c-1.22.576-2.53.774-3.622 1.846s-1.845 2.977-2.798 4.594l.605-2.659c-1.121-1.885-2.123 3.354-3.195.258 1.121-.764 2.253-1.627 3.424-2.302s2.282-1.102 3.621-1.727l-.823-1.984c.426 0 .685-.12.903 0 .804.526 1.25-.1 1.389-1.648.248-2.798.437-5.616.714-8.404.189-1.985.477-3.91.715-5.865l.615-.139Z"/><path class="uuid-0f5ff2b8-5550-4ba2-9922-d205135f3f97" d="M192.555 524.893c1.052 0 2.064-.507 3.185-.308 1.985.367 2.57 3.056 3.176 6.043a25.176 25.176 0 0 0-2.034-3.622 5.676 5.676 0 0 0-2.253-1.35c-.675-.327-1.37-.545-2.054-.813l-.02.05Z"/></g></g><g id="uuid-79c64c3a-e734-4cc2-b553-9710809ffdbf"><path stroke-width="9.923" stroke="#1d1d1b" stroke-miterlimit="10" fill="#fffffc" d="M391.772 193.835h381.806v192.932H391.772z"/><path class="uuid-ef5cf915-4db6-430c-8d5a-44c504afe1d3" d="M589.972 315.382c.507-10.112 2.064-19.47 7.939-27.606 11.233-15.48 29.58-14.587 39.473 1.786 9.665 15.976 7.155 35.078-7.184 50.746a57.682 57.682 0 0 1-13.227 10.866c-10.112 5.854-17.256 2.977-21.315-7.939-3.115-8.434-4.376-17.593-5.686-27.853ZM578.59 314.012c.537 10.558-3.274 20.432-6.112 29.432-3.423 10.846-10.697 13.168-20.838 8.037-23.24-11.788-33.222-40.862-21.096-61.452 10.37-17.604 30.87-18.06 40.684-.14 4.138 7.433 7.254 15.857 7.363 24.123ZM631.738 259.535c-.178-13.674 2.799-21.463 11.322-26.018 8.852-4.743 16.8-1.3 23.994 4.148 15.877 11.977 17.256 43.969 2.69 57.504-5.488 5.1-11.492 5.745-17.426.446-11.986-10.707-19.32-24.093-20.58-36.08ZM536.498 259.754c-1.41 12.076-8.762 25.442-20.839 36.1-4.961 4.375-10.816 4.693-16.373.158-18.615-15.222-13.257-53.276 8.852-62.614 15.261-6.46 28.43 3.85 28.36 26.356Z"/><path d="M773.578 4.961H391.772v188.884h121.249c1.578-9.07 5.547-16.502 14.17-21.96 6.5-4.098 11.997-9.922 17.365-15.568 8.097-8.475 16.184-16.77 26.911-22.05 12.8-6.31 24.103-3.572 34.423 5.2 3.89 3.305 7.224 7.214 10.856 10.797 7.78 7.63 15.112 15.876 23.527 22.673a26.306 26.306 0 0 1 10.26 20.908h123.045V4.961ZM540.934 80.06c3.106-12.206 7.8-23.726 15.272-33.977.158-.218.665-.168.992-.238v22.287a40.158 40.158 0 0 0 .238 5.954c.705 4.396-.506 6.023-5.309 5.13-1.697-.308-3.81 1.915-5.805 2.798a12.404 12.404 0 0 1-4.386 1.191c-.297.05-1.24-2.183-1.002-3.145Zm-34.343 27.516a1939.433 1939.433 0 0 1 13.187-35.157c.288-.754 1.598-1.121 3.593-2.431 0 12.413-.08 23.458.05 34.502 0 3.255-1.549 4.852-4.228 3.681-3.622-1.587-5.676-.297-8.008 2.163-.744.765-2.709.834-3.9.497-.545-.15-1.032-2.312-.694-3.255Zm11.014 54.576a11.848 11.848 0 0 1-14.884-6.5c-4.852-10.24-1.618-28.776 6.43-36.873 7.323-7.373 17.752-5.954 23.27 3.523a38.035 38.035 0 0 1 4.306 11.62c.595 13.594-7.601 24.618-19.072 28.26l-.05-.03Zm49.734-40.684c-3.264 6.222-10.776 10.35-17.772 9.397-6.718-.903-9.139-6.043-10.449-11.788-.803-3.523-.992-7.185-1.498-10.787-.367-.188 2.233-12.513 5.567-17.325 5.517-7.998 13.773-7.72 20.352-.476 6.579 7.243 8.355 22.406 3.8 31.049v-.07ZM647.35 81.2c.14-.863.393-1.704.753-2.5 5.785 3.472 13.694 28.12 12.037 36.238-3.314.486-6.083 1.25-8.802 1.121-1.37-.07-3.77-1.756-3.8-2.768-.288-10.688-.219-21.394-.189-32.091ZM622.54 47.164c6.251 7.184 7.74 15.54 8.702 24.053.177 2.364.22 4.736.13 7.105 0 7.938 0 7.82-7.483 6.52-1.984-.348-4.227.327-6.39.535 1.687-12.89 3.354-25.551 5.01-38.213h.03Zm-29.343-17.861c3.741 11.193 3.86 22.416 3.414 33.658 0 .993-1.985 2.431-3.185 2.58-4.02.516-8.107.546-13.327.824 2.213-12.483 6.867-24.917 13.069-37.033l.03-.03Zm7.284 82.975c-5.28 8.197-15.877 7.939-21.583 0-7.511-10.409-6.43-21.721-2.222-32.805 2.312-6.073 8.037-8.286 14.338-7.938 5.954.287 12.384 5.953 14.022 12.274.893 3.493.992 7.185 1.498 10.777.347.149-2.778 12.592-6.083 17.722l.03-.03Zm30.563 23.746c-5.428 4.902-11.72 4.108-15.877-1.985a37.25 37.25 0 0 1-6.748-21.691c.625-3.97.993-7.939 1.985-11.838 2.55-10.102 12.81-13.446 20.322-6.242 11.124 10.757 12.116 31.119.288 41.786l.03-.03Zm35.157 19.578c-1.191 5.15-4.039 9-9.685 9.784a13.535 13.535 0 0 1-13.575-7.353c-5.12-10.717-4.634-21.622.12-32.25 2.837-6.35 9.764-7.481 14.983-2.808a29.064 29.064 0 0 1 9.973 21.364c-.616 3.781-.993 7.592-1.846 11.293l.03-.03Z" fill="#1d1d1b" stroke-width="9.923" stroke="#1d1d1b" stroke-miterlimit="10"/><path class="uuid-7de11ad2-33b9-4531-a251-c63733ee1548" d="m513.621 198.648 137.87.248a57.97 57.97 0 0 0 .238-3.463v-1.588H514.236a55.614 55.614 0 0 0-.615 4.803Z"/><path class="uuid-7de11ad2-33b9-4531-a251-c63733ee1548" d="M641.171 172.937c-8.415-6.836-15.748-15.043-23.527-22.674-3.632-3.582-6.946-7.491-10.856-10.796-10.32-8.772-21.622-11.51-34.423-5.2-10.727 5.28-18.853 13.575-26.91 22.05-5.37 5.616-10.916 11.47-17.366 15.569-8.623 5.457-12.592 12.9-14.17 21.96H651.43a26.306 26.306 0 0 0-10.26-20.909Z"/><path class="uuid-ef5cf915-4db6-430c-8d5a-44c504afe1d3" d="M513.655 198.648c.06.516.149 1.23.198 1.984a34.83 34.83 0 0 0 10.31 22.317 39.107 39.107 0 0 0 8.93 8.93c8.713 6.371 15.044 14.31 20.392 23.697 12.791 22.475 44.525 23.815 60.084 3.562 8.097-10.558 17.147-20.47 26.217-30.255a48.156 48.156 0 0 0 2.976-3.483 47.79 47.79 0 0 0 3.573-4.961 32.915 32.915 0 0 0 5.18-21.454c0 .248 0 .506-.07.764l-137.79-1.101Z"/><path class="uuid-ef5cf915-4db6-430c-8d5a-44c504afe1d3" d="M651.54 199.66c0-.258 0-.516.07-.764l-137.87-.248 137.8 1.012Z"/><path class="uuid-7de11ad2-33b9-4531-a251-c63733ee1548" d="M605.76 83.74c-1.637-6.37-8.038-11.987-14.021-12.275-6.301-.297-12.027 1.915-14.339 7.939-4.207 11.084-5.289 22.396 2.223 32.805 5.725 7.938 16.303 8.246 21.582 0 3.305-5.13 6.43-17.574 6.053-17.792-.446-3.493-.575-7.184-1.498-10.677ZM597.365 62.991c.447-11.243.328-22.466-3.413-33.659-6.202 12.106-10.856 24.55-13.099 37.063 5.22-.278 9.308-.308 13.327-.824 1.2-.149 3.145-1.637 3.185-2.58ZM533.154 122.33c-5.518-9.486-15.947-10.915-23.27-3.522-8.047 8.107-11.282 26.633-6.43 36.873a11.848 11.848 0 0 0 14.885 6.5c11.52-3.672 19.717-14.666 19.072-28.23a38.035 38.035 0 0 0-4.257-11.62ZM508.068 110.83c1.191.337 3.156.268 3.9-.497 2.332-2.46 4.386-3.75 8.008-2.163 2.679 1.171 4.267-.426 4.227-3.681-.129-11.044-.05-22.089-.05-34.502-1.984 1.31-3.304 1.677-3.592 2.43a2043.832 2043.832 0 0 0-13.187 35.158c-.338.943.149 3.106.694 3.255ZM631.49 94.328c-7.512-7.204-17.772-3.86-20.322 6.241-.992 3.86-1.32 7.939-1.985 11.838a37.25 37.25 0 0 0 6.748 21.692c4.108 6.063 10.4 6.857 15.877 1.985 11.818-10.697 10.826-31.06-.318-41.756ZM624.673 84.822c7.512 1.3 7.502 1.419 7.482-6.52.091-2.369.048-4.74-.129-7.105-.992-8.494-2.431-16.869-8.732-24.033a8772.432 8772.432 0 0 0-4.962 38.193c2.114-.248 4.297-.883 6.341-.535ZM543.97 91.063c-3.335 4.813-5.954 17.137-5.567 17.326.476 3.602.694 7.263 1.498 10.786 1.31 5.745 3.731 10.915 10.45 11.788 6.995.993 14.506-3.175 17.771-9.397 4.555-8.672 2.69-23.815-3.8-30.98-6.49-7.164-14.835-7.55-20.352.477ZM542.75 83.244a12.404 12.404 0 0 0 4.385-1.191c1.985-.883 4.108-3.106 5.805-2.798 4.803.893 6.013-.735 5.309-5.13a40.158 40.158 0 0 1-.238-5.954V45.884c-.348.07-.854 0-.993.238-7.501 10.21-12.195 21.731-15.3 33.937-.24.962.704 3.195 1.031 3.185ZM658.798 123.005c-5.22-4.674-12.146-3.542-14.983 2.808-4.754 10.628-5.24 21.533-.12 32.25a13.535 13.535 0 0 0 13.575 7.353c5.646-.784 8.494-4.634 9.685-9.784.853-3.701 1.23-7.512 1.816-11.263a29.064 29.064 0 0 0-9.973-21.364ZM652.12 116.059c2.719.129 5.487-.635 8.802-1.121 1.657-8.117-6.252-32.746-12.037-36.239a9.924 9.924 0 0 0-.754 2.5c0 10.698-.1 21.404.189 32.092.03 1.012 2.43 2.699 3.8 2.768Z"/></g><g id="uuid-35df8e97-baa2-4ebb-b17e-f5ed028d7985"><path class="uuid-7de11ad2-33b9-4531-a251-c63733ee1548" d="M788.981 341.777h371.883v371.882H788.981z"/><path class="uuid-0f5ff2b8-5550-4ba2-9922-d205135f3f97" d="M1155.903 346.738v361.96h-361.96v-361.96h361.96m9.923-9.923H784.02v381.806h381.806V336.815Z"/><path class="uuid-adc71902-fcf0-41f8-b6bd-c8b6bd7f1fa1" d="M953.429 613.994c5.1.992 11.054-.834 17.375-4.347a36.03 36.03 0 0 1-9.07-10.915 2531.608 2531.608 0 0 0-10.17 14.656 8.355 8.355 0 0 0 1.865.606Z"/><path d="M1029.27 492.996c16.761-19.281 69.43-65.647 69.43-65.647s-56.716 46.152-72.252 61.688c-1.8 1.8-21.918 23.017-29.516 31.85.165 3.28.389 6.898.613 10.702 8.6-10.993 30.05-36.666 31.724-38.593Z" stroke-width="4.864" stroke="#fff" stroke-miterlimit="10" fill="#fffffc"/><path class="uuid-1fc06729-4925-4664-9b48-90de07c8e54e" d="M961.734 598.762a2531.608 2531.608 0 0 0-10.17 14.656c-11.412 16.63-19.658 29.263-23.27 34.87l-2.044 3.185-5.855-7.562c.556-.803 1.112-1.597 1.667-2.41 8.117-11.78 15.927-23.24 23.667-34.424 3.969-5.775 7.938-11.49 11.907-17.147 1.133 3.047 2.503 6 4.098 8.832Z"/><path d="M945.467 516.947c-5.081-5.686-19.707-21.027-21.692-23.031a625.91 625.91 0 0 0-56.134-49.913c17.295 14.696 35.435 33.649 53.107 54.09 1.856 2.144 18.318 21.83 24.52 29.57v-2.827c.033-2.64.1-5.27.199-7.889Z" stroke-width="1.985" stroke="#fff" stroke-miterlimit="10" fill="#fffffc"/><path d="m1004.708 586.263-4.232-6.022a53.682 53.682 0 0 1-3.162 9.971 1382.273 1382.273 0 0 1 10.341 14.924c11.577 16.869 19.875 29.594 23.348 34.964 1.178 1.819 1.8 2.801 1.8 2.801l5.837-7.5c-.496-.71-.973-1.41-1.459-2.121-8.152-11.8-15.935-23.241-23.718-34.448a1758.504 1758.504 0 0 0-8.755-12.57Z" stroke-width="2.919" stroke="#1d1d1b" stroke-miterlimit="10" fill="#fffffc"/><path class="uuid-adc71902-fcf0-41f8-b6bd-c8b6bd7f1fa1" d="M948.037 568.884c-.43.985-.837 1.948-1.22 2.887a791.123 791.123 0 0 0-4.139-5.07c-4.029-4.962-16.72-18.308-31.853-33.322a744.51 744.51 0 0 0-6.211-6.112c-20.779-20.352-44.396-42.024-56.095-49.347-15.093-9.387-38.51-37.47-23.428-50.23 15.083-12.761 26.871-30.126 55.966-3.91 19.419 17.544 39.453 35.326 56.481 53.971 1.899 2.084 3.76 4.171 5.587 6.262a268.526 268.526 0 0 1 4.683 5.586c-1.14 8.93-1.984 18.05-2.292 27.348a797.712 797.712 0 0 0-15.837-17.068 550.235 550.235 0 0 0-5.874-5.953 625.91 625.91 0 0 0-56.135-49.913c17.266 14.686 35.406 33.639 53.078 54.08 1.866 2.144 3.712 4.307 5.567 6.48 6.43 7.581 12.761 15.321 18.963 23.09-.01 16.701 1.002 30.236 2.759 41.22Z"/><path d="M1094.06 411.852c-3.638.623-44.955 22.842-83.664 58.614a377.23 377.23 0 0 0-5.837 5.486 328.728 328.728 0 0 0-8.016 8.036c.613 10.779.768 19.622.272 24.652a91.621 91.621 0 0 0 0 12.248c7.598-8.834 15.566-17.638 24.185-26.442a417.443 417.443 0 0 1 5.331-5.409c15.566-15.565 32.366-31.481 52.533-47.416 6.538-5.555 13.513-10.118 19.71-14.272-6.644 4.923-12.647 10.886-18.737 15.731a472.798 472.798 0 0 0-50.694 49.916 1333.401 1333.401 0 0 0-5 5.838c-9.126 10.7-18.096 21.772-26.725 32.784.75 12.579 1.498 27.493-.126 40.645 8.901-9.086 16.888-17.832 22.618-23.095 4.242-3.891 11.383-11.353 19.914-20.819a675.713 675.713 0 0 0 5.653-6.352c24.982-28.31 57.99-69.373 67.019-90.377 13.104-30.226-13.202-20.653-18.436-19.768Z" stroke-width=".486" fill="#1d1d1b" stroke="#1d1d1b" stroke-miterlimit="10"/><path d="M997.39 572.448a88.797 88.797 0 0 1-1.324 7.783l4.232 6.022a48.973 48.973 0 0 0-2.909-13.805Z" stroke-width="2.919" stroke="#000" stroke-miterlimit="10"/><path d="M998.997 598.365a10.088 10.088 0 0 0 2.627-1.946c-1.391-2.004-2.84-4.076-4.31-6.168a29.428 29.428 0 0 1-6.372 9.447c2.758.43 5.582-.037 8.055-1.333Z" stroke-width=".486" stroke="#1d1d1b" stroke-miterlimit="10"/><path class="uuid-adc71902-fcf0-41f8-b6bd-c8b6bd7f1fa1" d="M982.043 598.454c-.913-8.295-2.858-28.588-2.977-29.888-.348-3.969-2.352-29.48-2.868-38.183-.198-3.374-1.538-69.72-1.469-72.17a410.183 410.183 0 0 1 3.295-43.115c-2.61 15.073-4.585 29.401-6.023 43.165-.268 2.61-3.106 68.33-3.027 71.99.09 5.12 1.528 33.739 1.667 35.664.318 4.257 2.302 26.196 3.037 32.924.198 1.896 9.238 74.264 9.387 75.415l9.367 1.707s-10.161-75.425-10.39-77.509ZM953.286 589.93a2138.885 2138.885 0 0 0-11.908 17.147c-2.342-6.063-2.103-16.869 5.488-35.306.383-.939.79-1.902 1.22-2.887.311 1.905.642 3.737.992 5.497a100.955 100.955 0 0 0 4.208 15.55Z"/><path class="uuid-1fc06729-4925-4664-9b48-90de07c8e54e" d="m1002.117 579.422-.06.07v.128a90.573 90.573 0 0 1-1.35 7.939 54.03 54.03 0 0 1-3.234 10.17 29.838 29.838 0 0 1-6.49 9.636l-.665.625a49.912 49.912 0 0 1-6.688 5.011 2786.797 2786.797 0 0 1-1.657-14.557c-.913-8.295-2.858-28.588-2.977-29.888-.357-3.969-3.264-44.93-3.423-48.325-.933-18.387-1.37-36.903-1.082-54.635 0-2.481 3.463-50.508 3.463-50.508s-6.539 48.344-6.777 50.914a571.563 571.563 0 0 0-2.391 53.188c0 3.7 1.647 44.762 1.786 46.717.317 4.257 2.302 26.197 3.036 32.924a2655.75 2655.75 0 0 0 1.766 15.56 28.41 28.41 0 0 1-9.04-4.754 36.15 36.15 0 0 1-9.069-10.915 62.078 62.078 0 0 1-4.049-8.831 100.956 100.956 0 0 1-4.266-15.55c-.351-1.76-.682-3.592-.993-5.497-1.756-10.985-2.768-24.52-2.758-41.22v-2.828c0-2.646.06-5.292.178-7.938.338-9.298 1.151-18.457 2.292-27.348.536-4.068 1.132-8.07 1.787-12.007a355.955 355.955 0 0 1 2.351-12.82 442.019 442.019 0 0 1 25.473-82.073c1.2-3.295 4.653-14.547 10.458 3.969 3.721 11.908 8.772 46.707 11.61 77.746.278 2.977.526 5.895.764 8.762a668.25 668.25 0 0 1 1.132 16.234c.625 10.995.783 20.015.277 25.145a91.796 91.796 0 0 0 0 12.493c.17 3.344.397 7.036.626 10.915.893 12.92 1.647 28.132-.03 41.548Z"/></g></svg>