<svg id="Calque_1" data-name="Calque 1" xmlns="http://www.w3.org/2000/svg" viewBox="0 0 394.77 394.77"><defs><style>.cls-1,.cls-4{fill:#fffffc;}.cls-1,.cls-3{stroke:#1d1d1b;stroke-miterlimit:10;stroke-width:10px;}.cls-2,.cls-3{fill:#1d1d1b;}</style></defs><rect class="cls-1" x="5" y="195.34" width="384.77" height="194.43"/><path class="cls-2" d="M219.09,335.06c.51-10.19,2.08-19.62,8-27.82,11.32-15.6,29.81-14.7,39.78,1.8,9.74,16.1,7.21,35.35-7.24,51.14a58.13,58.13,0,0,1-13.33,10.95c-10.19,5.9-17.39,3-21.48-8C221.68,354.63,220.41,345.4,219.09,335.06Z" transform="translate(-15.14 -17.23)"/><path class="cls-2" d="M207.62,333.68c.54,10.64-3.3,20.59-6.16,29.66-3.45,10.93-10.78,13.27-21,8.1-23.42-11.88-33.48-41.18-21.26-61.93,10.45-17.74,31.11-18.2,41-.14C204.37,316.86,207.51,325.35,207.62,333.68Z" transform="translate(-15.14 -17.23)"/><path class="cls-2" d="M261.18,278.78C261,265,264,257.15,272.59,252.56c8.92-4.78,16.93-1.31,24.18,4.18,16,12.07,17.39,44.31,2.71,57.95-5.53,5.14-11.58,5.79-17.56.45C269.84,304.35,262.45,290.86,261.18,278.78Z" transform="translate(-15.14 -17.23)"/><path class="cls-2" d="M165.2,279c-1.42,12.17-8.83,25.64-21,36.38-5,4.41-10.9,4.73-16.5.16-18.76-15.34-13.36-53.69,8.92-63.1C152,245.93,165.27,256.32,165.2,279Z" transform="translate(-15.14 -17.23)"/><path class="cls-3" d="M404.91,22.23H20.14V212.58H142.33c1.59-9.14,5.59-16.63,14.28-22.13,6.55-4.13,12.09-10,17.5-15.69,8.16-8.54,16.31-16.9,27.12-22.22,12.9-6.36,24.29-3.6,34.69,5.24,3.92,3.33,7.28,7.27,10.94,10.88,7.84,7.69,15.23,16,23.71,22.85a26.51,26.51,0,0,1,10.34,21.07h124ZM170.46,97.91c3.13-12.3,7.86-23.91,15.39-34.24.16-.22.67-.17,1-.24,0,7.62,0,15,0,22.46a40.47,40.47,0,0,0,.24,6c.71,4.43-.51,6.07-5.35,5.17-1.71-.31-3.84,1.93-5.85,2.82a12.5,12.5,0,0,1-4.42,1.2C171.17,101.13,170.22,98.88,170.46,97.91Zm-34.61,27.73q6.47-17.77,13.29-35.43c.29-.76,1.61-1.13,3.62-2.45,0,12.51-.08,23.64.05,34.77,0,3.28-1.56,4.89-4.26,3.71-3.65-1.6-5.72-.3-8.07,2.18-.75.77-2.73.84-3.93.5C136,128.77,135.51,126.59,135.85,125.64Zm11.1,55a11.94,11.94,0,0,1-15-6.55c-4.89-10.32-1.63-29,6.48-37.16,7.38-7.43,17.89-6,23.45,3.55a38.33,38.33,0,0,1,4.34,11.71C166.82,165.89,158.56,177,147,180.67Zm50.12-41c-3.29,6.27-10.86,10.43-17.91,9.47-6.77-.91-9.21-6.09-10.53-11.88-.81-3.55-1-7.24-1.51-10.87-.37-.19,2.25-12.61,5.61-17.46,5.56-8.06,13.88-7.78,20.51-.48S201.66,131,197.07,139.71ZM277.7,99.06a10,10,0,0,1,.76-2.52c5.83,3.5,13.8,28.34,12.13,36.52-3.34.49-6.13,1.26-8.87,1.13-1.38-.07-3.8-1.77-3.83-2.79C277.6,120.63,277.67,109.84,277.7,99.06Zm-25-34.3C259,72,260.5,80.42,261.47,89a63.24,63.24,0,0,1,.13,7.16c0,8,0,7.88-7.54,6.57-2-.35-4.26.33-6.44.54C249.32,90.28,251,77.52,252.67,64.76Zm-29.57-18c3.77,11.28,3.89,22.59,3.44,33.92,0,1-2,2.45-3.21,2.6-4.05.52-8.17.55-13.43.83C212.16,71.53,216.85,59,223.1,46.79Zm7.34,83.62c-5.32,8.26-16,8-21.75,0-7.57-10.49-6.48-21.89-2.24-33.06,2.33-6.12,8.1-8.35,14.45-8,6,.29,12.48,6,14.13,12.37.9,3.52,1,7.24,1.51,10.86C236.92,112.7,233.77,125.24,230.44,130.41Zm30.8,23.93c-5.47,4.94-11.81,4.14-16-2a37.54,37.54,0,0,1-6.8-21.86c.63-4,1-8,2-11.93,2.57-10.18,12.91-13.55,20.48-6.29C272.16,123.07,273.16,143.59,261.24,154.34Zm35.43,19.73c-1.2,5.19-4.07,9.07-9.76,9.86a13.64,13.64,0,0,1-13.68-7.41c-5.16-10.8-4.67-21.79.12-32.5,2.86-6.4,9.84-7.54,15.1-2.83a29.29,29.29,0,0,1,10.05,21.53C297.91,166.5,297.53,170.34,296.67,174.07Z" transform="translate(-15.14 -17.23)"/><path class="cls-4" d="M141.71,217.42l138.94.25c.11-1.16.2-2.33.24-3.49,0-.54,0-1.07,0-1.6H142.33C142.06,214.15,141.85,215.75,141.71,217.42Z" transform="translate(-15.14 -17.23)"/><path class="cls-4" d="M270.57,191.51c-8.48-6.89-15.87-15.16-23.71-22.85-3.66-3.61-7-7.55-10.94-10.88-10.4-8.84-21.79-11.6-34.69-5.24-10.81,5.32-19,13.68-27.12,22.22-5.41,5.66-11,11.56-17.5,15.69-8.69,5.5-12.69,13-14.28,22.13H280.91A26.51,26.51,0,0,0,270.57,191.51Z" transform="translate(-15.14 -17.23)"/><path class="cls-2" d="M141.71,217.42c.06.52.15,1.24.2,2a35.1,35.1,0,0,0,10.39,22.49,39.41,39.41,0,0,0,9,9c8.78,6.42,15.16,14.42,20.55,23.88,12.89,22.65,44.87,24,60.55,3.59,8.16-10.64,17.28-20.63,26.42-30.49,1.07-1.15,2.08-2.31,3-3.51a48.16,48.16,0,0,0,3.6-5,33.17,33.17,0,0,0,5.22-21.62h0c0,.25,0,.51-.07.77Z" transform="translate(-15.14 -17.23)"/><path class="cls-2" d="M280.58,218.44c0-.26,0-.52.07-.77l-138.94-.25Z" transform="translate(-15.14 -17.23)"/><path class="cls-4" d="M235,101.62c-1.65-6.42-8.1-12.08-14.13-12.37-6.35-.3-12.12,1.93-14.45,8-4.24,11.17-5.33,22.57,2.24,33.06,5.77,8,16.43,8.31,21.75,0,3.33-5.17,6.48-17.71,6.1-17.93C236.06,108.86,235.93,105.14,235,101.62Z" transform="translate(-15.14 -17.23)"/><path class="cls-4" d="M226.54,80.71c.45-11.33.33-22.64-3.44-33.92-6.25,12.2-10.94,24.74-13.2,37.35,5.26-.28,9.38-.31,13.43-.83C224.54,83.16,226.5,81.66,226.54,80.71Z" transform="translate(-15.14 -17.23)"/><path class="cls-4" d="M161.83,140.51c-5.56-9.56-16.07-11-23.45-3.55-8.11,8.17-11.37,26.84-6.48,37.16a11.94,11.94,0,0,0,15,6.55c11.61-3.7,19.87-14.78,19.22-28.45A38.33,38.33,0,0,0,161.83,140.51Z" transform="translate(-15.14 -17.23)"/><path class="cls-4" d="M136.55,128.92c1.2.34,3.18.27,3.93-.5,2.35-2.48,4.42-3.78,8.07-2.18,2.7,1.18,4.3-.43,4.26-3.71-.13-11.13-.05-22.26-.05-34.77-2,1.32-3.33,1.69-3.62,2.45q-6.81,17.66-13.29,35.43C135.51,126.59,136,128.77,136.55,128.92Z" transform="translate(-15.14 -17.23)"/><path class="cls-4" d="M260.93,112.29c-7.57-7.26-17.91-3.89-20.48,6.29-1,3.89-1.33,8-2,11.93a37.54,37.54,0,0,0,6.8,21.86c4.14,6.11,10.48,6.91,16,2C273.16,143.59,272.16,123.07,260.93,112.29Z" transform="translate(-15.14 -17.23)"/><path class="cls-4" d="M254.06,102.71c7.57,1.31,7.56,1.43,7.54-6.57a63.24,63.24,0,0,0-.13-7.16c-1-8.56-2.45-17-8.8-24.22-1.68,12.76-3.35,25.52-5,38.49C249.8,103,252,102.36,254.06,102.71Z" transform="translate(-15.14 -17.23)"/><path class="cls-4" d="M172.73,109c-3.36,4.85-6,17.27-5.61,17.46.48,3.63.7,7.32,1.51,10.87,1.32,5.79,3.76,11,10.53,11.88,7.05,1,14.62-3.2,17.91-9.47,4.59-8.74,2.71-24-3.83-31.22S178.29,100.91,172.73,109Z" transform="translate(-15.14 -17.23)"/><path class="cls-4" d="M171.5,101.12a12.5,12.5,0,0,0,4.42-1.2c2-.89,4.14-3.13,5.85-2.82,4.84.9,6.06-.74,5.35-5.17a40.47,40.47,0,0,1-.24-6c0-7.42,0-14.84,0-22.46-.35.07-.86,0-1,.24C178.32,74,173.59,85.61,170.46,97.91,170.22,98.88,171.17,101.13,171.5,101.12Z" transform="translate(-15.14 -17.23)"/><path class="cls-4" d="M288.45,141.19c-5.26-4.71-12.24-3.57-15.1,2.83-4.79,10.71-5.28,21.7-.12,32.5a13.64,13.64,0,0,0,13.68,7.41c5.69-.79,8.56-4.67,9.76-9.86.86-3.73,1.24-7.57,1.83-11.35A29.29,29.29,0,0,0,288.45,141.19Z" transform="translate(-15.14 -17.23)"/><path class="cls-4" d="M281.72,134.19c2.74.13,5.53-.64,8.87-1.13,1.67-8.18-6.3-33-12.13-36.52a10,10,0,0,0-.76,2.52c0,10.78-.1,21.57.19,32.34C277.92,132.42,280.34,134.12,281.72,134.19Z" transform="translate(-15.14 -17.23)"/></svg>