<svg id="Calque_1" data-name="Calque 1" xmlns="http://www.w3.org/2000/svg" viewBox="0 0 394.77 394.77"><defs><style>.cls-1,.cls-3,.cls-4,.cls-5{fill:#fffffc;}.cls-1,.cls-6{stroke:#000;}.cls-1,.cls-2,.cls-3,.cls-4,.cls-5,.cls-6,.cls-7{stroke-miterlimit:10;}.cls-1{stroke-width:10px;}.cls-2{fill:#1d1d1b;}.cls-2,.cls-4,.cls-7{stroke:#1d1d1b;}.cls-2,.cls-7{stroke-width:0.5px;}.cls-3,.cls-5{stroke:#fff;}.cls-3{stroke-width:5px;}.cls-4,.cls-6{stroke-width:3px;}.cls-5{stroke-width:2px;}</style></defs><rect class="cls-1" x="5" y="5" width="384.77" height="384.77"/><path class="cls-2" d="M186.5,295c5.14,1,11.14-.84,17.51-4.38a36.31,36.31,0,0,1-9.14-11c-3.63,5.19-7.06,10.14-10.25,14.77A8.42,8.42,0,0,0,186.5,295Z" transform="translate(-15.21 -10.67)"/><path class="cls-3" d="M272.77,178.69c17.23-19.82,71.37-67.48,71.37-67.48s-58.3,47.44-74.27,63.41c-1.85,1.85-22.53,23.66-30.34,32.74.17,3.37.4,7.09.63,11C249,207.06,271.05,180.67,272.77,178.69Z" transform="translate(-15.21 -10.67)"/><path class="cls-4" d="M194.87,279.65c-3.63,5.19-7.06,10.14-10.25,14.77-11.5,16.76-19.81,29.49-23.45,35.14l-2.06,3.21-5.9-7.62c.56-.81,1.12-1.61,1.68-2.43,8.18-11.87,16.05-23.42,23.85-34.69,4-5.82,8-11.58,12-17.28A62.56,62.56,0,0,0,194.87,279.65Z" transform="translate(-15.21 -10.67)"/><path class="cls-5" d="M182.91,197.2c-5.12-5.73-19.86-21.19-21.86-23.21a630.77,630.77,0,0,0-56.57-50.3C121.91,138.5,140.19,157.6,158,178.2c1.87,2.16,18.46,22,24.71,29.8,0-.94,0-1.89,0-2.85Q182.76,201.16,182.91,197.2Z" transform="translate(-15.21 -10.67)"/><path class="cls-4" d="M243,274.56l-4.35-6.19a55.18,55.18,0,0,1-3.25,10.25c1.51,2.15,3,4.28,4.43,6.34,2.16,3.11,4.24,6.12,6.2,9,11.9,17.34,20.43,30.42,24,35.94,1.21,1.87,1.85,2.88,1.85,2.88l6-7.71c-.51-.73-1-1.45-1.5-2.18C268,310.76,260,299,252,287.48,249,283.14,246,278.82,243,274.56Z" transform="translate(-15.21 -10.67)"/><path class="cls-2" d="M185.5,249.54q-.65,1.49-1.23,2.91c-1.62-2-3-3.69-4.17-5.11-4.06-5-16.85-18.45-32.1-33.58-2-2-4.14-4.09-6.26-6.16C120.8,187.09,97,165.25,85.21,157.87,70,148.41,46.4,120.11,61.6,107.25S88.68,76.89,118,103.31c19.57,17.68,39.76,35.6,56.92,54.39q2.87,3.15,5.63,6.31c1.61,1.87,3.18,3.74,4.72,5.63-1.15,9-2,18.19-2.31,27.56C177.79,191.47,172.5,185.75,167,180c-1.94-2-3.92-4-5.92-6a630.77,630.77,0,0,0-56.57-50.3C121.91,138.5,140.19,157.6,158,178.2c1.88,2.16,3.74,4.34,5.61,6.53,6.48,7.64,12.86,15.44,19.11,23.27C182.71,224.83,183.73,238.47,185.5,249.54Z" transform="translate(-15.21 -10.67)"/><path class="cls-2" d="M339.37,95.28c-3.74.64-46.21,23.48-86,60.25q-3,2.76-6,5.64c-2.77,2.68-5.53,5.45-8.24,8.26.63,11.08.79,20.17.28,25.34a94.18,94.18,0,0,0,0,12.59c7.81-9.08,16-18.13,24.86-27.18q2.7-2.79,5.48-5.56c16-16,33.27-32.36,54-48.74,6.72-5.71,13.89-10.4,20.26-14.67-6.83,5.06-13,11.19-19.26,16.17a486,486,0,0,0-52.11,51.31c-1.72,2-3.44,4-5.14,6-9.38,11-18.6,22.38-27.47,33.7.77,12.93,1.54,28.26-.13,41.78,9.15-9.34,17.36-18.33,23.25-23.74,4.36-4,11.7-11.67,20.47-21.4,1.87-2.08,3.82-4.26,5.81-6.53,25.68-29.1,59.61-71.31,68.89-92.9C371.79,84.53,344.75,94.37,339.37,95.28Z" transform="translate(-15.21 -10.67)"/><path class="cls-6" d="M240,260.36c-.35,2.76-.8,5.44-1.36,8l4.35,6.19A50.34,50.34,0,0,0,240,260.36Z" transform="translate(-15.21 -10.67)"/><path class="cls-7" d="M237.13,287a10.37,10.37,0,0,0,2.7-2c-1.43-2.06-2.92-4.19-4.43-6.34a30.25,30.25,0,0,1-6.55,9.71A13.39,13.39,0,0,0,237.13,287Z" transform="translate(-15.21 -10.67)"/><path class="cls-2" d="M219.77,279.34c-.92-8.36-2.88-28.81-3-30.12-.35-4-2.37-29.71-2.89-38.48-.2-3.4-1.55-70.26-1.48-72.73a413.37,413.37,0,0,1,3.32-43.45c-2.63,15.19-4.62,29.63-6.07,43.5-.27,2.63-3.13,68.86-3.05,72.55.09,5.16,1.54,34,1.68,35.94.32,4.29,2.32,26.4,3.06,33.18.2,1.91,9.31,74.84,9.46,76l9.44,1.72S220,281.44,219.77,279.34Z" transform="translate(-15.21 -10.67)"/><path class="cls-2" d="M190.79,270.75c-4,5.7-8,11.46-12,17.28-2.36-6.11-2.12-17,5.53-35.58q.58-1.42,1.23-2.91.47,2.88,1,5.54A101.74,101.74,0,0,0,190.79,270.75Z" transform="translate(-15.21 -10.67)"/><path class="cls-4" d="M240,260.16l-.06.07s0,.08,0,.13c-.35,2.76-.8,5.44-1.36,8a54.45,54.45,0,0,1-3.26,10.25,30.07,30.07,0,0,1-6.54,9.71l-.67.63a50.3,50.3,0,0,1-6.74,5.05c-.33-2.75-1.44-12.57-1.67-14.67-.92-8.36-2.88-28.81-3-30.12-.36-4-3.29-45.28-3.45-48.7-.94-18.53-1.38-37.19-1.09-55.06,0-2.5,3.49-50.9,3.49-50.9s-6.59,48.72-6.83,51.31c-1.71,18.74-2.44,36.47-2.41,53.6,0,3.73,1.66,45.11,1.8,47.08.32,4.29,2.32,26.4,3.06,33.18.2,1.91,1.39,12.37,1.78,15.68a28.63,28.63,0,0,1-9.11-4.79,36.43,36.43,0,0,1-9.14-11,62.56,62.56,0,0,1-4.08-8.9,101.74,101.74,0,0,1-4.3-15.67q-.53-2.66-1-5.54c-1.77-11.07-2.79-24.71-2.78-41.54,0-.94,0-1.89,0-2.85q0-4,.18-8c.34-9.37,1.16-18.6,2.31-27.56q.81-6.15,1.8-12.1c.72-4.39,1.52-8.71,2.37-12.92a445.45,445.45,0,0,1,25.67-82.71c1.21-3.32,4.69-14.66,10.54,4,3.75,12,8.84,47.07,11.7,78.35.28,3,.53,5.94.77,8.83.47,5.76.85,11.27,1.14,16.36.63,11.08.79,20.17.28,25.34a92.51,92.51,0,0,0,0,12.59c.17,3.37.4,7.09.63,11C240.93,231.31,241.69,246.64,240,260.16Z" transform="translate(-15.21 -10.67)"/></svg>