<svg xmlns="http://www.w3.org/2000/svg" viewBox="0 0 394.77 394.77"><defs><style>.cls-1,.cls-2,.cls-5{fill:#fffffc;}.cls-1,.cls-2,.cls-3,.cls-4,.cls-5{stroke:#1d1d1b;stroke-miterlimit:10;}.cls-1{stroke-width:10px;}.cls-2,.cls-3,.cls-4{stroke-width:2px;}.cls-3,.cls-6{fill:#1d1d1b;}.cls-4{fill:none;}</style></defs><g id="Calque_3" data-name="Calque 3"><rect class="cls-1" x="5" y="5" width="384.77" height="384.77"/><path class="cls-2" d="M356.87,183.85a23.47,23.47,0,0,1-5.9-1.36,15.46,15.46,0,0,0-8-.57,10.86,10.86,0,0,0-3.72-1.47,107.21,107.21,0,0,0-11.25-1c2.4-3.19,1.68-9.08-5.2-12.79-7.84-4.23-11.28-9.4-11.75-10.19l-.1-.12a22.78,22.78,0,0,0,.16-5.25c1.92,1.38,5.38,3.19,14,5.69C340.93,161.4,351,174.15,356.87,183.85Z" transform="translate(-13.47 -15.23)"/><path class="cls-2" d="M353.64,201.24l-2.74-.89c-2.64-.83-5.6-1.65-8.94-2.43a29.6,29.6,0,0,0-6.16-.8,23.07,23.07,0,0,0-10.34,2.13,3.1,3.1,0,0,0-.13-2.13,3.21,3.21,0,0,0-.29-.46c-1.07-1.45-3.44-2.85-5.56-5.4l-.48-.59c-1-1.23-2-2.64-2.9-3.85a34.72,34.72,0,0,0,4.32-.64,2.49,2.49,0,0,0,.47-.12c1.58-.6,2.59-3,5.91-5.45a5.6,5.6,0,0,0,1.17-1.16,107.21,107.21,0,0,1,11.25,1,10.86,10.86,0,0,1,3.72,1.47,17.17,17.17,0,0,1,7.19,8.87C351.19,194.17,353.11,198.61,353.64,201.24Z" transform="translate(-13.47 -15.23)"/><path class="cls-2" d="M370.4,206.62c.1.89-1,1.49-2.42,2-2.13.71-5.06,1.18-6,2-1.64,1.41-7.75,16.46-8.22,18.81s-5.65,8.22-9.41,9.16-6.81.94-9.4,2.59-9.87,4-18.57,6.34c-.42.11-.88.22-1.4.32.06-.85.11-1.7.14-2.55.13-3.27.15-6.5.08-9.7h0l.37.15a4.83,4.83,0,0,0,1.19.3l.26,0c3.76.21,5.56-4.83,14.61-1.94,11.75,3.76,18.1-4.47,18.33-9.17s.24-15,0-17.39-3.29-3.29-6.11-4a8.76,8.76,0,0,1-1.95-.74c-1.62-.86-3.35-2.46-6.09-5.7a29.6,29.6,0,0,1,6.16.8c3.34.78,6.3,1.6,8.94,2.43l2.74.89C365,205.11,369.31,208.62,370.4,206.62Z" transform="translate(-13.47 -15.23)"/><path class="cls-2" d="M325.46,199.25c-.41.19-.8.38-1.19.59l-.21.11c-.37.2-.74.41-1.1.63s-.78.47-1.15.73l-.05,0c-.33.22-.65.45-1,.69l-.28.21-.1.08c-.29.2-.57.42-.85.65l-.1.08c-.35.28-.7.58-1,.88s-.71.63-1.05,1-.59.56-.88.85a59.15,59.15,0,0,0-4.05,4.47,146.31,146.31,0,0,0-6.67-23.67c4-.35,7.68-.53,8.4-.14a3.94,3.94,0,0,0,1.93.42c.86,1.21,1.91,2.62,2.9,3.85l.48.59c2.12,2.55,4.49,4,5.56,5.4a3.21,3.21,0,0,1,.29.46A3.1,3.1,0,0,1,325.46,199.25Z" transform="translate(-13.47 -15.23)"/><path class="cls-3" d="M370.4,206.62c-1.09,2-5.44-1.51-16.76-5.38-.53-2.63-2.45-7.07-3.51-10.45a17.17,17.17,0,0,0-7.19-8.87,15.46,15.46,0,0,1,8,.57,23.47,23.47,0,0,0,5.9,1.36c1.6,2.64,2.89,5.06,3.9,7C365.47,200,371.81,204,370.4,206.62Z" transform="translate(-13.47 -15.23)"/><path class="cls-3" d="M58.13,229.3l-1.36,3.06L56,228.29l.27.15A15.71,15.71,0,0,0,58.13,229.3Z" transform="translate(-13.47 -15.23)"/><path class="cls-3" d="M65.05,230.26l-1.39,3.89-.33-3.77A12,12,0,0,0,65.05,230.26Z" transform="translate(-13.47 -15.23)"/><path class="cls-3" d="M79.17,227.72l-1.31,2.92,0-3.58Z" transform="translate(-13.47 -15.23)"/><path class="cls-3" d="M83.78,230.15l-1.46,3.32-.27-4.18c.47.25,1,.5,1.46.73Z" transform="translate(-13.47 -15.23)"/><polygon class="cls-3" points="61.51 217.61 59.62 217.57 59.62 216.89 59.63 212.09 61.2 216.69 61.51 217.61"/><polygon class="cls-3" points="72.49 222.22 70.19 221.82 70.73 218.7 71.84 220.9 72.49 222.22"/><polygon class="cls-3" points="77.26 221.46 75.85 221.21 76.31 218.55 76.92 220.42 77.26 221.46"/><polygon class="cls-3" points="56.11 221.77 54.56 222.05 54.62 221.2 54.81 218.15 55.81 220.92 56.11 221.77"/><polygon class="cls-3" points="45.5 221.96 43.7 222.63 43.72 222.34 43.88 218.21 45.27 221.43 45.5 221.96"/><path class="cls-4" d="M91.77,243.26l-.52,0,.12-2Z" transform="translate(-13.47 -15.23)"/><path class="cls-3" d="M86.67,242.63c-.2,0-.41-.07-.61-.12l.25-1.78Z" transform="translate(-13.47 -15.23)"/><path class="cls-3" d="M68.42,239.47l-.93-.12-.43-2.73Z" transform="translate(-13.47 -15.23)"/><path class="cls-4" d="M62.62,238.41,62,238.3l.3-1Z" transform="translate(-13.47 -15.23)"/><path class="cls-4" d="M75.08,239.89l-.68-.09.31-2.89Z" transform="translate(-13.47 -15.23)"/><path class="cls-3" d="M81.52,241.46l-.67-.19.26-2.54Z" transform="translate(-13.47 -15.23)"/><path class="cls-2" d="M204.54,137.05a.36.36,0,0,0,0,.1,1.84,1.84,0,0,0-.08.38c-.57,4.53-1.86,19.42-1.64,23.09s-2.28,7.76-5,12.29c-2.44,4-9.21,13.71-11.88,17.61l-.78,1.16c-1.68,2.5-4.22,9.52-4.39,10v0a33.52,33.52,0,0,1-6.61,5.73c-3.74,2.08-17.34,2.35-18.28,2.37a.35.35,0,0,1,0-.14c.05-.11.14-.27.27-.49a.67.67,0,0,1,.06-.12l3.14-5.75L160,202l4.2-7.64c1.71-3.09,3.32-6,4.48-8.07C172.41,179.72,190.35,145.05,204.54,137.05Z" transform="translate(-13.47 -15.23)"/><path class="cls-3" d="M120.24,240.12h-1.58l1.48-4Z" transform="translate(-13.47 -15.23)"/><path class="cls-3" d="M113.05,240.57l-1.09.18,0-2.1Z" transform="translate(-13.47 -15.23)"/><path class="cls-4" d="M106.84,242l-.59.18,0-2Z" transform="translate(-13.47 -15.23)"/><path class="cls-3" d="M98.71,243.38l-.64,0,.32-1.83Z" transform="translate(-13.47 -15.23)"/><path class="cls-3" d="M156,209.15c0,.17-.07.34-.1.51.05-.11.14-.27.27-.49A.47.47,0,0,1,156,209.15Zm-.18.65h0a.35.35,0,0,1,0-.14Z" transform="translate(-13.47 -15.23)"/><path class="cls-3" d="M129,234.82l-.6,1.23-.29-1.61C128.44,234.58,128.75,234.71,129,234.82Z" transform="translate(-13.47 -15.23)"/><path class="cls-3" d="M135.88,235.34l-.53,1.66-.74-1.4A7.52,7.52,0,0,0,135.88,235.34Z" transform="translate(-13.47 -15.23)"/><path class="cls-3" d="M126.35,240.44l-.89-.07.43-2.47Z" transform="translate(-13.47 -15.23)"/><path class="cls-3" d="M142.42,235.21l-2.3-2.76c1.17-1,1.17-.54,2.2-.08Z" transform="translate(-13.47 -15.23)"/><path class="cls-3" d="M152.53,231.67l-.28,1.57-.47-1.39C152,231.8,152.28,231.73,152.53,231.67Z" transform="translate(-13.47 -15.23)"/><path class="cls-5" d="M144.2,240.08c0,.13,0,.25.05.38a45.93,45.93,0,0,1-14,.4c-1.38-.17-2.66-.3-3.88-.42l-.46-2.54-.43,2.47c-1.94-.15-3.67-.23-5.22-.25l-.1-4-1.48,4a42,42,0,0,0-5.61.45l-1-1.92,0,2.1a52.11,52.11,0,0,0-5.12,1.29l-.62-1.85,0,2-1.21.32a32.88,32.88,0,0,1-6.33.84l-.32-1.81-.32,1.83a54,54,0,0,1-6.3-.14l-.4-2-.12,2c-1.51-.14-3-.32-4.58-.59l-.36-1.9-.25,1.78c-1.4-.25-2.78-.56-4.13-.94l-.41-.11-.41-2.73-.26,2.54c-2.82-.77-4.48-1.17-5.77-1.38l-.37-3-.31,2.89c-1.61-.2-2.82-.13-5.69-.31l-.29,0-1.36-2.85.43,2.73c-1.46-.21-3.19-.61-4.87-.94l-.28-1.1-.3,1c-3.73-.68-7-.82-6.26,2.64-.92-1.53.43-2.74,1.41-3.37l0,.3,1.8-.68-.23-.53c1.57-.86,2.17-.14,5.38-.1a24.88,24.88,0,0,0,4-.12l0,.85,1.55-.28-.31-.85a4.66,4.66,0,0,0,2.64-2.47,4.36,4.36,0,0,1,1.17-1.56v.67l1.88,0-.31-.91a8.62,8.62,0,0,1,2.26,1.47,12.54,12.54,0,0,0,6.88,2.81l-.15.85,2.31.4-.66-1.32,4.13-.39h0l-.13.69,1.41.25-.33-1c1.67-.16,3.21-.28,4.15-.29a10.5,10.5,0,0,0,1.79-.25c1.87,1.47,5.35,3.47,7.24-.23,2.66-5.23,4.61-1.42,11-4.7,2.49-1.26,3.73-4.38,7.41-.35a19.14,19.14,0,0,0,6.17,4.6l.29,1.61.6-1.23a11.64,11.64,0,0,0,5.57.78l.74,1.4.53-1.66a7,7,0,0,0,3.07-1.76c.49-.5.87-.86,1.17-1.13l2.3,2.76-.1-2.84a5,5,0,0,0,.9.29,1.33,1.33,0,0,0,.3.06,9.9,9.9,0,0,0,1.11.11c-.13,1-.28,1.95-.43,2.93Z" transform="translate(-13.47 -15.23)"/><path class="cls-2" d="M306.75,248.78a88.09,88.09,0,0,1-8.08,27.29c-23.94,49.57-94.14,62.11-132.22,9.24a72.18,72.18,0,0,1-11-22.18,79.84,79.84,0,0,1-3-24l0-1h0c.08-2.21.19-4.39.34-6.56a165,165,0,0,1,3-21.79c.94,0,14.54-.29,18.28-2.37a33.52,33.52,0,0,0,6.61-5.73v0a83.94,83.94,0,0,0,6-7c.46-.62,1.12-1.65,2-2.92,3-4.49,8.28-12,15-15,8.63-3.88,16-11.86,19.41-18.33s9.06-5.18,10.79-2.38a20,20,0,0,1,1.42,5,39.21,39.21,0,0,0,6.16,15.09c.46.65.95,1.3,1.48,2,3,3.64,5.51,5.53,7.54,6.39,3.26,1.38,5.22.07,5.62-1,.65-1.72,1.51,5.83,4.31,8s4.1,1.51,7.77-1.72,6.69-1.94,14.45-13.81c2.06-3.14,3.6-4.79,4.82-5.52a2.43,2.43,0,0,1,2.69-.19,147.83,147.83,0,0,1,7.64,17.13,167.74,167.74,0,0,1,7.74,28.1c.07.36.13.71.19,1.07.12.62.22,1.24.32,1.87h0A105.18,105.18,0,0,1,306.75,248.78Z" transform="translate(-13.47 -15.23)"/><path class="cls-3" d="M350,207.56c-.23-2.35-3.29-3.29-6.11-4a8.76,8.76,0,0,1-1.95-.74c-1.62-.86-3.35-2.46-6.09-5.7a23.07,23.07,0,0,0-10.34,2.13c-.41.19-.8.38-1.19.59l-.21.11c-.37.2-.74.41-1.1.63s-.77.48-1.15.73l-.05,0c-.33.22-.65.45-1,.69l-.28.21-.1.08c-.29.21-.57.43-.85.65l-.1.08c-.35.29-.7.58-1,.88s-.71.63-1.05,1-.59.56-.88.85a59.15,59.15,0,0,0-4.05,4.47,146.31,146.31,0,0,0-6.67-23.67c4-.35,7.68-.53,8.4-.14a3.94,3.94,0,0,0,1.93.42,34.72,34.72,0,0,0,4.32-.64,2.49,2.49,0,0,0,.47-.12c1.58-.6,2.59-3,5.91-5.45a5.6,5.6,0,0,0,1.17-1.16c2.4-3.19,1.68-9.08-5.2-12.79a35.36,35.36,0,0,1-11.85-10.31,22.78,22.78,0,0,0,.16-5.25c-2.55-1.81-2.43-2.84-7.88-3.64-2.76-2.4-8-7.44-12.39-11-3.69-3-18.78-10.07-30.14-15.24h0a60.76,60.76,0,0,0-20.23-9.88c-15.59-4.23-30.13-2-42.2,9.25-1.11,1-2.21,2.08-3.29,3.13-4.47,1.39-10.89,5.78-20,22.25-.68,1.23-1.36,2.45-2.06,3.65-2.85,5-5.81,9.73-8.75,14.21-12.26,18.64-24.28,32.32-27.38,35.42L134,202c-6.52,2.81-13.68,6-21.33,6.43-11.5.62-15,3.08-17.84,4.33s-12.55-.88-12.55-.88C76.5,210,71,208,59.88,212.32c-9.88,3.9-12.79,11-3.85,16l.27.15a15.71,15.71,0,0,0,1.83.86,13.79,13.79,0,0,0,5.2,1.08,12,12,0,0,0,1.72-.12,14.42,14.42,0,0,0,7.68-4.06c1.59-.61,3.28-.08,5.18.86l1.26.66c.91.49,1.86,1,2.88,1.57.47.25,1,.5,1.46.73l.27.13a86.83,86.83,0,0,0,8.32,3.33l3,.52a13.8,13.8,0,0,0,1.26,1.12c1.87,1.47,5.35,3.47,7.24-.23,2.66-5.23,4.61-1.42,11-4.7,2.49-1.26,3.73-4.38,7.41-.35a19.14,19.14,0,0,0,6.17,4.6c.29.14.6.27.89.38a11.64,11.64,0,0,0,5.57.78,7.52,7.52,0,0,0,1.27-.26,7,7,0,0,0,3.07-1.76c.49-.5.87-.86,1.17-1.13,1.17-1,1.17-.54,2.2-.08a5,5,0,0,0,.9.29,1.33,1.33,0,0,0,.3.06,9.9,9.9,0,0,0,1.11.11c-.13,1-.28,1.95-.43,2.93v4.32c0,.13,0,.25.05.38a45.93,45.93,0,0,1-14,.4c-1.38-.17-2.66-.3-3.88-.42l-.89-.07c-1.94-.15-3.67-.23-5.22-.25h-1.58a42,42,0,0,0-5.61.45l-1.09.18a52.11,52.11,0,0,0-5.12,1.29l-.59.18-1.21.32a32.88,32.88,0,0,1-6.33.84l-.64,0a54,54,0,0,1-6.3-.14l-.52,0c-1.51-.14-3-.32-4.58-.59-.2,0-.41-.07-.61-.12-1.4-.25-2.78-.56-4.13-.94l-.41-.11-.67-.19c-2.82-.77-4.48-1.17-5.77-1.38l-.68-.09c-1.61-.2-2.82-.13-5.69-.31l-.29,0-.93-.12c-1.46-.21-3.19-.61-4.87-.94L62,238.3c-3.73-.68-7-.82-6.26,2.64h0a17.86,17.86,0,0,0,2.56,5.26c8.27,12.83,10.16,7,18.88,7.24s35.28,6.16,45.28,6.6c5.58.24,16,1.47,25.2,2.38,8.67,33.61,37.54,59.66,72.14,63.86,47.55,5.79,91.78-31,95.1-78.46.06-.85.11-1.7.14-2.55.13-3.27.15-6.5.08-9.7h0l.37.15a4.83,4.83,0,0,0,1.19.3l.26,0c3.76.21,5.56-4.83,14.61-1.94,11.75,3.76,18.1-4.47,18.33-9.17S350.19,209.91,350,207.56ZM308.13,157.9h0Zm-103-22.46c-.19.4-.35.77-.48,1.12A9.18,9.18,0,0,1,205.17,135.44Zm-53.39,96.41c.25,0,.5-.12.75-.18l-.28,1.57Zm155,16.93a88.09,88.09,0,0,1-8.08,27.29c-23.94,49.57-94.14,62.11-132.22,9.24a72.18,72.18,0,0,1-11-22.18,79.84,79.84,0,0,1-3-24l0-1h0c.08-2.21.19-4.39.34-6.56a165,165,0,0,1,3-21.79h0l.08-.14c0-.17.06-.34.1-.51a.79.79,0,0,1,0-.13l.2,0,3.14-5.75L160,202l4.2-7.64c1.71-3.09,3.32-6,4.48-8.07,3.7-6.57,21.64-41.24,35.83-49.24a.36.36,0,0,0,0,.1,1.84,1.84,0,0,0-.08.38c-.57,4.53-1.86,19.42-1.64,23.09s-2.28,7.76-5,12.29c-2.44,4-9.21,13.71-11.88,17.61l-.78,1.16c-1.68,2.5-4.22,9.52-4.39,10a83.94,83.94,0,0,0,6-7c.46-.62,1.12-1.65,2-2.92,3-4.49,8.28-12,15-15,8.63-3.88,16-11.86,19.41-18.33s9.06-5.18,10.79-2.38a20,20,0,0,1,1.42,5c1.08-3.7,2.57-7,3.53-9.48,1.5-3.88-1.72-13-3.66-16.63s-2.59-9.06-2.38-15.31c0-.23,0-.46,0-.68s0-.52,0-.76a4,4,0,0,0,0-.5c0-.17,0-.32,0-.47a4,4,0,0,0-.06-.51,34.62,34.62,0,0,1,5.58,1h0c1.05,1.61,2.31,3.6,3.84,6.07,7.33,11.86,7.55,18.55,7.76,24.59.21,5.84-1.4,10.66.84,16.82.07.21.15.43.24.65a117.6,117.6,0,0,1,3.89,12.5c.78,3,1.29,5.19,1.29,5.19.65-1.72,1.51,5.83,4.31,8s4.1,1.51,7.77-1.72,6.69-1.94,14.45-13.81c2.06-3.14,3.6-4.79,4.82-5.52a2.43,2.43,0,0,1,2.69-.19,147.83,147.83,0,0,1,7.64,17.13,167.74,167.74,0,0,1,7.74,28.1c.07.36.13.71.19,1.07.12.62.22,1.24.32,1.87h0A105.18,105.18,0,0,1,306.75,248.78Zm14.76-35.35a13.59,13.59,0,0,1,3.88-.86,6.5,6.5,0,0,1,4,.88,4.88,4.88,0,0,1,.79.65l.19.19.09.1,0,0a4.5,4.5,0,0,1,.47.65c0,.06.07.11.1.16v0a3.75,3.75,0,0,1,.21.4c0,.07.07.13.1.21a9.41,9.41,0,0,1,.33.9c0,.17.1.35.14.54a11.55,11.55,0,0,1,.29,2C326.8,223.22,321.51,213.43,321.51,213.43Z" transform="translate(-13.47 -15.23)"/><path class="cls-2" d="M256.08,183.48c-.4,1.07-2.36,2.38-5.62,1-2-.86-4.56-2.75-7.54-6.39-.53-.65-1-1.3-1.48-2a39.21,39.21,0,0,1-6.16-15.09c1.08-3.7,2.57-7,3.53-9.48,1.5-3.88-1.72-13-3.66-16.63s-2.59-9.06-2.38-15.31c0-.23,0-.46,0-.68s0-.52,0-.76a4,4,0,0,0,0-.5c0-.17,0-.32,0-.47a4,4,0,0,0-.06-.51,34.62,34.62,0,0,1,5.58,1h0c1.05,1.61,2.31,3.6,3.84,6.07,7.33,11.86,7.55,18.55,7.76,24.59.21,5.84-1.4,10.66.84,16.82.07.21.15.43.24.65a117.6,117.6,0,0,1,3.89,12.5C255.57,181.29,256.08,183.48,256.08,183.48Z" transform="translate(-13.47 -15.23)"/><path class="cls-6" d="M209.67,188.51l1.33,7.17c-1.33,1.92-.71,4.29-.32,6.26a50.41,50.41,0,0,0,1.84,5.88l0,0h-1.16c-.39,1.87,0,4.38-1.3,5.22a3.14,3.14,0,0,0-.2,1.65c.84,3,.1,6.46.65,9.52.13.67.52,1.64.78,1.64,2.05,0,3.57,2.23,5.16,4.29a33.31,33.31,0,0,1,3,3.81,3.58,3.58,0,0,1-1.14-.63c-1.39-1.52-2.69-3.54-4.16-4.57a5,5,0,0,0-3.79-.45c-.23,0-.64,2.42-.51,3.52.42,3.8,1.2,7.29,3.28,8.86l-.19.56-2-1.93c-.39,1.13-.88,2.34-1.24,3.68a6,6,0,0,0-.15,2.4c.64,2.7,1.16,5.62,2.94,6.48a34.21,34.21,0,0,1,3.68,2.62,1.44,1.44,0,0,0,1,.1c.52-.07,1.34-1.57,1.25,1.12,0,.13.37.32.57.45s.61.24.86.55c.76,1,1.42,2.45,2.24,3s1.59-.19,2.41-.12a7.18,7.18,0,0,1-1.79,1.07,1.44,1.44,0,0,1-1.6-.49c-1.82-2.86-4-3.09-6.24-4.16,0,.91-.06,1.55-.05,1.42a23.75,23.75,0,0,0-3.55-3.09c-1.14-.64-1.05,2.29-1.73,3.21a10.74,10.74,0,0,0,.07,2.39c-1.38.08-2.3,2.24-3.09,4.67a5.55,5.55,0,0,0-.31,2.29,21.2,21.2,0,0,0,2,5.14c.66,1,1.73.8,2.59,1.29a5.15,5.15,0,0,1,1.79,1.83,37.52,37.52,0,0,0-3.68-1.56,1.11,1.11,0,0,0-1.27.65,6.17,6.17,0,0,0,.22,2.46c.41,1.71.92,3.33,1.5,5.37-.43,2.36-1.4,5.12-.59,8.72.23,1-.38,2.8-.88,3.94l1,3-.36.74c-.68-1.19-1.39-2.33-2-3.65a13.67,13.67,0,0,1,.69-2.2c0-4.37-1.91-4.27-3.53-5.12a24.74,24.74,0,0,1-2.79-2.06c2.23-.84,4,1.44,6.22,2.2-.5-3.51-.93-6.49-1.36-9.47-.13-.87-.24-1.75-.36-2.62-.21-1.51-.42-3-.62-4.54a14.57,14.57,0,0,1-.17-1.48c0-1.13.2-2.8-.09-3.29a8.75,8.75,0,0,0-2.65-3,36.05,36.05,0,0,0-4.82-2.1c1.61-.81,4.34-.34,6.91,1.87.81.7,1.21.1,1.51-.85.69-2.23,1.19-4.7,1.89-6.92.53-1.64,1.25-3,2-4.72l-2.5-3.11c1.33-4.68,1.32-5.51-.09-7,.9-.73,1.83-1.34,1.28-4-.26-1.25-.24-2.74-.54-3.94-.49-2-1.13-1.15-1.71,0a3.66,3.66,0,0,1-1.34,1.73l1.15-1.78c-2.32-2.11-4.2,1-6.3.4.26-.4.44-.93.64-.95,2-.23,4-1.78,6.09-1.25,1.25.31,1.78-.84,2-3.43.24-2.44.56-4.83.91-7.75l-1.58-5-.5.21c2.15-1.34.44-5.3,1.41-7.34l-.17-.64c-1.23.58-2.55.78-3.65,1.86s-1.86,3-2.82,4.63l.61-2.68c-1.13-1.9-2.14,3.38-3.22.26,1.13-.77,2.27-1.64,3.45-2.32s2.3-1.11,3.65-1.74l-.83-2c.43,0,.69-.12.91,0,.81.53,1.26-.1,1.4-1.66.25-2.82.44-5.66.72-8.47.19-2,.48-3.94.72-5.91Z" transform="translate(-13.47 -15.23)"/><path d="M212.52,207.82c1.06,0,2.08-.51,3.21-.31,2,.37,2.59,3.08,3.2,6.09a25.37,25.37,0,0,0-2.05-3.65,5.72,5.72,0,0,0-2.27-1.36c-.68-.33-1.38-.55-2.07-.82Z" transform="translate(-13.47 -15.23)"/></g></svg>